<svg width="319" height="522" viewBox="0 0 319 522" fill="none" xmlns="http://www.w3.org/2000/svg">
<g filter="url(#filter0_d_265_1592)">
<rect x="22" y="12" width="275" height="478" rx="22" fill="url(#paint0_linear_265_1592)"/>
</g>
<path d="M119.284 375.446H122.504V377H117.324V367.228H119.284V375.446ZM130.96 372.954C130.96 373.234 130.942 373.486 130.904 373.71H125.234C125.281 374.27 125.477 374.709 125.822 375.026C126.168 375.343 126.592 375.502 127.096 375.502C127.824 375.502 128.342 375.189 128.65 374.564H130.764C130.54 375.311 130.111 375.927 129.476 376.412C128.842 376.888 128.062 377.126 127.138 377.126C126.392 377.126 125.72 376.963 125.122 376.636C124.534 376.3 124.072 375.829 123.736 375.222C123.41 374.615 123.246 373.915 123.246 373.122C123.246 372.319 123.41 371.615 123.736 371.008C124.063 370.401 124.52 369.935 125.108 369.608C125.696 369.281 126.373 369.118 127.138 369.118C127.876 369.118 128.534 369.277 129.112 369.594C129.7 369.911 130.153 370.364 130.47 370.952C130.797 371.531 130.96 372.198 130.96 372.954ZM128.93 372.394C128.921 371.89 128.739 371.489 128.384 371.19C128.03 370.882 127.596 370.728 127.082 370.728C126.597 370.728 126.186 370.877 125.85 371.176C125.524 371.465 125.323 371.871 125.248 372.394H128.93ZM131.887 373.094C131.887 372.31 132.041 371.615 132.349 371.008C132.666 370.401 133.091 369.935 133.623 369.608C134.164 369.281 134.766 369.118 135.429 369.118C136.007 369.118 136.511 369.235 136.941 369.468C137.379 369.701 137.729 369.995 137.991 370.35V369.244H139.965V377H137.991V375.866C137.739 376.23 137.389 376.533 136.941 376.776C136.502 377.009 135.993 377.126 135.415 377.126C134.761 377.126 134.164 376.958 133.623 376.622C133.091 376.286 132.666 375.815 132.349 375.208C132.041 374.592 131.887 373.887 131.887 373.094ZM137.991 373.122C137.991 372.646 137.897 372.24 137.711 371.904C137.524 371.559 137.272 371.297 136.955 371.12C136.637 370.933 136.297 370.84 135.933 370.84C135.569 370.84 135.233 370.929 134.925 371.106C134.617 371.283 134.365 371.545 134.169 371.89C133.982 372.226 133.889 372.627 133.889 373.094C133.889 373.561 133.982 373.971 134.169 374.326C134.365 374.671 134.617 374.937 134.925 375.124C135.242 375.311 135.578 375.404 135.933 375.404C136.297 375.404 136.637 375.315 136.955 375.138C137.272 374.951 137.524 374.69 137.711 374.354C137.897 374.009 137.991 373.598 137.991 373.122ZM146.177 369.132C147.101 369.132 147.848 369.426 148.417 370.014C148.986 370.593 149.271 371.405 149.271 372.45V377H147.311V372.716C147.311 372.1 147.157 371.629 146.849 371.302C146.541 370.966 146.121 370.798 145.589 370.798C145.048 370.798 144.618 370.966 144.301 371.302C143.993 371.629 143.839 372.1 143.839 372.716V377H141.879V369.244H143.839V370.21C144.1 369.874 144.432 369.613 144.833 369.426C145.244 369.23 145.692 369.132 146.177 369.132ZM161.989 377L160.925 375.95C160.02 376.762 158.914 377.168 157.607 377.168C156.888 377.168 156.254 377.047 155.703 376.804C155.162 376.552 154.742 376.202 154.443 375.754C154.144 375.297 153.995 374.769 153.995 374.172C153.995 373.528 154.177 372.949 154.541 372.436C154.905 371.923 155.442 371.507 156.151 371.19C155.899 370.882 155.717 370.588 155.605 370.308C155.493 370.019 155.437 369.711 155.437 369.384C155.437 368.936 155.554 368.535 155.787 368.18C156.02 367.816 156.352 367.531 156.781 367.326C157.22 367.121 157.728 367.018 158.307 367.018C158.895 367.018 159.399 367.13 159.819 367.354C160.239 367.578 160.552 367.877 160.757 368.25C160.962 368.623 161.051 369.039 161.023 369.496H159.119C159.128 369.188 159.054 368.955 158.895 368.796C158.736 368.628 158.522 368.544 158.251 368.544C157.99 368.544 157.77 368.623 157.593 368.782C157.425 368.931 157.341 369.127 157.341 369.37C157.341 369.603 157.411 369.837 157.551 370.07C157.691 370.294 157.92 370.574 158.237 370.91L160.701 373.346C160.72 373.327 160.734 373.309 160.743 373.29C160.752 373.271 160.762 373.253 160.771 373.234L161.569 371.904H163.613L162.633 373.626C162.446 373.99 162.246 374.335 162.031 374.662L164.397 377H161.989ZM157.663 375.544C158.428 375.544 159.105 375.273 159.693 374.732L157.285 372.352C156.38 372.753 155.927 373.323 155.927 374.06C155.927 374.48 156.086 374.835 156.403 375.124C156.72 375.404 157.14 375.544 157.663 375.544ZM175.353 367.228V368.81H172.749V377H170.789V368.81H168.185V367.228H175.353ZM180.227 377.126C179.481 377.126 178.809 376.963 178.211 376.636C177.614 376.3 177.143 375.829 176.797 375.222C176.461 374.615 176.293 373.915 176.293 373.122C176.293 372.329 176.466 371.629 176.811 371.022C177.166 370.415 177.647 369.949 178.253 369.622C178.86 369.286 179.537 369.118 180.283 369.118C181.03 369.118 181.707 369.286 182.313 369.622C182.92 369.949 183.396 370.415 183.741 371.022C184.096 371.629 184.273 372.329 184.273 373.122C184.273 373.915 184.091 374.615 183.727 375.222C183.373 375.829 182.887 376.3 182.271 376.636C181.665 376.963 180.983 377.126 180.227 377.126ZM180.227 375.418C180.582 375.418 180.913 375.334 181.221 375.166C181.539 374.989 181.791 374.727 181.977 374.382C182.164 374.037 182.257 373.617 182.257 373.122C182.257 372.385 182.061 371.82 181.669 371.428C181.287 371.027 180.815 370.826 180.255 370.826C179.695 370.826 179.224 371.027 178.841 371.428C178.468 371.82 178.281 372.385 178.281 373.122C178.281 373.859 178.463 374.429 178.827 374.83C179.201 375.222 179.667 375.418 180.227 375.418ZM190.009 369.132C190.933 369.132 191.68 369.426 192.249 370.014C192.818 370.593 193.103 371.405 193.103 372.45V377H191.143V372.716C191.143 372.1 190.989 371.629 190.681 371.302C190.373 370.966 189.953 370.798 189.421 370.798C188.88 370.798 188.45 370.966 188.133 371.302C187.825 371.629 187.671 372.1 187.671 372.716V377H185.711V369.244H187.671V370.21C187.932 369.874 188.264 369.613 188.665 369.426C189.076 369.23 189.524 369.132 190.009 369.132ZM202.177 372.954C202.177 373.234 202.158 373.486 202.121 373.71H196.451C196.498 374.27 196.694 374.709 197.039 375.026C197.384 375.343 197.809 375.502 198.313 375.502C199.041 375.502 199.559 375.189 199.867 374.564H201.981C201.757 375.311 201.328 375.927 200.693 376.412C200.058 376.888 199.279 377.126 198.355 377.126C197.608 377.126 196.936 376.963 196.339 376.636C195.751 376.3 195.289 375.829 194.953 375.222C194.626 374.615 194.463 373.915 194.463 373.122C194.463 372.319 194.626 371.615 194.953 371.008C195.28 370.401 195.737 369.935 196.325 369.608C196.913 369.281 197.59 369.118 198.355 369.118C199.092 369.118 199.75 369.277 200.329 369.594C200.917 369.911 201.37 370.364 201.687 370.952C202.014 371.531 202.177 372.198 202.177 372.954ZM200.147 372.394C200.138 371.89 199.956 371.489 199.601 371.19C199.246 370.882 198.812 370.728 198.299 370.728C197.814 370.728 197.403 370.877 197.067 371.176C196.74 371.465 196.54 371.871 196.465 372.394H200.147Z" fill="white"/>
<path d="M61.5258 410.636V419H60.4338V410.636H61.5258ZM63.5549 410.636H64.7669L63.6149 413.36H62.8469L63.5549 410.636ZM73.9199 412.304C74.4319 412.304 74.8879 412.412 75.2879 412.628C75.6879 412.836 76.0039 413.152 76.2359 413.576C76.4679 414 76.5839 414.516 76.5839 415.124V419H75.5039V415.28C75.5039 414.624 75.3399 414.124 75.0119 413.78C74.6919 413.428 74.2559 413.252 73.7039 413.252C73.1359 413.252 72.6839 413.436 72.3479 413.804C72.0119 414.164 71.8439 414.688 71.8439 415.376V419H70.7639V415.28C70.7639 414.624 70.5999 414.124 70.2719 413.78C69.9519 413.428 69.5159 413.252 68.9639 413.252C68.3959 413.252 67.9439 413.436 67.6079 413.804C67.2719 414.164 67.1039 414.688 67.1039 415.376V419H66.0119V412.424H67.1039V413.372C67.3199 413.028 67.6079 412.764 67.9679 412.58C68.3359 412.396 68.7399 412.304 69.1799 412.304C69.7319 412.304 70.2199 412.428 70.6439 412.676C71.0679 412.924 71.3839 413.288 71.5919 413.768C71.7759 413.304 72.0799 412.944 72.5039 412.688C72.9279 412.432 73.3999 412.304 73.9199 412.304ZM82.1624 413.36H80.9384L82.0904 410.636H82.8704L82.1624 413.36ZM84.1064 413.36H82.8824L84.0344 410.636H84.8144L84.1064 413.36ZM88.461 419.108C87.957 419.108 87.505 419.024 87.105 418.856C86.705 418.68 86.389 418.44 86.157 418.136C85.925 417.824 85.797 417.468 85.773 417.068H86.901C86.933 417.396 87.085 417.664 87.357 417.872C87.637 418.08 88.001 418.184 88.449 418.184C88.865 418.184 89.193 418.092 89.433 417.908C89.673 417.724 89.793 417.492 89.793 417.212C89.793 416.924 89.665 416.712 89.409 416.576C89.153 416.432 88.757 416.292 88.221 416.156C87.733 416.028 87.333 415.9 87.021 415.772C86.717 415.636 86.453 415.44 86.229 415.184C86.013 414.92 85.905 414.576 85.905 414.152C85.905 413.816 86.005 413.508 86.205 413.228C86.405 412.948 86.689 412.728 87.057 412.568C87.425 412.4 87.845 412.316 88.317 412.316C89.045 412.316 89.633 412.5 90.081 412.868C90.529 413.236 90.769 413.74 90.801 414.38H89.709C89.685 414.036 89.545 413.76 89.289 413.552C89.041 413.344 88.705 413.24 88.281 413.24C87.889 413.24 87.577 413.324 87.345 413.492C87.113 413.66 86.997 413.88 86.997 414.152C86.997 414.368 87.065 414.548 87.201 414.692C87.345 414.828 87.521 414.94 87.729 415.028C87.945 415.108 88.241 415.2 88.617 415.304C89.089 415.432 89.473 415.56 89.769 415.688C90.065 415.808 90.317 415.992 90.525 416.24C90.741 416.488 90.853 416.812 90.861 417.212C90.861 417.572 90.761 417.896 90.561 418.184C90.361 418.472 90.077 418.7 89.709 418.868C89.349 419.028 88.933 419.108 88.461 419.108ZM96.0745 419L93.4945 416.096V419H92.4025V410.12H93.4945V415.34L96.0265 412.424H97.5505L94.4545 415.7L97.5625 419H96.0745ZM99.1423 411.356C98.9343 411.356 98.7583 411.284 98.6143 411.14C98.4703 410.996 98.3983 410.82 98.3983 410.612C98.3983 410.404 98.4703 410.228 98.6143 410.084C98.7583 409.94 98.9343 409.868 99.1423 409.868C99.3423 409.868 99.5103 409.94 99.6463 410.084C99.7903 410.228 99.8623 410.404 99.8623 410.612C99.8623 410.82 99.7903 410.996 99.6463 411.14C99.5103 411.284 99.3423 411.356 99.1423 411.356ZM99.6703 412.424V419H98.5783V412.424H99.6703ZM104.735 412.304C105.535 412.304 106.183 412.548 106.679 413.036C107.175 413.516 107.423 414.212 107.423 415.124V419H106.343V415.28C106.343 414.624 106.179 414.124 105.851 413.78C105.523 413.428 105.075 413.252 104.507 413.252C103.931 413.252 103.471 413.432 103.127 413.792C102.791 414.152 102.623 414.676 102.623 415.364V419H101.531V412.424H102.623V413.36C102.839 413.024 103.131 412.764 103.499 412.58C103.875 412.396 104.287 412.304 104.735 412.304ZM112.411 412.304C113.211 412.304 113.859 412.548 114.355 413.036C114.851 413.516 115.099 414.212 115.099 415.124V419H114.019V415.28C114.019 414.624 113.855 414.124 113.527 413.78C113.199 413.428 112.751 413.252 112.183 413.252C111.607 413.252 111.147 413.432 110.803 413.792C110.467 414.152 110.299 414.676 110.299 415.364V419H109.207V412.424H110.299V413.36C110.515 413.024 110.807 412.764 111.175 412.58C111.551 412.396 111.963 412.304 112.411 412.304ZM122.547 412.424L118.587 422.096H117.459L118.755 418.928L116.103 412.424H117.315L119.379 417.752L121.419 412.424H122.547ZM129.52 413.324H128.14V419H127.048V413.324H126.196V412.424H127.048V411.956C127.048 411.22 127.236 410.684 127.612 410.348C127.996 410.004 128.608 409.832 129.448 409.832V410.744C128.968 410.744 128.628 410.84 128.428 411.032C128.236 411.216 128.14 411.524 128.14 411.956V412.424H129.52V413.324ZM130.385 415.688C130.385 415.016 130.521 414.428 130.793 413.924C131.065 413.412 131.437 413.016 131.909 412.736C132.389 412.456 132.921 412.316 133.505 412.316C134.081 412.316 134.581 412.44 135.005 412.688C135.429 412.936 135.745 413.248 135.953 413.624V412.424H137.057V419H135.953V417.776C135.737 418.16 135.413 418.48 134.981 418.736C134.557 418.984 134.061 419.108 133.493 419.108C132.909 419.108 132.381 418.964 131.909 418.676C131.437 418.388 131.065 417.984 130.793 417.464C130.521 416.944 130.385 416.352 130.385 415.688ZM135.953 415.7C135.953 415.204 135.853 414.772 135.653 414.404C135.453 414.036 135.181 413.756 134.837 413.564C134.501 413.364 134.129 413.264 133.721 413.264C133.313 413.264 132.941 413.36 132.605 413.552C132.269 413.744 132.001 414.024 131.801 414.392C131.601 414.76 131.501 415.192 131.501 415.688C131.501 416.192 131.601 416.632 131.801 417.008C132.001 417.376 132.269 417.66 132.605 417.86C132.941 418.052 133.313 418.148 133.721 418.148C134.129 418.148 134.501 418.052 134.837 417.86C135.181 417.66 135.453 417.376 135.653 417.008C135.853 416.632 135.953 416.196 135.953 415.7ZM140.235 413.324V417.2C140.235 417.52 140.303 417.748 140.439 417.884C140.575 418.012 140.811 418.076 141.147 418.076H141.951V419H140.967C140.359 419 139.903 418.86 139.599 418.58C139.295 418.3 139.143 417.84 139.143 417.2V413.324H138.291V412.424H139.143V410.768H140.235V412.424H141.951V413.324H140.235ZM143.442 410.636H144.654L143.502 413.36H142.734L143.442 410.636ZM145.386 410.636H146.598L145.446 413.36H144.666L145.386 410.636ZM148.18 419.072C147.972 419.072 147.796 419 147.652 418.856C147.508 418.712 147.436 418.536 147.436 418.328C147.436 418.12 147.508 417.944 147.652 417.8C147.796 417.656 147.972 417.584 148.18 417.584C148.38 417.584 148.548 417.656 148.684 417.8C148.828 417.944 148.9 418.12 148.9 418.328C148.9 418.536 148.828 418.712 148.684 418.856C148.548 419 148.38 419.072 148.18 419.072ZM154.643 410.12V419H153.551V410.12H154.643ZM159.372 419.108C158.756 419.108 158.196 418.968 157.692 418.688C157.196 418.408 156.804 418.012 156.516 417.5C156.236 416.98 156.096 416.38 156.096 415.7C156.096 415.028 156.24 414.436 156.528 413.924C156.824 413.404 157.224 413.008 157.728 412.736C158.232 412.456 158.796 412.316 159.42 412.316C160.044 412.316 160.608 412.456 161.112 412.736C161.616 413.008 162.012 413.4 162.3 413.912C162.596 414.424 162.744 415.02 162.744 415.7C162.744 416.38 162.592 416.98 162.288 417.5C161.992 418.012 161.588 418.408 161.076 418.688C160.564 418.968 159.996 419.108 159.372 419.108ZM159.372 418.148C159.764 418.148 160.132 418.056 160.476 417.872C160.82 417.688 161.096 417.412 161.304 417.044C161.52 416.676 161.628 416.228 161.628 415.7C161.628 415.172 161.524 414.724 161.316 414.356C161.108 413.988 160.836 413.716 160.5 413.54C160.164 413.356 159.8 413.264 159.408 413.264C159.008 413.264 158.64 413.356 158.304 413.54C157.976 413.716 157.712 413.988 157.512 414.356C157.312 414.724 157.212 415.172 157.212 415.7C157.212 416.236 157.308 416.688 157.5 417.056C157.7 417.424 157.964 417.7 158.292 417.884C158.62 418.06 158.98 418.148 159.372 418.148ZM167.048 419.108C166.432 419.108 165.872 418.968 165.368 418.688C164.872 418.408 164.48 418.012 164.192 417.5C163.912 416.98 163.772 416.38 163.772 415.7C163.772 415.028 163.916 414.436 164.204 413.924C164.5 413.404 164.9 413.008 165.404 412.736C165.908 412.456 166.472 412.316 167.096 412.316C167.72 412.316 168.284 412.456 168.788 412.736C169.292 413.008 169.688 413.4 169.976 413.912C170.272 414.424 170.42 415.02 170.42 415.7C170.42 416.38 170.268 416.98 169.964 417.5C169.668 418.012 169.264 418.408 168.752 418.688C168.24 418.968 167.672 419.108 167.048 419.108ZM167.048 418.148C167.44 418.148 167.808 418.056 168.152 417.872C168.496 417.688 168.772 417.412 168.98 417.044C169.196 416.676 169.304 416.228 169.304 415.7C169.304 415.172 169.2 414.724 168.992 414.356C168.784 413.988 168.512 413.716 168.176 413.54C167.84 413.356 167.476 413.264 167.084 413.264C166.684 413.264 166.316 413.356 165.98 413.54C165.652 413.716 165.388 413.988 165.188 414.356C164.988 414.724 164.888 415.172 164.888 415.7C164.888 416.236 164.984 416.688 165.176 417.056C165.376 417.424 165.64 417.7 165.968 417.884C166.296 418.06 166.656 418.148 167.048 418.148ZM175.528 419L172.948 416.096V419H171.856V410.12H172.948V415.34L175.48 412.424H177.004L173.908 415.7L177.016 419H175.528ZM182.563 413.324V417.2C182.563 417.52 182.631 417.748 182.767 417.884C182.903 418.012 183.139 418.076 183.475 418.076H184.279V419H183.295C182.687 419 182.231 418.86 181.927 418.58C181.623 418.3 181.471 417.84 181.471 417.2V413.324H180.619V412.424H181.471V410.768H182.563V412.424H184.279V413.324H182.563ZM188.866 412.304C189.362 412.304 189.81 412.412 190.21 412.628C190.61 412.836 190.922 413.152 191.146 413.576C191.378 414 191.494 414.516 191.494 415.124V419H190.414V415.28C190.414 414.624 190.25 414.124 189.922 413.78C189.594 413.428 189.146 413.252 188.578 413.252C188.002 413.252 187.542 413.432 187.198 413.792C186.862 414.152 186.694 414.676 186.694 415.364V419H185.602V410.12H186.694V413.36C186.91 413.024 187.206 412.764 187.582 412.58C187.966 412.396 188.394 412.304 188.866 412.304ZM193.842 411.356C193.634 411.356 193.458 411.284 193.314 411.14C193.17 410.996 193.098 410.82 193.098 410.612C193.098 410.404 193.17 410.228 193.314 410.084C193.458 409.94 193.634 409.868 193.842 409.868C194.042 409.868 194.21 409.94 194.346 410.084C194.49 410.228 194.562 410.404 194.562 410.612C194.562 410.82 194.49 410.996 194.346 411.14C194.21 411.284 194.042 411.356 193.842 411.356ZM194.37 412.424V419H193.278V412.424H194.37ZM199.435 412.304C200.235 412.304 200.883 412.548 201.379 413.036C201.875 413.516 202.123 414.212 202.123 415.124V419H201.043V415.28C201.043 414.624 200.879 414.124 200.551 413.78C200.223 413.428 199.775 413.252 199.207 413.252C198.631 413.252 198.171 413.432 197.827 413.792C197.491 414.152 197.323 414.676 197.323 415.364V419H196.231V412.424H197.323V413.36C197.539 413.024 197.831 412.764 198.199 412.58C198.575 412.396 198.987 412.304 199.435 412.304ZM208.198 413.648C208.422 413.256 208.75 412.936 209.182 412.688C209.614 412.44 210.106 412.316 210.658 412.316C211.25 412.316 211.782 412.456 212.254 412.736C212.726 413.016 213.098 413.412 213.37 413.924C213.642 414.428 213.778 415.016 213.778 415.688C213.778 416.352 213.642 416.944 213.37 417.464C213.098 417.984 212.722 418.388 212.242 418.676C211.77 418.964 211.242 419.108 210.658 419.108C210.09 419.108 209.59 418.984 209.158 418.736C208.734 418.488 208.414 418.172 208.198 417.788V419H207.106V410.12H208.198V413.648ZM212.662 415.688C212.662 415.192 212.562 414.76 212.362 414.392C212.162 414.024 211.89 413.744 211.546 413.552C211.21 413.36 210.838 413.264 210.43 413.264C210.03 413.264 209.658 413.364 209.314 413.564C208.978 413.756 208.706 414.04 208.498 414.416C208.298 414.784 208.198 415.212 208.198 415.7C208.198 416.196 208.298 416.632 208.498 417.008C208.706 417.376 208.978 417.66 209.314 417.86C209.658 418.052 210.03 418.148 210.43 418.148C210.838 418.148 211.21 418.052 211.546 417.86C211.89 417.66 212.162 417.376 212.362 417.008C212.562 416.632 212.662 416.192 212.662 415.688ZM221.047 412.424V419H219.955V418.028C219.747 418.364 219.455 418.628 219.079 418.82C218.711 419.004 218.303 419.096 217.855 419.096C217.343 419.096 216.883 418.992 216.475 418.784C216.067 418.568 215.743 418.248 215.503 417.824C215.271 417.4 215.155 416.884 215.155 416.276V412.424H216.235V416.132C216.235 416.78 216.399 417.28 216.727 417.632C217.055 417.976 217.503 418.148 218.071 418.148C218.655 418.148 219.115 417.968 219.451 417.608C219.787 417.248 219.955 416.724 219.955 416.036V412.424H221.047ZM224.223 413.324V417.2C224.223 417.52 224.291 417.748 224.427 417.884C224.563 418.012 224.799 418.076 225.135 418.076H225.939V419H224.955C224.347 419 223.891 418.86 223.587 418.58C223.283 418.3 223.131 417.84 223.131 417.2V413.324H222.279V412.424H223.131V410.768H224.223V412.424H225.939V413.324H224.223ZM233.725 412.304C234.221 412.304 234.669 412.412 235.069 412.628C235.469 412.836 235.781 413.152 236.005 413.576C236.237 414 236.353 414.516 236.353 415.124V419H235.273V415.28C235.273 414.624 235.109 414.124 234.781 413.78C234.453 413.428 234.005 413.252 233.437 413.252C232.861 413.252 232.401 413.432 232.057 413.792C231.721 414.152 231.553 414.676 231.553 415.364V419H230.461V410.12H231.553V413.36C231.769 413.024 232.065 412.764 232.441 412.58C232.825 412.396 233.253 412.304 233.725 412.304ZM237.729 415.688C237.729 415.016 237.865 414.428 238.137 413.924C238.409 413.412 238.781 413.016 239.253 412.736C239.733 412.456 240.265 412.316 240.849 412.316C241.425 412.316 241.925 412.44 242.349 412.688C242.773 412.936 243.089 413.248 243.297 413.624V412.424H244.401V419H243.297V417.776C243.081 418.16 242.757 418.48 242.325 418.736C241.901 418.984 241.405 419.108 240.837 419.108C240.253 419.108 239.725 418.964 239.253 418.676C238.781 418.388 238.409 417.984 238.137 417.464C237.865 416.944 237.729 416.352 237.729 415.688ZM243.297 415.7C243.297 415.204 243.197 414.772 242.997 414.404C242.797 414.036 242.525 413.756 242.181 413.564C241.845 413.364 241.473 413.264 241.065 413.264C240.657 413.264 240.285 413.36 239.949 413.552C239.613 413.744 239.345 414.024 239.145 414.392C238.945 414.76 238.845 415.192 238.845 415.688C238.845 416.192 238.945 416.632 239.145 417.008C239.345 417.376 239.613 417.66 239.949 417.86C240.285 418.052 240.657 418.148 241.065 418.148C241.473 418.148 241.845 418.052 242.181 417.86C242.525 417.66 242.797 417.376 242.997 417.008C243.197 416.632 243.297 416.196 243.297 415.7ZM248.694 417.992L250.734 412.424H251.898L249.318 419H248.046L245.466 412.424H246.642L248.694 417.992ZM258.973 415.46C258.973 415.668 258.961 415.888 258.937 416.12H253.681C253.721 416.768 253.941 417.276 254.341 417.644C254.749 418.004 255.241 418.184 255.817 418.184C256.289 418.184 256.681 418.076 256.993 417.86C257.313 417.636 257.537 417.34 257.665 416.972H258.841C258.665 417.604 258.313 418.12 257.785 418.52C257.257 418.912 256.601 419.108 255.817 419.108C255.193 419.108 254.633 418.968 254.137 418.688C253.649 418.408 253.265 418.012 252.985 417.5C252.705 416.98 252.565 416.38 252.565 415.7C252.565 415.02 252.701 414.424 252.973 413.912C253.245 413.4 253.625 413.008 254.113 412.736C254.609 412.456 255.177 412.316 255.817 412.316C256.441 412.316 256.993 412.452 257.473 412.724C257.953 412.996 258.321 413.372 258.577 413.852C258.841 414.324 258.973 414.86 258.973 415.46ZM257.845 415.232C257.845 414.816 257.753 414.46 257.569 414.164C257.385 413.86 257.133 413.632 256.813 413.48C256.501 413.32 256.153 413.24 255.769 413.24C255.217 413.24 254.745 413.416 254.353 413.768C253.969 414.12 253.749 414.608 253.693 415.232H257.845ZM76.2999 430.304C77.0999 430.304 77.7479 430.548 78.2439 431.036C78.7399 431.516 78.9879 432.212 78.9879 433.124V437H77.9079V433.28C77.9079 432.624 77.7439 432.124 77.4159 431.78C77.0879 431.428 76.6399 431.252 76.0719 431.252C75.4959 431.252 75.0359 431.432 74.6919 431.792C74.3559 432.152 74.1879 432.676 74.1879 433.364V437H73.0959V430.424H74.1879V431.36C74.4039 431.024 74.6959 430.764 75.0639 430.58C75.4399 430.396 75.8519 430.304 76.2999 430.304ZM83.6397 437.108C83.0237 437.108 82.4637 436.968 81.9597 436.688C81.4637 436.408 81.0717 436.012 80.7837 435.5C80.5037 434.98 80.3637 434.38 80.3637 433.7C80.3637 433.028 80.5077 432.436 80.7957 431.924C81.0917 431.404 81.4917 431.008 81.9957 430.736C82.4997 430.456 83.0637 430.316 83.6877 430.316C84.3117 430.316 84.8757 430.456 85.3797 430.736C85.8837 431.008 86.2797 431.4 86.5677 431.912C86.8637 432.424 87.0117 433.02 87.0117 433.7C87.0117 434.38 86.8597 434.98 86.5557 435.5C86.2597 436.012 85.8557 436.408 85.3437 436.688C84.8317 436.968 84.2637 437.108 83.6397 437.108ZM83.6397 436.148C84.0317 436.148 84.3997 436.056 84.7437 435.872C85.0877 435.688 85.3637 435.412 85.5717 435.044C85.7877 434.676 85.8957 434.228 85.8957 433.7C85.8957 433.172 85.7917 432.724 85.5837 432.356C85.3757 431.988 85.1037 431.716 84.7677 431.54C84.4317 431.356 84.0677 431.264 83.6757 431.264C83.2757 431.264 82.9077 431.356 82.5717 431.54C82.2437 431.716 81.9797 431.988 81.7797 432.356C81.5797 432.724 81.4797 433.172 81.4797 433.7C81.4797 434.236 81.5757 434.688 81.7677 435.056C81.9677 435.424 82.2317 435.7 82.5597 435.884C82.8877 436.06 83.2477 436.148 83.6397 436.148ZM93.9747 437.108C93.4707 437.108 93.0187 437.024 92.6187 436.856C92.2187 436.68 91.9027 436.44 91.6707 436.136C91.4387 435.824 91.3107 435.468 91.2867 435.068H92.4147C92.4467 435.396 92.5987 435.664 92.8707 435.872C93.1507 436.08 93.5147 436.184 93.9627 436.184C94.3787 436.184 94.7067 436.092 94.9467 435.908C95.1867 435.724 95.3067 435.492 95.3067 435.212C95.3067 434.924 95.1787 434.712 94.9227 434.576C94.6667 434.432 94.2707 434.292 93.7347 434.156C93.2467 434.028 92.8467 433.9 92.5347 433.772C92.2307 433.636 91.9667 433.44 91.7427 433.184C91.5267 432.92 91.4187 432.576 91.4187 432.152C91.4187 431.816 91.5187 431.508 91.7187 431.228C91.9187 430.948 92.2027 430.728 92.5707 430.568C92.9387 430.4 93.3587 430.316 93.8307 430.316C94.5587 430.316 95.1467 430.5 95.5947 430.868C96.0427 431.236 96.2827 431.74 96.3147 432.38H95.2227C95.1987 432.036 95.0587 431.76 94.8027 431.552C94.5547 431.344 94.2187 431.24 93.7947 431.24C93.4027 431.24 93.0907 431.324 92.8587 431.492C92.6267 431.66 92.5107 431.88 92.5107 432.152C92.5107 432.368 92.5787 432.548 92.7147 432.692C92.8587 432.828 93.0347 432.94 93.2427 433.028C93.4587 433.108 93.7547 433.2 94.1307 433.304C94.6027 433.432 94.9867 433.56 95.2827 433.688C95.5787 433.808 95.8307 433.992 96.0387 434.24C96.2547 434.488 96.3667 434.812 96.3747 435.212C96.3747 435.572 96.2747 435.896 96.0747 436.184C95.8747 436.472 95.5907 436.7 95.2227 436.868C94.8627 437.028 94.4467 437.108 93.9747 437.108ZM101.18 430.304C101.676 430.304 102.124 430.412 102.524 430.628C102.924 430.836 103.236 431.152 103.46 431.576C103.692 432 103.808 432.516 103.808 433.124V437H102.728V433.28C102.728 432.624 102.564 432.124 102.236 431.78C101.908 431.428 101.46 431.252 100.892 431.252C100.316 431.252 99.8562 431.432 99.5122 431.792C99.1762 432.152 99.0082 432.676 99.0082 433.364V437H97.9162V428.12H99.0082V431.36C99.2242 431.024 99.5202 430.764 99.8962 430.58C100.28 430.396 100.708 430.304 101.18 430.304ZM105.184 433.688C105.184 433.016 105.32 432.428 105.592 431.924C105.864 431.412 106.236 431.016 106.708 430.736C107.188 430.456 107.72 430.316 108.304 430.316C108.88 430.316 109.38 430.44 109.804 430.688C110.228 430.936 110.544 431.248 110.752 431.624V430.424H111.856V437H110.752V435.776C110.536 436.16 110.212 436.48 109.78 436.736C109.356 436.984 108.86 437.108 108.292 437.108C107.708 437.108 107.18 436.964 106.708 436.676C106.236 436.388 105.864 435.984 105.592 435.464C105.32 434.944 105.184 434.352 105.184 433.688ZM110.752 433.7C110.752 433.204 110.652 432.772 110.452 432.404C110.252 432.036 109.98 431.756 109.636 431.564C109.3 431.364 108.928 431.264 108.52 431.264C108.112 431.264 107.74 431.36 107.404 431.552C107.068 431.744 106.8 432.024 106.6 432.392C106.4 432.76 106.3 433.192 106.3 433.688C106.3 434.192 106.4 434.632 106.6 435.008C106.8 435.376 107.068 435.66 107.404 435.86C107.74 436.052 108.112 436.148 108.52 436.148C108.928 436.148 109.3 436.052 109.636 435.86C109.98 435.66 110.252 435.376 110.452 435.008C110.652 434.632 110.752 434.196 110.752 433.7ZM114.793 431.636C115.009 431.26 115.329 430.948 115.753 430.7C116.185 430.444 116.685 430.316 117.253 430.316C117.837 430.316 118.365 430.456 118.837 430.736C119.317 431.016 119.693 431.412 119.965 431.924C120.237 432.428 120.373 433.016 120.373 433.688C120.373 434.352 120.237 434.944 119.965 435.464C119.693 435.984 119.317 436.388 118.837 436.676C118.365 436.964 117.837 437.108 117.253 437.108C116.693 437.108 116.197 436.984 115.765 436.736C115.341 436.48 115.017 436.164 114.793 435.788V440.12H113.701V430.424H114.793V431.636ZM119.257 433.688C119.257 433.192 119.157 432.76 118.957 432.392C118.757 432.024 118.485 431.744 118.141 431.552C117.805 431.36 117.433 431.264 117.025 431.264C116.625 431.264 116.253 431.364 115.909 431.564C115.573 431.756 115.301 432.04 115.093 432.416C114.893 432.784 114.793 433.212 114.793 433.7C114.793 434.196 114.893 434.632 115.093 435.008C115.301 435.376 115.573 435.66 115.909 435.86C116.253 436.052 116.625 436.148 117.025 436.148C117.433 436.148 117.805 436.052 118.141 435.86C118.485 435.66 118.757 435.376 118.957 435.008C119.157 434.632 119.257 434.192 119.257 433.688ZM127.811 433.46C127.811 433.668 127.799 433.888 127.775 434.12H122.519C122.559 434.768 122.779 435.276 123.179 435.644C123.587 436.004 124.079 436.184 124.655 436.184C125.127 436.184 125.519 436.076 125.831 435.86C126.151 435.636 126.375 435.34 126.503 434.972H127.679C127.503 435.604 127.151 436.12 126.623 436.52C126.095 436.912 125.439 437.108 124.655 437.108C124.031 437.108 123.471 436.968 122.975 436.688C122.487 436.408 122.103 436.012 121.823 435.5C121.543 434.98 121.403 434.38 121.403 433.7C121.403 433.02 121.539 432.424 121.811 431.912C122.083 431.4 122.463 431.008 122.951 430.736C123.447 430.456 124.015 430.316 124.655 430.316C125.279 430.316 125.831 430.452 126.311 430.724C126.791 430.996 127.159 431.372 127.415 431.852C127.679 432.324 127.811 432.86 127.811 433.46ZM126.683 433.232C126.683 432.816 126.591 432.46 126.407 432.164C126.223 431.86 125.971 431.632 125.651 431.48C125.339 431.32 124.991 431.24 124.607 431.24C124.055 431.24 123.583 431.416 123.191 431.768C122.807 432.12 122.587 432.608 122.531 433.232H126.683ZM129.6 437.072C129.392 437.072 129.216 437 129.072 436.856C128.928 436.712 128.856 436.536 128.856 436.328C128.856 436.12 128.928 435.944 129.072 435.8C129.216 435.656 129.392 435.584 129.6 435.584C129.8 435.584 129.968 435.656 130.104 435.8C130.248 435.944 130.32 436.12 130.32 436.328C130.32 436.536 130.248 436.712 130.104 436.856C129.968 437 129.8 437.072 129.6 437.072ZM136.063 428.636V437H134.971V428.636H136.063ZM149.883 430.424L147.831 437H146.703L145.119 431.78L143.535 437H142.407L140.343 430.424H141.459L142.971 435.944L144.603 430.424H145.719L147.315 435.956L148.803 430.424H149.883ZM150.559 433.688C150.559 433.016 150.695 432.428 150.967 431.924C151.239 431.412 151.611 431.016 152.083 430.736C152.563 430.456 153.095 430.316 153.679 430.316C154.255 430.316 154.755 430.44 155.179 430.688C155.603 430.936 155.919 431.248 156.127 431.624V430.424H157.231V437H156.127V435.776C155.911 436.16 155.587 436.48 155.155 436.736C154.731 436.984 154.235 437.108 153.667 437.108C153.083 437.108 152.555 436.964 152.083 436.676C151.611 436.388 151.239 435.984 150.967 435.464C150.695 434.944 150.559 434.352 150.559 433.688ZM156.127 433.7C156.127 433.204 156.027 432.772 155.827 432.404C155.627 432.036 155.355 431.756 155.011 431.564C154.675 431.364 154.303 431.264 153.895 431.264C153.487 431.264 153.115 431.36 152.779 431.552C152.443 431.744 152.175 432.024 151.975 432.392C151.775 432.76 151.675 433.192 151.675 433.688C151.675 434.192 151.775 434.632 151.975 435.008C152.175 435.376 152.443 435.66 152.779 435.86C153.115 436.052 153.487 436.148 153.895 436.148C154.303 436.148 154.675 436.052 155.011 435.86C155.355 435.66 155.627 435.376 155.827 435.008C156.027 434.632 156.127 434.196 156.127 433.7ZM162.28 430.304C163.08 430.304 163.728 430.548 164.224 431.036C164.72 431.516 164.968 432.212 164.968 433.124V437H163.888V433.28C163.888 432.624 163.724 432.124 163.396 431.78C163.068 431.428 162.62 431.252 162.052 431.252C161.476 431.252 161.016 431.432 160.672 431.792C160.336 432.152 160.168 432.676 160.168 433.364V437H159.076V430.424H160.168V431.36C160.384 431.024 160.676 430.764 161.044 430.58C161.42 430.396 161.832 430.304 162.28 430.304ZM168.084 431.324V435.2C168.084 435.52 168.152 435.748 168.288 435.884C168.424 436.012 168.66 436.076 168.996 436.076H169.8V437H168.816C168.208 437 167.752 436.86 167.448 436.58C167.144 436.3 166.992 435.84 166.992 435.2V431.324H166.14V430.424H166.992V428.768H168.084V430.424H169.8V431.324H168.084ZM175.654 431.324V435.2C175.654 435.52 175.722 435.748 175.858 435.884C175.994 436.012 176.23 436.076 176.566 436.076H177.37V437H176.386C175.778 437 175.322 436.86 175.018 436.58C174.714 436.3 174.562 435.84 174.562 435.2V431.324H173.71V430.424H174.562V428.768H175.654V430.424H177.37V431.324H175.654ZM181.562 437.108C180.946 437.108 180.386 436.968 179.882 436.688C179.386 436.408 178.994 436.012 178.706 435.5C178.426 434.98 178.286 434.38 178.286 433.7C178.286 433.028 178.43 432.436 178.718 431.924C179.014 431.404 179.414 431.008 179.918 430.736C180.422 430.456 180.986 430.316 181.61 430.316C182.234 430.316 182.798 430.456 183.302 430.736C183.806 431.008 184.202 431.4 184.49 431.912C184.786 432.424 184.934 433.02 184.934 433.7C184.934 434.38 184.782 434.98 184.478 435.5C184.182 436.012 183.778 436.408 183.266 436.688C182.754 436.968 182.186 437.108 181.562 437.108ZM181.562 436.148C181.954 436.148 182.322 436.056 182.666 435.872C183.01 435.688 183.286 435.412 183.494 435.044C183.71 434.676 183.818 434.228 183.818 433.7C183.818 433.172 183.714 432.724 183.506 432.356C183.298 431.988 183.026 431.716 182.69 431.54C182.354 431.356 181.99 431.264 181.598 431.264C181.198 431.264 180.83 431.356 180.494 431.54C180.166 431.716 179.902 431.988 179.702 432.356C179.502 432.724 179.402 433.172 179.402 433.7C179.402 434.236 179.498 434.688 179.69 435.056C179.89 435.424 180.154 435.7 180.482 435.884C180.81 436.06 181.17 436.148 181.562 436.148ZM189.161 433.688C189.161 433.016 189.297 432.428 189.569 431.924C189.841 431.412 190.213 431.016 190.685 430.736C191.165 430.456 191.697 430.316 192.281 430.316C192.857 430.316 193.357 430.44 193.781 430.688C194.205 430.936 194.521 431.248 194.729 431.624V430.424H195.833V437H194.729V435.776C194.513 436.16 194.189 436.48 193.757 436.736C193.333 436.984 192.837 437.108 192.269 437.108C191.685 437.108 191.157 436.964 190.685 436.676C190.213 436.388 189.841 435.984 189.569 435.464C189.297 434.944 189.161 434.352 189.161 433.688ZM194.729 433.7C194.729 433.204 194.629 432.772 194.429 432.404C194.229 432.036 193.957 431.756 193.613 431.564C193.277 431.364 192.905 431.264 192.497 431.264C192.089 431.264 191.717 431.36 191.381 431.552C191.045 431.744 190.777 432.024 190.577 432.392C190.377 432.76 190.277 433.192 190.277 433.688C190.277 434.192 190.377 434.632 190.577 435.008C190.777 435.376 191.045 435.66 191.381 435.86C191.717 436.052 192.089 436.148 192.497 436.148C192.905 436.148 193.277 436.052 193.613 435.86C193.957 435.66 194.229 435.376 194.429 435.008C194.629 434.632 194.729 434.196 194.729 433.7ZM197.27 433.688C197.27 433.016 197.406 432.428 197.678 431.924C197.95 431.412 198.322 431.016 198.794 430.736C199.274 430.456 199.81 430.316 200.402 430.316C200.914 430.316 201.39 430.436 201.83 430.676C202.27 430.908 202.606 431.216 202.838 431.6V428.12H203.942V437H202.838V435.764C202.622 436.156 202.302 436.48 201.878 436.736C201.454 436.984 200.958 437.108 200.39 437.108C199.806 437.108 199.274 436.964 198.794 436.676C198.322 436.388 197.95 435.984 197.678 435.464C197.406 434.944 197.27 434.352 197.27 433.688ZM202.838 433.7C202.838 433.204 202.738 432.772 202.538 432.404C202.338 432.036 202.066 431.756 201.722 431.564C201.386 431.364 201.014 431.264 200.606 431.264C200.198 431.264 199.826 431.36 199.49 431.552C199.154 431.744 198.886 432.024 198.686 432.392C198.486 432.76 198.386 433.192 198.386 433.688C198.386 434.192 198.486 434.632 198.686 435.008C198.886 435.376 199.154 435.66 199.49 435.86C199.826 436.052 200.198 436.148 200.606 436.148C201.014 436.148 201.386 436.052 201.722 435.86C202.066 435.66 202.338 435.376 202.538 435.008C202.738 434.632 202.838 434.196 202.838 433.7ZM205.379 433.688C205.379 433.016 205.515 432.428 205.787 431.924C206.059 431.412 206.431 431.016 206.903 430.736C207.383 430.456 207.919 430.316 208.511 430.316C209.023 430.316 209.499 430.436 209.939 430.676C210.379 430.908 210.715 431.216 210.947 431.6V428.12H212.051V437H210.947V435.764C210.731 436.156 210.411 436.48 209.987 436.736C209.563 436.984 209.067 437.108 208.499 437.108C207.915 437.108 207.383 436.964 206.903 436.676C206.431 436.388 206.059 435.984 205.787 435.464C205.515 434.944 205.379 434.352 205.379 433.688ZM210.947 433.7C210.947 433.204 210.847 432.772 210.647 432.404C210.447 432.036 210.175 431.756 209.831 431.564C209.495 431.364 209.123 431.264 208.715 431.264C208.307 431.264 207.935 431.36 207.599 431.552C207.263 431.744 206.995 432.024 206.795 432.392C206.595 432.76 206.495 433.192 206.495 433.688C206.495 434.192 206.595 434.632 206.795 435.008C206.995 435.376 207.263 435.66 207.599 435.86C207.935 436.052 208.307 436.148 208.715 436.148C209.123 436.148 209.495 436.052 209.831 435.86C210.175 435.66 210.447 435.376 210.647 435.008C210.847 434.632 210.947 434.196 210.947 433.7ZM218.188 428.12V437H217.096V428.12H218.188ZM226.049 433.46C226.049 433.668 226.037 433.888 226.013 434.12H220.757C220.797 434.768 221.017 435.276 221.417 435.644C221.825 436.004 222.317 436.184 222.893 436.184C223.365 436.184 223.757 436.076 224.069 435.86C224.389 435.636 224.613 435.34 224.741 434.972H225.917C225.741 435.604 225.389 436.12 224.861 436.52C224.333 436.912 223.677 437.108 222.893 437.108C222.269 437.108 221.709 436.968 221.213 436.688C220.725 436.408 220.341 436.012 220.061 435.5C219.781 434.98 219.641 434.38 219.641 433.7C219.641 433.02 219.777 432.424 220.049 431.912C220.321 431.4 220.701 431.008 221.189 430.736C221.685 430.456 222.253 430.316 222.893 430.316C223.517 430.316 224.069 430.452 224.549 430.724C225.029 430.996 225.397 431.372 225.653 431.852C225.917 432.324 226.049 432.86 226.049 433.46ZM224.921 433.232C224.921 432.816 224.829 432.46 224.645 432.164C224.461 431.86 224.209 431.632 223.889 431.48C223.577 431.32 223.229 431.24 222.845 431.24C222.293 431.24 221.821 431.416 221.429 431.768C221.045 432.12 220.825 432.608 220.769 433.232H224.921ZM227.082 433.688C227.082 433.016 227.218 432.428 227.49 431.924C227.762 431.412 228.134 431.016 228.606 430.736C229.086 430.456 229.618 430.316 230.202 430.316C230.778 430.316 231.278 430.44 231.702 430.688C232.126 430.936 232.442 431.248 232.65 431.624V430.424H233.754V437H232.65V435.776C232.434 436.16 232.11 436.48 231.678 436.736C231.254 436.984 230.758 437.108 230.19 437.108C229.606 437.108 229.078 436.964 228.606 436.676C228.134 436.388 227.762 435.984 227.49 435.464C227.218 434.944 227.082 434.352 227.082 433.688ZM232.65 433.7C232.65 433.204 232.55 432.772 232.35 432.404C232.15 432.036 231.878 431.756 231.534 431.564C231.198 431.364 230.826 431.264 230.418 431.264C230.01 431.264 229.638 431.36 229.302 431.552C228.966 431.744 228.698 432.024 228.498 432.392C228.298 432.76 228.198 433.192 228.198 433.688C228.198 434.192 228.298 434.632 228.498 435.008C228.698 435.376 228.966 435.66 229.302 435.86C229.638 436.052 230.01 436.148 230.418 436.148C230.826 436.148 231.198 436.052 231.534 435.86C231.878 435.66 232.15 435.376 232.35 435.008C232.55 434.632 232.65 434.196 232.65 433.7ZM236.692 431.492C236.884 431.116 237.156 430.824 237.508 430.616C237.868 430.408 238.304 430.304 238.816 430.304V431.432H238.528C237.304 431.432 236.692 432.096 236.692 433.424V437H235.6V430.424H236.692V431.492ZM243.28 430.304C244.08 430.304 244.728 430.548 245.224 431.036C245.72 431.516 245.968 432.212 245.968 433.124V437H244.888V433.28C244.888 432.624 244.724 432.124 244.396 431.78C244.068 431.428 243.62 431.252 243.052 431.252C242.476 431.252 242.016 431.432 241.672 431.792C241.336 432.152 241.168 432.676 241.168 433.364V437H240.076V430.424H241.168V431.36C241.384 431.024 241.676 430.764 242.044 430.58C242.42 430.396 242.832 430.304 243.28 430.304ZM98.7285 448.304C99.2405 448.304 99.6965 448.412 100.096 448.628C100.496 448.836 100.812 449.152 101.044 449.576C101.276 450 101.392 450.516 101.392 451.124V455H100.312V451.28C100.312 450.624 100.148 450.124 99.8205 449.78C99.5005 449.428 99.0645 449.252 98.5125 449.252C97.9445 449.252 97.4925 449.436 97.1565 449.804C96.8205 450.164 96.6525 450.688 96.6525 451.376V455H95.5725V451.28C95.5725 450.624 95.4085 450.124 95.0805 449.78C94.7605 449.428 94.3245 449.252 93.7725 449.252C93.2045 449.252 92.7525 449.436 92.4165 449.804C92.0805 450.164 91.9125 450.688 91.9125 451.376V455H90.8205V448.424H91.9125V449.372C92.1285 449.028 92.4165 448.764 92.7765 448.58C93.1445 448.396 93.5485 448.304 93.9885 448.304C94.5405 448.304 95.0285 448.428 95.4525 448.676C95.8765 448.924 96.1925 449.288 96.4005 449.768C96.5845 449.304 96.8885 448.944 97.3125 448.688C97.7365 448.432 98.2085 448.304 98.7285 448.304ZM109.016 448.424V455H107.924V454.028C107.716 454.364 107.424 454.628 107.048 454.82C106.68 455.004 106.272 455.096 105.824 455.096C105.312 455.096 104.852 454.992 104.444 454.784C104.036 454.568 103.712 454.248 103.472 453.824C103.24 453.4 103.124 452.884 103.124 452.276V448.424H104.204V452.132C104.204 452.78 104.368 453.28 104.696 453.632C105.024 453.976 105.472 454.148 106.04 454.148C106.624 454.148 107.084 453.968 107.42 453.608C107.756 453.248 107.924 452.724 107.924 452.036V448.424H109.016ZM113.188 455.108C112.684 455.108 112.232 455.024 111.832 454.856C111.432 454.68 111.116 454.44 110.884 454.136C110.652 453.824 110.524 453.468 110.5 453.068H111.628C111.66 453.396 111.812 453.664 112.084 453.872C112.364 454.08 112.728 454.184 113.176 454.184C113.592 454.184 113.92 454.092 114.16 453.908C114.4 453.724 114.52 453.492 114.52 453.212C114.52 452.924 114.392 452.712 114.136 452.576C113.88 452.432 113.484 452.292 112.948 452.156C112.46 452.028 112.06 451.9 111.748 451.772C111.444 451.636 111.18 451.44 110.956 451.184C110.74 450.92 110.632 450.576 110.632 450.152C110.632 449.816 110.732 449.508 110.932 449.228C111.132 448.948 111.416 448.728 111.784 448.568C112.152 448.4 112.572 448.316 113.044 448.316C113.772 448.316 114.36 448.5 114.808 448.868C115.256 449.236 115.496 449.74 115.528 450.38H114.436C114.412 450.036 114.272 449.76 114.016 449.552C113.768 449.344 113.432 449.24 113.008 449.24C112.616 449.24 112.304 449.324 112.072 449.492C111.84 449.66 111.724 449.88 111.724 450.152C111.724 450.368 111.792 450.548 111.928 450.692C112.072 450.828 112.248 450.94 112.456 451.028C112.672 451.108 112.968 451.2 113.344 451.304C113.816 451.432 114.2 451.56 114.496 451.688C114.792 451.808 115.044 451.992 115.252 452.24C115.468 452.488 115.58 452.812 115.588 453.212C115.588 453.572 115.488 453.896 115.288 454.184C115.088 454.472 114.804 454.7 114.436 454.868C114.076 455.028 113.66 455.108 113.188 455.108ZM116.721 451.7C116.721 451.02 116.857 450.428 117.129 449.924C117.401 449.412 117.777 449.016 118.257 448.736C118.745 448.456 119.301 448.316 119.925 448.316C120.733 448.316 121.397 448.512 121.917 448.904C122.445 449.296 122.793 449.84 122.961 450.536H121.785C121.673 450.136 121.453 449.82 121.125 449.588C120.805 449.356 120.405 449.24 119.925 449.24C119.301 449.24 118.797 449.456 118.413 449.888C118.029 450.312 117.837 450.916 117.837 451.7C117.837 452.492 118.029 453.104 118.413 453.536C118.797 453.968 119.301 454.184 119.925 454.184C120.405 454.184 120.805 454.072 121.125 453.848C121.445 453.624 121.665 453.304 121.785 452.888H122.961C122.785 453.56 122.433 454.1 121.905 454.508C121.377 454.908 120.717 455.108 119.925 455.108C119.301 455.108 118.745 454.968 118.257 454.688C117.777 454.408 117.401 454.012 117.129 453.5C116.857 452.988 116.721 452.388 116.721 451.7ZM125.51 446.12V455H124.418V446.12H125.51ZM133.371 451.46C133.371 451.668 133.359 451.888 133.335 452.12H128.079C128.119 452.768 128.339 453.276 128.739 453.644C129.147 454.004 129.639 454.184 130.215 454.184C130.687 454.184 131.079 454.076 131.391 453.86C131.711 453.636 131.935 453.34 132.063 452.972H133.239C133.063 453.604 132.711 454.12 132.183 454.52C131.655 454.912 130.999 455.108 130.215 455.108C129.591 455.108 129.031 454.968 128.535 454.688C128.047 454.408 127.663 454.012 127.383 453.5C127.103 452.98 126.963 452.38 126.963 451.7C126.963 451.02 127.099 450.424 127.371 449.912C127.643 449.4 128.023 449.008 128.511 448.736C129.007 448.456 129.575 448.316 130.215 448.316C130.839 448.316 131.391 448.452 131.871 448.724C132.351 448.996 132.719 449.372 132.975 449.852C133.239 450.324 133.371 450.86 133.371 451.46ZM132.243 451.232C132.243 450.816 132.151 450.46 131.967 450.164C131.783 449.86 131.531 449.632 131.211 449.48C130.899 449.32 130.551 449.24 130.167 449.24C129.615 449.24 129.143 449.416 128.751 449.768C128.367 450.12 128.147 450.608 128.091 451.232H132.243ZM138.576 447.356C138.368 447.356 138.192 447.284 138.048 447.14C137.904 446.996 137.832 446.82 137.832 446.612C137.832 446.404 137.904 446.228 138.048 446.084C138.192 445.94 138.368 445.868 138.576 445.868C138.776 445.868 138.944 445.94 139.08 446.084C139.224 446.228 139.296 446.404 139.296 446.612C139.296 446.82 139.224 446.996 139.08 447.14C138.944 447.284 138.776 447.356 138.576 447.356ZM139.104 448.424V455H138.012V448.424H139.104ZM144.169 448.304C144.969 448.304 145.617 448.548 146.113 449.036C146.609 449.516 146.857 450.212 146.857 451.124V455H145.777V451.28C145.777 450.624 145.613 450.124 145.285 449.78C144.957 449.428 144.509 449.252 143.941 449.252C143.365 449.252 142.905 449.432 142.561 449.792C142.225 450.152 142.057 450.676 142.057 451.364V455H140.965V448.424H142.057V449.36C142.273 449.024 142.565 448.764 142.933 448.58C143.309 448.396 143.721 448.304 144.169 448.304ZM153.172 449.324V453.2C153.172 453.52 153.24 453.748 153.376 453.884C153.512 454.012 153.748 454.076 154.084 454.076H154.888V455H153.904C153.296 455 152.84 454.86 152.536 454.58C152.232 454.3 152.08 453.84 152.08 453.2V449.324H151.228V448.424H152.08V446.768H153.172V448.424H154.888V449.324H153.172ZM159.475 448.304C159.971 448.304 160.419 448.412 160.819 448.628C161.219 448.836 161.531 449.152 161.755 449.576C161.987 450 162.103 450.516 162.103 451.124V455H161.023V451.28C161.023 450.624 160.859 450.124 160.531 449.78C160.203 449.428 159.755 449.252 159.187 449.252C158.611 449.252 158.151 449.432 157.807 449.792C157.471 450.152 157.303 450.676 157.303 451.364V455H156.211V446.12H157.303V449.36C157.519 449.024 157.815 448.764 158.191 448.58C158.575 448.396 159.003 448.304 159.475 448.304ZM169.887 451.46C169.887 451.668 169.875 451.888 169.851 452.12H164.595C164.635 452.768 164.855 453.276 165.255 453.644C165.663 454.004 166.155 454.184 166.731 454.184C167.203 454.184 167.595 454.076 167.907 453.86C168.227 453.636 168.451 453.34 168.579 452.972H169.755C169.579 453.604 169.227 454.12 168.699 454.52C168.171 454.912 167.515 455.108 166.731 455.108C166.107 455.108 165.547 454.968 165.051 454.688C164.563 454.408 164.179 454.012 163.899 453.5C163.619 452.98 163.479 452.38 163.479 451.7C163.479 451.02 163.615 450.424 163.887 449.912C164.159 449.4 164.539 449.008 165.027 448.736C165.523 448.456 166.091 448.316 166.731 448.316C167.355 448.316 167.907 448.452 168.387 448.724C168.867 448.996 169.235 449.372 169.491 449.852C169.755 450.324 169.887 450.86 169.887 451.46ZM168.759 451.232C168.759 450.816 168.667 450.46 168.483 450.164C168.299 449.86 168.047 449.632 167.727 449.48C167.415 449.32 167.067 449.24 166.683 449.24C166.131 449.24 165.659 449.416 165.267 449.768C164.883 450.12 164.663 450.608 164.607 451.232H168.759ZM175.62 449.492C175.812 449.116 176.084 448.824 176.436 448.616C176.796 448.408 177.232 448.304 177.744 448.304V449.432H177.456C176.232 449.432 175.62 450.096 175.62 451.424V455H174.528V448.424H175.62V449.492ZM179.568 447.356C179.36 447.356 179.184 447.284 179.04 447.14C178.896 446.996 178.824 446.82 178.824 446.612C178.824 446.404 178.896 446.228 179.04 446.084C179.184 445.94 179.36 445.868 179.568 445.868C179.768 445.868 179.936 445.94 180.072 446.084C180.216 446.228 180.288 446.404 180.288 446.612C180.288 446.82 180.216 446.996 180.072 447.14C179.936 447.284 179.768 447.356 179.568 447.356ZM180.096 448.424V455H179.004V448.424H180.096ZM184.669 448.316C185.237 448.316 185.733 448.44 186.157 448.688C186.589 448.936 186.909 449.248 187.117 449.624V448.424H188.221V455.144C188.221 455.744 188.093 456.276 187.837 456.74C187.581 457.212 187.213 457.58 186.733 457.844C186.261 458.108 185.709 458.24 185.077 458.24C184.213 458.24 183.493 458.036 182.917 457.628C182.341 457.22 182.001 456.664 181.897 455.96H182.977C183.097 456.36 183.345 456.68 183.721 456.92C184.097 457.168 184.549 457.292 185.077 457.292C185.677 457.292 186.165 457.104 186.541 456.728C186.925 456.352 187.117 455.824 187.117 455.144V453.764C186.901 454.148 186.581 454.468 186.157 454.724C185.733 454.98 185.237 455.108 184.669 455.108C184.085 455.108 183.553 454.964 183.073 454.676C182.601 454.388 182.229 453.984 181.957 453.464C181.685 452.944 181.549 452.352 181.549 451.688C181.549 451.016 181.685 450.428 181.957 449.924C182.229 449.412 182.601 449.016 183.073 448.736C183.553 448.456 184.085 448.316 184.669 448.316ZM187.117 451.7C187.117 451.204 187.017 450.772 186.817 450.404C186.617 450.036 186.345 449.756 186.001 449.564C185.665 449.364 185.293 449.264 184.885 449.264C184.477 449.264 184.105 449.36 183.769 449.552C183.433 449.744 183.165 450.024 182.965 450.392C182.765 450.76 182.665 451.192 182.665 451.688C182.665 452.192 182.765 452.632 182.965 453.008C183.165 453.376 183.433 453.66 183.769 453.86C184.105 454.052 184.477 454.148 184.885 454.148C185.293 454.148 185.665 454.052 186.001 453.86C186.345 453.66 186.617 453.376 186.817 453.008C187.017 452.632 187.117 452.196 187.117 451.7ZM193.331 448.304C193.827 448.304 194.275 448.412 194.675 448.628C195.075 448.836 195.387 449.152 195.611 449.576C195.843 450 195.959 450.516 195.959 451.124V455H194.879V451.28C194.879 450.624 194.715 450.124 194.387 449.78C194.059 449.428 193.611 449.252 193.043 449.252C192.467 449.252 192.007 449.432 191.663 449.792C191.327 450.152 191.159 450.676 191.159 451.364V455H190.067V446.12H191.159V449.36C191.375 449.024 191.671 448.764 192.047 448.58C192.431 448.396 192.859 448.304 193.331 448.304ZM199.074 449.324V453.2C199.074 453.52 199.142 453.748 199.278 453.884C199.414 454.012 199.65 454.076 199.986 454.076H200.79V455H199.806C199.198 455 198.742 454.86 198.438 454.58C198.134 454.3 197.982 453.84 197.982 453.2V449.324H197.13V448.424H197.982V446.768H199.074V448.424H200.79V449.324H199.074ZM214.073 448.424L212.021 455H210.893L209.309 449.78L207.725 455H206.597L204.533 448.424H205.649L207.161 453.944L208.793 448.424H209.909L211.505 453.956L212.993 448.424H214.073ZM214.748 451.688C214.748 451.016 214.884 450.428 215.156 449.924C215.428 449.412 215.8 449.016 216.272 448.736C216.752 448.456 217.284 448.316 217.868 448.316C218.444 448.316 218.944 448.44 219.368 448.688C219.792 448.936 220.108 449.248 220.316 449.624V448.424H221.42V455H220.316V453.776C220.1 454.16 219.776 454.48 219.344 454.736C218.92 454.984 218.424 455.108 217.856 455.108C217.272 455.108 216.744 454.964 216.272 454.676C215.8 454.388 215.428 453.984 215.156 453.464C214.884 452.944 214.748 452.352 214.748 451.688ZM220.316 451.7C220.316 451.204 220.216 450.772 220.016 450.404C219.816 450.036 219.544 449.756 219.2 449.564C218.864 449.364 218.492 449.264 218.084 449.264C217.676 449.264 217.304 449.36 216.968 449.552C216.632 449.744 216.364 450.024 216.164 450.392C215.964 450.76 215.864 451.192 215.864 451.688C215.864 452.192 215.964 452.632 216.164 453.008C216.364 453.376 216.632 453.66 216.968 453.86C217.304 454.052 217.676 454.148 218.084 454.148C218.492 454.148 218.864 454.052 219.2 453.86C219.544 453.66 219.816 453.376 220.016 453.008C220.216 452.632 220.316 452.196 220.316 451.7ZM228.93 448.424L224.97 458.096H223.842L225.138 454.928L222.486 448.424H223.698L225.762 453.752L227.802 448.424H228.93Z" fill="white"/>
<line x1="135.5" y1="385.5" x2="184.5" y2="385.5" stroke="#F7F8F8" stroke-linecap="round" stroke-linejoin="round"/>
<path d="M156.569 342.229C151.908 342.237 147.259 341.743 142.704 340.754C134.741 339.113 127.24 335.721 120.742 330.823C114.243 325.925 108.909 319.642 105.123 312.427C102.119 305.678 99.8871 298.609 98.4706 291.356L98.1438 289.975C93.4754 270.029 87.5933 248.935 76.7393 229.879C74.9886 226.812 73.0746 223.745 71.2306 220.795C66.7693 214.116 62.9921 207.002 59.9564 199.561C55.288 186.802 56.1517 174.113 62.524 165.755C63.3635 164.457 64.4556 163.342 65.7351 162.477C67.0146 161.612 68.4551 161.015 69.9701 160.722C70.8933 160.61 71.8296 160.689 72.7209 160.955C73.6123 161.221 74.4397 161.667 75.152 162.267C75.7077 162.711 76.1633 163.269 76.4892 163.902C76.815 164.535 77.0036 165.231 77.0427 165.943H75.5255C75.489 165.446 75.3497 164.963 75.1166 164.524C74.8835 164.084 74.5617 163.698 74.1717 163.391C73.6175 162.929 72.9767 162.584 72.2871 162.374C71.5976 162.165 70.8732 162.097 70.1569 162.173C67.5271 162.774 65.2287 164.367 63.7378 166.621C57.6923 174.605 56.7352 186.708 61.4036 198.976C64.4136 206.363 68.1678 213.423 72.6078 220.046C74.4518 223.019 76.3658 226.086 78.1398 229.176C89.0171 248.373 94.9693 269.584 99.6377 289.647L99.9645 291.029C101.351 298.162 103.544 305.113 106.5 311.748C110.179 318.759 115.365 324.864 121.682 329.621C127.999 334.378 135.291 337.669 143.03 339.256C158.68 342.367 174.918 340.159 189.177 332.982C194.887 330.43 200.042 326.779 204.35 322.236C208.732 316.916 212.109 310.839 214.317 304.303C218.215 294.049 221.319 283.233 224.12 272.815C228.438 257.27 232.897 241.186 240.46 226.624C242.794 222.364 245.128 218.173 247.602 214.123C252.235 206.854 256.144 199.146 259.273 191.11C261.957 183.478 262.074 177.063 259.647 172.381C258.794 170.819 257.61 169.465 256.178 168.413C254.747 167.361 253.102 166.638 251.36 166.294C250.145 166.005 248.879 166.005 247.663 166.294C246.447 166.583 245.316 167.152 244.358 167.956L243.354 166.809C244.48 165.842 245.816 165.153 247.254 164.795C248.693 164.438 250.195 164.422 251.64 164.749C253.616 165.158 255.478 165.999 257.092 167.213C258.706 168.427 260.032 169.984 260.977 171.772C263.615 176.922 263.498 183.618 260.674 191.671C257.512 199.809 253.54 207.606 248.816 214.942C246.482 218.992 243.914 223.16 241.813 227.374C234.344 241.795 229.909 257.808 225.614 273.26C222.696 283.748 219.685 294.587 215.74 304.888C213.484 311.605 210.019 317.85 205.517 323.313C201.067 328.001 195.747 331.77 189.854 334.41C179.48 339.475 168.107 342.147 156.569 342.229Z" fill="#FF8A00"/>
<path d="M173.701 69.628C174.908 67.7066 175.599 65.505 175.708 63.2367C175.84 62.218 175.748 61.1827 175.437 60.2038C175.126 59.2249 174.606 58.3262 173.911 57.5712C173.328 57.0093 172.604 56.5645 172.067 55.9558C171.53 55.3471 171.273 54.715 170.83 54.1297C170.349 53.5018 169.731 52.9935 169.022 52.6444C168.314 52.2952 167.535 52.1145 166.745 52.1164C165.135 52.1164 163.431 52.8655 162.077 52.1164C161.236 51.695 160.676 50.8522 159.743 50.3839C158.864 49.9354 157.856 49.8111 156.895 50.0328C156.055 50.3264 155.169 50.4613 154.281 50.4308C153.02 50.2435 152.156 49.1197 151.036 48.4876C150.46 48.1923 149.827 48.0269 149.18 48.003C148.534 47.9791 147.89 48.0974 147.294 48.3494C146.698 48.6015 146.164 48.9813 145.73 49.4621C145.296 49.943 144.972 50.5133 144.78 51.1331C144.628 51.7243 144.628 52.3446 144.78 52.9358C145.037 54.3638 146.018 55.511 146.088 56.9391C146.158 58.3672 145.294 59.608 146.088 60.8722C146.881 62.1364 148.048 62.1832 148.608 63.3772C149.355 64.9925 148.608 67.0996 149.285 68.832C149.636 69.9323 149.822 71.5009 150.849 72.2032C152.273 73.1865 155.378 72.3671 157.082 72.2032L163.687 71.6647C166.605 71.3838 170.2 71.6647 172.837 70.2132C173.156 70.068 173.448 69.8701 173.701 69.628Z" fill="#3B2645"/>
<path d="M151.293 68.5974C151.062 68.2782 150.758 68.0184 150.407 67.8394C150.056 67.6603 149.668 67.5669 149.274 67.5669C148.881 67.5669 148.493 67.6603 148.142 67.8394C147.791 68.0184 147.487 68.2782 147.255 68.5974C145.225 70.9385 148.656 75.6208 151.293 75.9017C151.447 73.4694 151.447 71.0298 151.293 68.5974Z" fill="#86543D"/>
<path d="M184.089 107.812C183.474 111.756 182.648 115.663 181.615 119.518C181.451 120.244 181.311 120.946 181.218 121.625C181.124 122.304 181.031 122.819 180.914 123.685C180.914 123.849 180.914 124.036 180.914 124.2C180.914 124.762 180.751 125.347 180.681 125.979L177.74 153.488C159.463 158.521 140.393 153.488 140.393 153.488C140.393 153.488 140.393 153.136 140.393 152.457C140.089 149.344 139.156 139.441 138.222 128.274C138.222 128.274 138.222 128.11 138.222 128.04C138.231 127.868 138.231 127.696 138.222 127.525C137.825 122.842 137.452 117.879 137.148 113.15C136.588 104.933 136.238 97.3474 136.308 92.6418C136.308 90.9094 140.346 91.0966 143.1 90.7221C145.131 90.4411 147.209 90.2538 149.006 90.1602C150.803 90.0666 152.157 90.0197 153.067 90.0197H154.095C154.095 90.0197 154.328 87.3274 154.328 87.304L154.958 80.7021C155.265 80.7813 155.577 80.8361 155.892 80.8659C156.47 80.9745 157.055 81.0371 157.642 81.0532C158.413 81.0532 159.136 81.0532 159.813 81.0532L160.817 80.9362H161.401C162.054 80.8191 162.684 80.6786 163.268 80.5148C163.851 80.3509 164.038 80.2807 164.412 80.1636C166.117 79.6155 167.736 78.8273 169.22 77.8225L169.43 77.682L169.827 77.3777L170.107 77.167C170.107 77.4947 170.107 77.6352 170.107 77.7757C169.92 79.3208 169.71 81.2873 169.617 83.2305C169.617 84.5883 169.477 85.9228 169.43 87.0699C169.383 88.2171 169.01 89.8793 169.827 90.4645C170.118 90.6288 170.433 90.7473 170.761 90.8157C172.042 91.0186 173.339 91.1048 174.635 91.0732C175.032 91.0732 175.429 91.0732 175.826 91.0732C176.821 91.0151 177.819 91.0151 178.814 91.0732C179.509 91.0712 180.198 91.209 180.839 91.4784C181.481 91.7478 182.062 92.1434 182.548 92.6418C183.153 93.5202 183.538 94.5322 183.669 95.5916L183.949 97.5113C184.393 100.928 184.44 104.385 184.089 107.812Z" fill="#FFEDE5"/>
<path d="M170.014 77.0023C169.698 78.6777 169.016 80.2621 168.017 81.6417C167.018 83.0213 165.727 84.1617 164.236 84.981C162.745 85.8003 161.091 86.2781 159.394 86.3801C157.697 86.4821 155.999 86.2057 154.421 85.5708L154.865 80.7246C157.508 81.2361 160.23 81.1682 162.845 80.5257C165.46 79.8832 167.905 78.6813 170.014 77.0023Z" fill="#86543D"/>
<path d="M151.761 61.5752C150.407 62.9798 150.29 66.1169 150.197 69.5818C149.847 80.1169 152.998 83.3944 158.343 83.9797C163.688 84.565 169.314 82.4814 170.458 72.7423C171.041 67.8494 171.648 63.3778 169.874 61.2474C167.33 58.1103 155.869 57.2675 151.761 61.5752Z" fill="#FFEDE5"/>
<path d="M169.664 71.3144C169.664 71.3144 171.298 66.9599 173.889 69.2777C176.48 71.5954 172.909 78.1739 168.941 77.6823C168.987 77.6823 168.45 72.8128 169.664 71.3144Z" fill="#FFEDE5"/>
<path d="M172.745 71.2669C172.132 71.4589 171.583 71.8151 171.158 72.297C170.676 72.7009 170.286 73.2038 170.014 73.7719C170.014 73.9358 170.177 74.0528 170.294 73.9358C170.623 73.609 170.935 73.2652 171.228 72.9057C171.441 73.1412 171.704 73.3252 171.998 73.4441C172.231 73.4441 172.418 73.2334 172.325 73.0461C172.163 72.7982 171.948 72.5902 171.695 72.4375C172.13 72.1576 172.544 71.8445 172.932 71.501C172.939 71.4728 172.94 71.4434 172.933 71.4149C172.927 71.3865 172.915 71.3598 172.897 71.3371C172.879 71.3144 172.855 71.2962 172.829 71.284C172.803 71.2718 172.774 71.266 172.745 71.2669Z" fill="#86543D"/>
<path d="M154.795 69.3469C154.795 69.3469 153.884 69.6747 154.024 68.0593C154.164 66.4439 154.795 66.8185 154.795 66.8185C154.795 66.8185 155.425 66.8185 155.332 68.0827C155.238 69.3469 154.795 69.3469 154.795 69.3469Z" fill="#3B2645"/>
<path d="M163.968 69.3469C163.968 69.3469 163.081 69.6747 163.221 68.0593C163.361 66.4439 163.968 66.8185 163.968 66.8185C163.968 66.8185 164.598 66.8185 164.505 68.0827C164.412 69.3469 163.968 69.3469 163.968 69.3469Z" fill="#3B2645"/>
<path d="M155.775 64.4542C155.409 64.2459 154.986 64.1587 154.567 64.2049C154.148 64.2511 153.754 64.4284 153.441 64.7117C153.425 64.7437 153.418 64.7792 153.419 64.8149C153.421 64.8506 153.432 64.8853 153.45 64.9158C153.469 64.9462 153.495 64.9714 153.526 64.9889C153.557 65.0065 153.592 65.0158 153.628 65.016C153.955 65.016 154.235 64.8287 154.561 64.8053C154.904 64.789 155.246 64.8448 155.565 64.9692C155.869 65.0629 156.079 64.5946 155.775 64.4542Z" fill="#3B2645"/>
<path d="M165.345 65.2509C164.972 64.3144 163.361 64.2442 162.661 64.8061C162.627 64.8323 162.6 64.866 162.581 64.9046C162.562 64.9431 162.552 64.9855 162.552 65.0285C162.552 65.0714 162.562 65.1138 162.581 65.1524C162.6 65.1909 162.627 65.2246 162.661 65.2509C163.08 65.2859 163.502 65.2859 163.921 65.2509C164.261 65.3057 164.591 65.4082 164.902 65.5552C164.942 65.6142 165.004 65.6547 165.074 65.6679C165.144 65.6811 165.216 65.6658 165.275 65.6254C165.334 65.5851 165.375 65.523 165.388 65.4527C165.401 65.3825 165.386 65.3099 165.345 65.2509Z" fill="#3B2645"/>
<path d="M156.639 76.8854C158.608 77.1443 160.609 76.8016 162.381 75.9021C162.116 76.5268 161.723 77.0891 161.229 77.5527C160.735 78.0164 160.149 78.3712 159.51 78.5944C157.479 79.1563 156.639 76.8854 156.639 76.8854Z" fill="white"/>
<path d="M144.851 92.618C150.219 96.3872 150.709 103.715 148.095 109.568C146.321 113.477 143.03 116.217 141.093 119.916C139.074 123.503 136.73 126.896 134.09 130.053C128.301 137.427 122.792 144.099 120.668 146.628C113.362 155.384 98.0033 166.949 92.4713 170.975C91.2108 171.912 90.4639 172.427 90.4639 172.427C90.4639 172.427 85.1652 169.641 86.5658 164.49C86.5658 164.49 107.573 142.109 110.678 137.544C114.109 131.61 117.225 125.499 120.015 119.237C123.594 112.291 127.321 105.44 131.196 98.6815C132.97 95.5678 135.234 91.6581 139.132 90.9558C140.705 90.7785 142.293 91.1151 143.66 91.9157C144.073 92.121 144.471 92.3557 144.851 92.618Z" fill="#FFEDE5"/>
<path d="M86.5665 164.514C87.1414 164.47 87.7188 164.47 88.2938 164.514C88.2938 164.514 93.3356 167.324 92.472 170.976C92.472 170.976 91.9351 171.468 91.0948 172.217C90.2545 172.966 89.3441 173.855 88.2471 174.979C87.15 176.103 84.6524 179.661 83.5787 179.357C83.3284 179.264 83.1098 179.102 82.9485 178.889L80.7777 176.548C79.5639 175.19 77.5331 172.896 79.0737 171.093C77.9533 171.772 75.339 173.434 74.0552 172.638L73.5183 171.772C73.5183 171.772 77.3697 168.892 78.957 167.464C81.0982 165.664 83.7744 164.626 86.5665 164.514Z" fill="#FFEDE5"/>
<path d="M151.224 128.484C151.216 128.609 151.216 128.734 151.224 128.859C151.224 128.859 151.434 128.859 151.387 128.859L151.224 128.484Z" fill="#D6BED3"/>
<path d="M159.883 204.36C157.736 221.614 155.215 236.621 155.215 236.621C155.565 240.788 155.728 245.306 155.728 249.942C155.728 259.025 155.121 268.671 154.351 277.169C153.371 288.008 152.017 297.233 151.433 301.868V302.453C152.297 333.192 143.567 337.266 139.482 330.547C135.397 323.828 139.482 304.022 139.482 304.022C139.495 303.843 139.495 303.663 139.482 303.483C137.764 294.285 136.618 284.988 136.051 275.647C134.65 253.032 137.055 237.557 136.775 234.748C131.896 185.584 138.712 158.474 138.712 158.474C139.776 154.535 141.697 150.881 144.337 147.775C149.309 142.391 155.285 143.748 159.043 150.327C159.438 151.002 159.796 151.697 160.117 152.411C161.648 156.189 162.516 160.205 162.684 164.28C163.058 174.464 161.634 190.173 159.883 204.36Z" fill="#FFEDE5"/>
<path d="M183.996 274.453C183.453 283.989 182.314 293.481 180.588 302.874L180.378 304.021C180.378 304.021 184.462 323.898 180.378 330.546C176.293 337.195 167.656 333.309 168.427 302.874C168.427 302.734 168.427 302.593 168.427 302.476C167.773 298.075 166.466 288.547 165.439 277.262C164.645 268.694 164.038 259.095 164.038 250.012C164.038 245.33 164.225 240.835 164.575 236.644C164.575 236.644 161.984 221.637 159.907 204.407C158.156 190.196 156.709 174.487 157.316 164.397C157.49 160.32 158.367 156.304 159.907 152.527C160.213 151.792 160.571 151.08 160.98 150.397C165.299 142.882 172.488 142.226 177.787 150.701C179.304 153.158 180.497 155.802 181.335 158.567C181.335 158.567 188.15 185.607 183.272 234.841C182.922 237.604 185.233 252.54 183.996 274.453Z" fill="#FFEDE5"/>
<path d="M86.0058 179.708C86.4709 180.248 87.0485 180.679 87.6979 180.97C88.3473 181.262 89.0526 181.406 89.7639 181.394C90.0897 181.318 90.3968 181.176 90.6665 180.978C90.9363 180.779 91.1631 180.528 91.3333 180.239C91.5034 179.95 91.6135 179.63 91.6567 179.297C91.6998 178.964 91.6753 178.626 91.5846 178.304C91.3131 177.591 90.8724 176.956 90.3008 176.454C86.7761 172.942 83.1581 169.431 79.4934 166.176C78.881 165.484 78.0626 165.008 77.1592 164.819C76.3192 164.818 75.5062 165.117 74.865 165.661C74.2239 166.206 73.7961 166.961 73.658 167.792C73.658 169.29 74.9418 169.852 75.9922 170.695C79.3067 173.645 82.6213 176.735 86.0058 179.708Z" fill="#3B2645"/>
<path d="M85.4921 175.563C85.6374 175.413 85.7558 175.239 85.8422 175.048C85.9014 174.806 85.9048 174.554 85.8522 174.311C85.7997 174.067 85.6925 173.839 85.5388 173.644C84.6751 172.216 82.9011 169.921 81.1505 169.711C80.5725 169.681 79.9969 169.804 79.4809 170.067C78.9649 170.33 78.5266 170.723 78.2094 171.209C77.6856 171.965 77.3525 172.837 77.2386 173.75C77.1248 174.664 77.2336 175.591 77.5558 176.453C78.0682 178.004 79.1206 179.317 80.5203 180.152C81.2187 180.449 82.0045 180.464 82.7135 180.193C83.4224 179.923 83.9998 179.388 84.325 178.7C84.6751 177.834 84.5584 176.781 85.1186 176.055C85.2249 175.878 85.3501 175.713 85.4921 175.563Z" fill="#FFEDE5"/>
<path d="M174.822 92.6184C169.43 96.3877 168.94 103.715 171.578 109.568C173.328 113.478 176.62 116.217 178.58 119.916C180.616 123.493 182.959 126.885 185.583 130.053C191.372 137.428 196.904 144.1 199.005 146.628C206.334 155.431 221.693 166.949 227.225 170.976L229.256 172.427C229.256 172.427 234.531 169.641 233.13 164.491C233.13 164.491 212.123 142.11 209.018 137.545C205.578 131.616 202.461 125.504 199.681 119.237C196.087 112.214 192.375 105.448 188.477 98.682C186.703 95.5683 184.463 91.6586 180.541 90.9562C178.968 90.7806 177.38 91.1172 176.013 91.9161C175.599 92.1204 175.201 92.3552 174.822 92.6184Z" fill="#FFEDE5"/>
<path d="M233.107 164.514C232.524 164.47 231.939 164.47 231.357 164.514C231.357 164.514 226.315 167.323 227.178 170.976C227.178 170.976 227.739 171.467 228.556 172.216C229.373 172.966 230.33 173.855 231.403 174.979C232.477 176.103 235.021 179.661 236.072 179.357C236.318 179.258 236.536 179.097 236.702 178.889L238.849 176.547C240.086 175.19 242.094 172.895 240.577 171.093C241.674 171.772 244.288 173.434 245.595 172.638L246.039 171.772C246.039 171.772 242.187 168.892 240.577 167.464C238.477 165.686 235.852 164.65 233.107 164.514Z" fill="#FFEDE5"/>
<path d="M233.644 179.708C233.179 180.248 232.601 180.679 231.952 180.97C231.303 181.261 230.597 181.406 229.886 181.394C229.556 181.323 229.244 181.185 228.969 180.989C228.694 180.793 228.462 180.542 228.287 180.253C228.112 179.964 227.998 179.641 227.952 179.306C227.906 178.971 227.929 178.629 228.019 178.303C228.31 177.623 228.758 177.021 229.326 176.547C232.858 173.036 236.469 169.61 240.157 166.27C240.766 165.574 241.586 165.097 242.491 164.912C243.328 164.913 244.138 165.212 244.775 165.757C245.413 166.302 245.836 167.056 245.969 167.885C245.969 169.384 244.708 169.946 243.635 170.788C240.343 173.644 237.029 176.735 233.644 179.708Z" fill="#3B2645"/>
<path d="M234.181 175.563C234.022 175.42 233.894 175.245 233.807 175.048C233.758 174.804 233.762 174.553 233.818 174.31C233.875 174.068 233.982 173.841 234.134 173.644C234.975 172.216 236.748 169.921 238.499 169.711C239.077 169.681 239.653 169.804 240.169 170.067C240.685 170.33 241.123 170.723 241.44 171.209C241.958 171.968 242.282 172.844 242.384 173.758C242.486 174.672 242.362 175.598 242.024 176.453C241.527 178.012 240.47 179.33 239.059 180.152C238.361 180.449 237.575 180.464 236.866 180.193C236.157 179.923 235.58 179.388 235.255 178.7C234.928 177.834 235.045 176.781 234.461 176.055L234.181 175.563Z" fill="#FFEDE5"/>
<path d="M184.346 259.446V261.787C184.346 263.356 184.346 264.971 184.346 266.633V268.53C184.346 270.449 184.206 272.439 184.112 274.476C178.069 276.148 171.846 277.084 165.579 277.262C165.322 274.64 164.809 267.663 164.785 266.891C164.785 265.299 164.435 260.804 164.412 260.195C164.272 256.777 164.178 253.359 164.178 250.011C164.178 245.657 164.342 241.396 164.669 237.439C164.669 237.158 164.669 236.901 164.669 236.643C164.669 236.386 162.078 221.66 160 204.406C159.767 206.232 159.533 208.058 159.3 209.814C157.339 224.657 155.262 236.643 155.262 236.643C155.612 240.811 155.775 245.329 155.775 249.964C155.775 253.5 155.775 256.988 155.518 260.687C155.518 261.295 155.052 269.115 154.982 269.864C154.818 272.369 154.608 274.827 154.398 277.192C151.13 277.051 147.909 276.841 144.711 276.56C142.19 276.349 139.016 276.208 135.935 275.764C135.795 273.657 135.701 271.643 135.631 269.677C135.631 269.185 135.631 268.693 135.631 268.202C135.631 266.048 135.631 264.011 135.631 262.045V260.499C135.631 246.312 137.008 236.971 136.798 234.747C131.92 185.584 138.736 158.473 138.736 158.473C139.8 154.534 141.721 150.88 144.361 147.774C146.362 148.085 148.325 148.603 150.22 149.32C153.106 150.076 156.085 150.415 159.066 150.326H161.214C163.805 150.326 166.396 150.022 168.963 149.952H170.691C173.152 149.915 175.61 150.15 178.02 150.654C179.461 153.137 180.575 155.797 181.335 158.567C183.22 167.403 184.329 176.389 184.649 185.42C185.44 201.905 184.98 218.426 183.272 234.841C182.992 236.924 184.229 245.844 184.346 259.446Z" fill="#3B2645"/>
<path d="M151.293 302.453C151.62 314.556 150.476 322.516 148.702 327.315C145.995 334.737 141.7 334.643 139.366 330.64C138.735 329.529 138.301 328.317 138.082 327.058C136.378 318.7 139.366 304.115 139.366 304.115C139.379 303.936 139.379 303.756 139.366 303.577C140.527 304.426 141.844 305.039 143.24 305.379C144.808 305.765 146.458 305.632 147.943 304.999C149.428 304.366 150.669 303.267 151.48 301.867L151.293 302.453Z" fill="#FF8A00"/>
<path d="M181.778 326.403C181.579 327.89 181.104 329.328 180.377 330.64C177.856 334.76 173.515 334.737 170.83 326.754C169.197 322.072 168.146 314.276 168.496 302.851C170.244 304.426 172.496 305.323 174.845 305.379C176.941 305.186 178.932 304.371 180.564 303.038C180.607 303.404 180.607 303.773 180.564 304.139C180.564 304.139 183.225 317.951 181.778 326.403Z" fill="#FF8A00"/>
<path d="M147.769 309.64C146.586 308.933 145.235 308.56 143.859 308.56C142.482 308.56 141.131 308.933 139.949 309.64C139.905 309.689 139.876 309.749 139.864 309.814C139.853 309.878 139.86 309.945 139.884 310.006C139.908 310.067 139.949 310.12 140.002 310.158C140.055 310.197 140.117 310.22 140.182 310.225C141.349 310.225 142.517 309.734 143.614 309.757C144.898 309.867 146.166 310.118 147.395 310.506C147.5 310.52 147.607 310.498 147.699 310.445C147.791 310.393 147.863 310.311 147.905 310.214C147.947 310.116 147.957 310.007 147.932 309.904C147.908 309.801 147.85 309.708 147.769 309.64Z" fill="#291B30"/>
<path d="M147.395 313.386C145.402 312.22 143.063 311.798 140.789 312.192C140.019 312.192 139.996 313.479 140.789 313.409C141.887 313.303 142.995 313.35 144.08 313.549C145.084 313.737 145.994 314.158 146.998 314.369C147.122 314.395 147.251 314.377 147.362 314.318C147.474 314.259 147.561 314.162 147.608 314.044C147.656 313.927 147.66 313.796 147.621 313.676C147.582 313.556 147.502 313.453 147.395 313.386Z" fill="#291B30"/>
<path d="M178.3 309.64C176.526 309.032 172.674 308.798 171.297 310.436C171.11 310.647 171.297 311.092 171.554 311.069C172.651 310.928 173.608 310.483 174.752 310.436C175.895 310.39 177.086 310.694 178.16 310.624C178.224 310.633 178.29 310.629 178.353 310.613C178.416 310.597 178.475 310.569 178.527 310.529C178.579 310.49 178.623 310.441 178.656 310.385C178.689 310.329 178.711 310.267 178.72 310.202C178.729 310.138 178.725 310.072 178.709 310.009C178.693 309.946 178.665 309.886 178.626 309.834C178.587 309.782 178.538 309.738 178.482 309.705C178.426 309.672 178.364 309.65 178.3 309.64Z" fill="#291B30"/>
<path d="M179.164 313.596C177.227 312.73 172.395 312.098 171.415 314.72C171.275 315.071 171.718 315.352 171.998 315.188C173.007 314.624 174.131 314.299 175.284 314.238C176.437 314.178 177.589 314.382 178.651 314.837C179.351 315.118 179.888 313.901 179.164 313.596Z" fill="#291B30"/>
<path d="M90.7911 89.8319C90.7911 89.6914 90.511 89.6914 90.4876 89.8319C89.3206 97.8151 89.9975 106.22 89.9975 114.39C89.9975 123.029 89.7174 131.738 90.2309 140.353C90.253 140.445 90.3053 140.527 90.3794 140.586C90.4535 140.644 90.545 140.676 90.6394 140.676C90.7337 140.676 90.8253 140.644 90.8994 140.586C90.9735 140.527 91.0258 140.445 91.0479 140.353C91.538 131.738 91.2579 123.029 91.2579 114.39C91.2579 106.407 91.9348 97.8854 90.7911 89.8319Z" fill="#F7F8F8"/>
<path d="M100.992 92.5477C100.967 92.4327 100.904 92.3298 100.812 92.256C100.721 92.1821 100.607 92.1418 100.49 92.1418C100.373 92.1418 100.259 92.1821 100.168 92.256C100.076 92.3298 100.013 92.4327 99.9881 92.5477C99.9881 100.227 99.4979 108.046 99.9881 115.701C99.9881 115.832 100.04 115.957 100.132 116.049C100.224 116.141 100.348 116.193 100.478 116.193C100.608 116.193 100.733 116.141 100.825 116.049C100.917 115.957 100.968 115.832 100.968 115.701C101.505 108.046 101.039 100.227 100.992 92.5477Z" fill="#F7F8F8"/>
<path d="M205.353 172.942C205.334 172.872 205.293 172.811 205.236 172.768C205.179 172.724 205.109 172.701 205.038 172.701C204.966 172.701 204.897 172.724 204.84 172.768C204.783 172.811 204.742 172.872 204.723 172.942C204.065 182.995 203.933 193.075 204.326 203.142C204.326 213.209 204.326 223.252 204.699 233.319C204.719 233.394 204.763 233.46 204.824 233.508C204.885 233.555 204.961 233.581 205.038 233.581C205.115 233.581 205.19 233.555 205.251 233.508C205.313 233.46 205.356 233.394 205.376 233.319C205.703 223.252 205.703 213.209 205.75 203.142C206.131 193.075 205.999 182.995 205.353 172.942Z" fill="#F7F8F8"/>
<path d="M223.35 114.063C223.278 107.364 222.841 100.674 222.043 94.0228C222.043 93.6248 221.413 93.7419 221.39 94.0228C221.21 101.216 221.42 108.414 222.02 115.585C222.323 122.257 222.253 129.093 223.14 135.695C223.14 136.304 224.167 136.116 224.191 135.554C224.517 128.414 223.771 121.133 223.35 114.063Z" fill="#F7F8F8"/>
<path d="M228.018 117.785C228.002 117.733 227.969 117.687 227.925 117.654C227.881 117.622 227.828 117.604 227.773 117.604C227.718 117.604 227.665 117.622 227.621 117.654C227.577 117.687 227.544 117.733 227.528 117.785C226.91 127.403 226.863 137.05 227.388 146.674C227.374 146.733 227.373 146.794 227.385 146.853C227.398 146.912 227.424 146.968 227.461 147.015C227.498 147.063 227.545 147.102 227.599 147.128C227.654 147.154 227.713 147.168 227.773 147.168C227.833 147.168 227.893 147.154 227.947 147.128C228.001 147.102 228.049 147.063 228.086 147.015C228.123 146.968 228.149 146.912 228.161 146.853C228.174 146.794 228.173 146.733 228.158 146.674C228.684 137.05 228.637 127.403 228.018 117.785Z" fill="#F7F8F8"/>
<path d="M159.183 209.791C159.219 207.968 159.454 206.155 159.883 204.383C159.65 206.209 159.417 208.035 159.183 209.791Z" fill="#291B30"/>
<path d="M184.579 185.42C181.428 166.434 155.402 165.544 155.402 165.544C153.791 157.725 164.295 155.384 164.295 155.384L170.434 150.07C172.895 150.033 175.353 150.268 177.763 150.772C179.284 153.205 180.484 155.826 181.335 158.568C183.182 167.409 184.267 176.393 184.579 185.42Z" fill="#291B30"/>
<path d="M181.707 160.604C160.7 170.507 137.871 161.424 137.871 161.424C139.529 156.741 138.291 132.862 138.175 128.32C138.175 128.32 138.175 128.156 138.175 128.086C138.184 127.914 138.184 127.742 138.175 127.571C142.586 117.317 143.077 97.5577 143.1 90.7685C145.084 90.4641 147.161 90.3002 148.959 90.2066C149.659 97.7918 152.157 117.247 159.112 116.404C166.068 115.561 169.383 98.2367 170.597 90.6514C171.877 90.8667 173.175 90.953 174.471 90.9089C174.868 90.9089 175.265 90.9089 175.662 90.9089C175.055 101.28 180.797 123.076 180.961 123.685C180.961 123.849 180.961 124.036 180.961 124.2C180.961 124.762 180.797 125.347 180.727 125.979C180.727 125.979 180.727 126.236 180.727 126.377C179.257 139.581 181.707 160.604 181.707 160.604Z" fill="#FF8A00"/>
<defs>
<filter id="filter0_d_265_1592" x="0" y="0" width="319" height="522" filterUnits="userSpaceOnUse" color-interpolation-filters="sRGB">
<feFlood flood-opacity="0" result="BackgroundImageFix"/>
<feColorMatrix in="SourceAlpha" type="matrix" values="0 0 0 0 0 0 0 0 0 0 0 0 0 0 0 0 0 0 127 0" result="hardAlpha"/>
<feOffset dy="10"/>
<feGaussianBlur stdDeviation="11"/>
<feColorMatrix type="matrix" values="0 0 0 0 0.772549 0 0 0 0 0.545098 0 0 0 0 0.94902 0 0 0 0.3 0"/>
<feBlend mode="normal" in2="BackgroundImageFix" result="effect1_dropShadow_265_1592"/>
<feBlend mode="normal" in="SourceGraphic" in2="effect1_dropShadow_265_1592" result="shape"/>
</filter>
<linearGradient id="paint0_linear_265_1592" x1="297" y1="490" x2="-70.9835" y2="473.618" gradientUnits="userSpaceOnUse">
<stop stop-color="#C150F6"/>
<stop offset="1" stop-color="#EEA4CE"/>
</linearGradient>
</defs>
</svg>
