<svg width="319" height="522" viewBox="0 0 319 522" fill="none" xmlns="http://www.w3.org/2000/svg">
<g filter="url(#filter0_d_265_1753)">
<rect x="22" y="12" width="275" height="478" rx="22" fill="url(#paint0_linear_265_1753)"/>
</g>
<path d="M127.364 375.446H130.584V377H125.404V367.228H127.364V375.446ZM135.274 377.126C134.528 377.126 133.856 376.963 133.258 376.636C132.661 376.3 132.19 375.829 131.844 375.222C131.508 374.615 131.34 373.915 131.34 373.122C131.34 372.329 131.513 371.629 131.858 371.022C132.213 370.415 132.694 369.949 133.3 369.622C133.907 369.286 134.584 369.118 135.33 369.118C136.077 369.118 136.754 369.286 137.36 369.622C137.967 369.949 138.443 370.415 138.788 371.022C139.143 371.629 139.32 372.329 139.32 373.122C139.32 373.915 139.138 374.615 138.774 375.222C138.42 375.829 137.934 376.3 137.318 376.636C136.712 376.963 136.03 377.126 135.274 377.126ZM135.274 375.418C135.629 375.418 135.96 375.334 136.268 375.166C136.586 374.989 136.838 374.727 137.024 374.382C137.211 374.037 137.304 373.617 137.304 373.122C137.304 372.385 137.108 371.82 136.716 371.428C136.334 371.027 135.862 370.826 135.302 370.826C134.742 370.826 134.271 371.027 133.888 371.428C133.515 371.82 133.328 372.385 133.328 373.122C133.328 373.859 133.51 374.429 133.874 374.83C134.248 375.222 134.714 375.418 135.274 375.418ZM143.726 377.126C143.091 377.126 142.522 377.014 142.018 376.79C141.514 376.557 141.113 376.244 140.814 375.852C140.525 375.46 140.366 375.026 140.338 374.55H142.312C142.349 374.849 142.494 375.096 142.746 375.292C143.007 375.488 143.329 375.586 143.712 375.586C144.085 375.586 144.375 375.511 144.58 375.362C144.795 375.213 144.902 375.021 144.902 374.788C144.902 374.536 144.771 374.349 144.51 374.228C144.258 374.097 143.852 373.957 143.292 373.808C142.713 373.668 142.237 373.523 141.864 373.374C141.5 373.225 141.183 372.996 140.912 372.688C140.651 372.38 140.52 371.965 140.52 371.442C140.52 371.013 140.641 370.621 140.884 370.266C141.136 369.911 141.491 369.631 141.948 369.426C142.415 369.221 142.961 369.118 143.586 369.118C144.51 369.118 145.247 369.351 145.798 369.818C146.349 370.275 146.652 370.896 146.708 371.68H144.832C144.804 371.372 144.673 371.129 144.44 370.952C144.216 370.765 143.913 370.672 143.53 370.672C143.175 370.672 142.9 370.737 142.704 370.868C142.517 370.999 142.424 371.181 142.424 371.414C142.424 371.675 142.555 371.876 142.816 372.016C143.077 372.147 143.483 372.282 144.034 372.422C144.594 372.562 145.056 372.707 145.42 372.856C145.784 373.005 146.097 373.239 146.358 373.556C146.629 373.864 146.769 374.275 146.778 374.788C146.778 375.236 146.652 375.637 146.4 375.992C146.157 376.347 145.803 376.627 145.336 376.832C144.879 377.028 144.342 377.126 143.726 377.126ZM155.597 372.954C155.597 373.234 155.578 373.486 155.541 373.71H149.871C149.918 374.27 150.114 374.709 150.459 375.026C150.804 375.343 151.229 375.502 151.733 375.502C152.461 375.502 152.979 375.189 153.287 374.564H155.401C155.177 375.311 154.748 375.927 154.113 376.412C153.478 376.888 152.699 377.126 151.775 377.126C151.028 377.126 150.356 376.963 149.759 376.636C149.171 376.3 148.709 375.829 148.373 375.222C148.046 374.615 147.883 373.915 147.883 373.122C147.883 372.319 148.046 371.615 148.373 371.008C148.7 370.401 149.157 369.935 149.745 369.608C150.333 369.281 151.01 369.118 151.775 369.118C152.512 369.118 153.17 369.277 153.749 369.594C154.337 369.911 154.79 370.364 155.107 370.952C155.434 371.531 155.597 372.198 155.597 372.954ZM153.567 372.394C153.558 371.89 153.376 371.489 153.021 371.19C152.666 370.882 152.232 370.728 151.719 370.728C151.234 370.728 150.823 370.877 150.487 371.176C150.16 371.465 149.96 371.871 149.885 372.394H153.567ZM159.859 373.094C159.859 372.31 160.013 371.615 160.321 371.008C160.639 370.401 161.063 369.935 161.595 369.608C162.137 369.281 162.739 369.118 163.401 369.118C163.98 369.118 164.484 369.235 164.913 369.468C165.352 369.701 165.702 369.995 165.963 370.35V369.244H167.937V377H165.963V375.866C165.711 376.23 165.361 376.533 164.913 376.776C164.475 377.009 163.966 377.126 163.387 377.126C162.734 377.126 162.137 376.958 161.595 376.622C161.063 376.286 160.639 375.815 160.321 375.208C160.013 374.592 159.859 373.887 159.859 373.094ZM165.963 373.122C165.963 372.646 165.87 372.24 165.683 371.904C165.497 371.559 165.245 371.297 164.927 371.12C164.61 370.933 164.269 370.84 163.905 370.84C163.541 370.84 163.205 370.929 162.897 371.106C162.589 371.283 162.337 371.545 162.141 371.89C161.955 372.226 161.861 372.627 161.861 373.094C161.861 373.561 161.955 373.971 162.141 374.326C162.337 374.671 162.589 374.937 162.897 375.124C163.215 375.311 163.551 375.404 163.905 375.404C164.269 375.404 164.61 375.315 164.927 375.138C165.245 374.951 165.497 374.69 165.683 374.354C165.87 374.009 165.963 373.598 165.963 373.122ZM179.222 367.228V368.81H175.148V371.316H178.27V372.87H175.148V377H173.188V367.228H179.222ZM180.108 373.094C180.108 372.31 180.262 371.615 180.57 371.008C180.887 370.401 181.312 369.935 181.844 369.608C182.385 369.281 182.987 369.118 183.65 369.118C184.228 369.118 184.732 369.235 185.162 369.468C185.6 369.701 185.95 369.995 186.212 370.35V369.244H188.186V377H186.212V375.866C185.96 376.23 185.61 376.533 185.162 376.776C184.723 377.009 184.214 377.126 183.636 377.126C182.982 377.126 182.385 376.958 181.844 376.622C181.312 376.286 180.887 375.815 180.57 375.208C180.262 374.592 180.108 373.887 180.108 373.094ZM186.212 373.122C186.212 372.646 186.118 372.24 185.932 371.904C185.745 371.559 185.493 371.297 185.176 371.12C184.858 370.933 184.518 370.84 184.154 370.84C183.79 370.84 183.454 370.929 183.146 371.106C182.838 371.283 182.586 371.545 182.39 371.89C182.203 372.226 182.11 372.627 182.11 373.094C182.11 373.561 182.203 373.971 182.39 374.326C182.586 374.671 182.838 374.937 183.146 375.124C183.463 375.311 183.799 375.404 184.154 375.404C184.518 375.404 184.858 375.315 185.176 375.138C185.493 374.951 185.745 374.69 185.932 374.354C186.118 374.009 186.212 373.598 186.212 373.122ZM192.382 370.854V374.606C192.382 374.867 192.442 375.059 192.564 375.18C192.694 375.292 192.909 375.348 193.208 375.348H194.118V377H192.886C191.234 377 190.408 376.197 190.408 374.592V370.854H189.484V369.244H190.408V367.326H192.382V369.244H194.118V370.854H192.382Z" fill="white"/>
<path d="M59.6683 410.636V419H58.5763V410.636H59.6683ZM67.9927 412.304C68.4887 412.304 68.9367 412.412 69.3367 412.628C69.7367 412.836 70.0487 413.152 70.2727 413.576C70.5047 414 70.6207 414.516 70.6207 415.124V419H69.5407V415.28C69.5407 414.624 69.3767 414.124 69.0487 413.78C68.7207 413.428 68.2727 413.252 67.7047 413.252C67.1287 413.252 66.6687 413.432 66.3247 413.792C65.9887 414.152 65.8207 414.676 65.8207 415.364V419H64.7287V410.12H65.8207V413.36C66.0367 413.024 66.3327 412.764 66.7087 412.58C67.0927 412.396 67.5207 412.304 67.9927 412.304ZM71.9965 415.688C71.9965 415.016 72.1325 414.428 72.4045 413.924C72.6765 413.412 73.0485 413.016 73.5205 412.736C74.0005 412.456 74.5325 412.316 75.1165 412.316C75.6925 412.316 76.1925 412.44 76.6165 412.688C77.0405 412.936 77.3565 413.248 77.5645 413.624V412.424H78.6685V419H77.5645V417.776C77.3485 418.16 77.0245 418.48 76.5925 418.736C76.1685 418.984 75.6725 419.108 75.1045 419.108C74.5205 419.108 73.9925 418.964 73.5205 418.676C73.0485 418.388 72.6765 417.984 72.4045 417.464C72.1325 416.944 71.9965 416.352 71.9965 415.688ZM77.5645 415.7C77.5645 415.204 77.4645 414.772 77.2645 414.404C77.0645 414.036 76.7925 413.756 76.4485 413.564C76.1125 413.364 75.7405 413.264 75.3325 413.264C74.9245 413.264 74.5525 413.36 74.2165 413.552C73.8805 413.744 73.6125 414.024 73.4125 414.392C73.2125 414.76 73.1125 415.192 73.1125 415.688C73.1125 416.192 73.2125 416.632 73.4125 417.008C73.6125 417.376 73.8805 417.66 74.2165 417.86C74.5525 418.052 74.9245 418.148 75.3325 418.148C75.7405 418.148 76.1125 418.052 76.4485 417.86C76.7925 417.66 77.0645 417.376 77.2645 417.008C77.4645 416.632 77.5645 416.196 77.5645 415.7ZM82.9618 417.992L85.0018 412.424H86.1658L83.5858 419H82.3138L79.7338 412.424H80.9098L82.9618 417.992ZM93.2404 415.46C93.2404 415.668 93.2284 415.888 93.2044 416.12H87.9484C87.9884 416.768 88.2084 417.276 88.6084 417.644C89.0164 418.004 89.5084 418.184 90.0844 418.184C90.5564 418.184 90.9484 418.076 91.2604 417.86C91.5804 417.636 91.8044 417.34 91.9324 416.972H93.1084C92.9324 417.604 92.5804 418.12 92.0524 418.52C91.5244 418.912 90.8684 419.108 90.0844 419.108C89.4604 419.108 88.9004 418.968 88.4044 418.688C87.9164 418.408 87.5324 418.012 87.2524 417.5C86.9724 416.98 86.8324 416.38 86.8324 415.7C86.8324 415.02 86.9684 414.424 87.2404 413.912C87.5124 413.4 87.8924 413.008 88.3804 412.736C88.8764 412.456 89.4444 412.316 90.0844 412.316C90.7084 412.316 91.2604 412.452 91.7404 412.724C92.2204 412.996 92.5884 413.372 92.8444 413.852C93.1084 414.324 93.2404 414.86 93.2404 415.46ZM92.1124 415.232C92.1124 414.816 92.0204 414.46 91.8364 414.164C91.6524 413.86 91.4004 413.632 91.0804 413.48C90.7684 413.32 90.4204 413.24 90.0364 413.24C89.4844 413.24 89.0124 413.416 88.6204 413.768C88.2364 414.12 88.0164 414.608 87.9604 415.232H92.1124ZM100.749 419.108C100.133 419.108 99.573 418.968 99.069 418.688C98.573 418.408 98.181 418.012 97.893 417.5C97.613 416.98 97.473 416.38 97.473 415.7C97.473 415.028 97.617 414.436 97.905 413.924C98.201 413.404 98.601 413.008 99.105 412.736C99.609 412.456 100.173 412.316 100.797 412.316C101.421 412.316 101.985 412.456 102.489 412.736C102.993 413.008 103.389 413.4 103.677 413.912C103.973 414.424 104.121 415.02 104.121 415.7C104.121 416.38 103.969 416.98 103.665 417.5C103.369 418.012 102.965 418.408 102.453 418.688C101.941 418.968 101.373 419.108 100.749 419.108ZM100.749 418.148C101.141 418.148 101.509 418.056 101.853 417.872C102.197 417.688 102.473 417.412 102.681 417.044C102.897 416.676 103.005 416.228 103.005 415.7C103.005 415.172 102.901 414.724 102.693 414.356C102.485 413.988 102.213 413.716 101.877 413.54C101.541 413.356 101.177 413.264 100.785 413.264C100.385 413.264 100.017 413.356 99.681 413.54C99.353 413.716 99.089 413.988 98.889 414.356C98.689 414.724 98.589 415.172 98.589 415.7C98.589 416.236 98.685 416.688 98.877 417.056C99.077 417.424 99.341 417.7 99.669 417.884C99.997 418.06 100.357 418.148 100.749 418.148ZM108.005 417.992L110.045 412.424H111.209L108.629 419H107.357L104.777 412.424H105.953L108.005 417.992ZM118.283 415.46C118.283 415.668 118.271 415.888 118.247 416.12H112.991C113.031 416.768 113.251 417.276 113.651 417.644C114.059 418.004 114.551 418.184 115.127 418.184C115.599 418.184 115.991 418.076 116.303 417.86C116.623 417.636 116.847 417.34 116.975 416.972H118.151C117.975 417.604 117.623 418.12 117.095 418.52C116.567 418.912 115.911 419.108 115.127 419.108C114.503 419.108 113.943 418.968 113.447 418.688C112.959 418.408 112.575 418.012 112.295 417.5C112.015 416.98 111.875 416.38 111.875 415.7C111.875 415.02 112.011 414.424 112.283 413.912C112.555 413.4 112.935 413.008 113.423 412.736C113.919 412.456 114.487 412.316 115.127 412.316C115.751 412.316 116.303 412.452 116.783 412.724C117.263 412.996 117.631 413.372 117.887 413.852C118.151 414.324 118.283 414.86 118.283 415.46ZM117.155 415.232C117.155 414.816 117.063 414.46 116.879 414.164C116.695 413.86 116.443 413.632 116.123 413.48C115.811 413.32 115.463 413.24 115.079 413.24C114.527 413.24 114.055 413.416 113.663 413.768C113.279 414.12 113.059 414.608 113.003 415.232H117.155ZM120.817 413.492C121.009 413.116 121.281 412.824 121.633 412.616C121.993 412.408 122.429 412.304 122.941 412.304V413.432H122.653C121.429 413.432 120.817 414.096 120.817 415.424V419H119.725V412.424H120.817V413.492ZM127.089 418.124C128.105 417.308 128.901 416.64 129.477 416.12C130.053 415.592 130.537 415.044 130.929 414.476C131.329 413.9 131.529 413.336 131.529 412.784C131.529 412.264 131.401 411.856 131.145 411.56C130.897 411.256 130.493 411.104 129.933 411.104C129.389 411.104 128.965 411.276 128.661 411.62C128.365 411.956 128.205 412.408 128.181 412.976H127.125C127.157 412.08 127.429 411.388 127.941 410.9C128.453 410.412 129.113 410.168 129.921 410.168C130.745 410.168 131.397 410.396 131.877 410.852C132.365 411.308 132.609 411.936 132.609 412.736C132.609 413.4 132.409 414.048 132.009 414.68C131.617 415.304 131.169 415.856 130.665 416.336C130.161 416.808 129.517 417.36 128.733 417.992H132.861V418.904H127.089V418.124ZM134.123 414.572C134.123 413.196 134.347 412.124 134.795 411.356C135.243 410.58 136.027 410.192 137.147 410.192C138.259 410.192 139.039 410.58 139.487 411.356C139.935 412.124 140.159 413.196 140.159 414.572C140.159 415.972 139.935 417.06 139.487 417.836C139.039 418.612 138.259 419 137.147 419C136.027 419 135.243 418.612 134.795 417.836C134.347 417.06 134.123 415.972 134.123 414.572ZM139.079 414.572C139.079 413.876 139.031 413.288 138.935 412.808C138.847 412.32 138.659 411.928 138.371 411.632C138.091 411.336 137.683 411.188 137.147 411.188C136.603 411.188 136.187 411.336 135.899 411.632C135.619 411.928 135.431 412.32 135.335 412.808C135.247 413.288 135.203 413.876 135.203 414.572C135.203 415.292 135.247 415.896 135.335 416.384C135.431 416.872 135.619 417.264 135.899 417.56C136.187 417.856 136.603 418.004 137.147 418.004C137.683 418.004 138.091 417.856 138.371 417.56C138.659 417.264 138.847 416.872 138.935 416.384C139.031 415.896 139.079 415.292 139.079 414.572ZM146.129 410.12V419H145.037V410.12H146.129ZM149.082 413.648C149.306 413.256 149.634 412.936 150.066 412.688C150.498 412.44 150.99 412.316 151.542 412.316C152.134 412.316 152.666 412.456 153.138 412.736C153.61 413.016 153.982 413.412 154.254 413.924C154.526 414.428 154.662 415.016 154.662 415.688C154.662 416.352 154.526 416.944 154.254 417.464C153.982 417.984 153.606 418.388 153.126 418.676C152.654 418.964 152.126 419.108 151.542 419.108C150.974 419.108 150.474 418.984 150.042 418.736C149.618 418.488 149.298 418.172 149.082 417.788V419H147.99V410.12H149.082V413.648ZM153.546 415.688C153.546 415.192 153.446 414.76 153.246 414.392C153.046 414.024 152.774 413.744 152.43 413.552C152.094 413.36 151.722 413.264 151.314 413.264C150.914 413.264 150.542 413.364 150.198 413.564C149.862 413.756 149.59 414.04 149.382 414.416C149.182 414.784 149.082 415.212 149.082 415.7C149.082 416.196 149.182 416.632 149.382 417.008C149.59 417.376 149.862 417.66 150.198 417.86C150.542 418.052 150.914 418.148 151.314 418.148C151.722 418.148 152.094 418.052 152.43 417.86C152.774 417.66 153.046 417.376 153.246 417.008C153.446 416.632 153.546 416.192 153.546 415.688ZM158.428 419.108C157.924 419.108 157.472 419.024 157.072 418.856C156.672 418.68 156.356 418.44 156.124 418.136C155.892 417.824 155.764 417.468 155.74 417.068H156.868C156.9 417.396 157.052 417.664 157.324 417.872C157.604 418.08 157.968 418.184 158.416 418.184C158.832 418.184 159.16 418.092 159.4 417.908C159.64 417.724 159.76 417.492 159.76 417.212C159.76 416.924 159.632 416.712 159.376 416.576C159.12 416.432 158.724 416.292 158.188 416.156C157.7 416.028 157.3 415.9 156.988 415.772C156.684 415.636 156.42 415.44 156.196 415.184C155.98 414.92 155.872 414.576 155.872 414.152C155.872 413.816 155.972 413.508 156.172 413.228C156.372 412.948 156.656 412.728 157.024 412.568C157.392 412.4 157.812 412.316 158.284 412.316C159.012 412.316 159.6 412.5 160.048 412.868C160.496 413.236 160.736 413.74 160.768 414.38H159.676C159.652 414.036 159.512 413.76 159.256 413.552C159.008 413.344 158.672 413.24 158.248 413.24C157.856 413.24 157.544 413.324 157.312 413.492C157.08 413.66 156.964 413.88 156.964 414.152C156.964 414.368 157.032 414.548 157.168 414.692C157.312 414.828 157.488 414.94 157.696 415.028C157.912 415.108 158.208 415.2 158.584 415.304C159.056 415.432 159.44 415.56 159.736 415.688C160.032 415.808 160.284 415.992 160.492 416.24C160.708 416.488 160.82 416.812 160.828 417.212C160.828 417.572 160.728 417.896 160.528 418.184C160.328 418.472 160.044 418.7 159.676 418.868C159.316 419.028 158.9 419.108 158.428 419.108ZM166.901 413.324V417.2C166.901 417.52 166.969 417.748 167.105 417.884C167.241 418.012 167.477 418.076 167.813 418.076H168.617V419H167.633C167.025 419 166.569 418.86 166.265 418.58C165.961 418.3 165.809 417.84 165.809 417.2V413.324H164.957V412.424H165.809V410.768H166.901V412.424H168.617V413.324H166.901ZM172.808 419.108C172.192 419.108 171.632 418.968 171.128 418.688C170.632 418.408 170.24 418.012 169.952 417.5C169.672 416.98 169.532 416.38 169.532 415.7C169.532 415.028 169.676 414.436 169.964 413.924C170.26 413.404 170.66 413.008 171.164 412.736C171.668 412.456 172.232 412.316 172.856 412.316C173.48 412.316 174.044 412.456 174.548 412.736C175.052 413.008 175.448 413.4 175.736 413.912C176.032 414.424 176.18 415.02 176.18 415.7C176.18 416.38 176.028 416.98 175.724 417.5C175.428 418.012 175.024 418.408 174.512 418.688C174 418.968 173.432 419.108 172.808 419.108ZM172.808 418.148C173.2 418.148 173.568 418.056 173.912 417.872C174.256 417.688 174.532 417.412 174.74 417.044C174.956 416.676 175.064 416.228 175.064 415.7C175.064 415.172 174.96 414.724 174.752 414.356C174.544 413.988 174.272 413.716 173.936 413.54C173.6 413.356 173.236 413.264 172.844 413.264C172.444 413.264 172.076 413.356 171.74 413.54C171.412 413.716 171.148 413.988 170.948 414.356C170.748 414.724 170.648 415.172 170.648 415.7C170.648 416.236 170.744 416.688 170.936 417.056C171.136 417.424 171.4 417.7 171.728 417.884C172.056 418.06 172.416 418.148 172.808 418.148ZM181.907 410.12V419H180.815V410.12H181.907ZM186.636 419.108C186.02 419.108 185.46 418.968 184.956 418.688C184.46 418.408 184.068 418.012 183.78 417.5C183.5 416.98 183.36 416.38 183.36 415.7C183.36 415.028 183.504 414.436 183.792 413.924C184.088 413.404 184.488 413.008 184.992 412.736C185.496 412.456 186.06 412.316 186.684 412.316C187.308 412.316 187.872 412.456 188.376 412.736C188.88 413.008 189.276 413.4 189.564 413.912C189.86 414.424 190.008 415.02 190.008 415.7C190.008 416.38 189.856 416.98 189.552 417.5C189.256 418.012 188.852 418.408 188.34 418.688C187.828 418.968 187.26 419.108 186.636 419.108ZM186.636 418.148C187.028 418.148 187.396 418.056 187.74 417.872C188.084 417.688 188.36 417.412 188.568 417.044C188.784 416.676 188.892 416.228 188.892 415.7C188.892 415.172 188.788 414.724 188.58 414.356C188.372 413.988 188.1 413.716 187.764 413.54C187.428 413.356 187.064 413.264 186.672 413.264C186.272 413.264 185.904 413.356 185.568 413.54C185.24 413.716 184.976 413.988 184.776 414.356C184.576 414.724 184.476 415.172 184.476 415.7C184.476 416.236 184.572 416.688 184.764 417.056C184.964 417.424 185.228 417.7 185.556 417.884C185.884 418.06 186.244 418.148 186.636 418.148ZM193.772 419.108C193.268 419.108 192.816 419.024 192.416 418.856C192.016 418.68 191.7 418.44 191.468 418.136C191.236 417.824 191.108 417.468 191.084 417.068H192.212C192.244 417.396 192.396 417.664 192.668 417.872C192.948 418.08 193.312 418.184 193.76 418.184C194.176 418.184 194.504 418.092 194.744 417.908C194.984 417.724 195.104 417.492 195.104 417.212C195.104 416.924 194.976 416.712 194.72 416.576C194.464 416.432 194.068 416.292 193.532 416.156C193.044 416.028 192.644 415.9 192.332 415.772C192.028 415.636 191.764 415.44 191.54 415.184C191.324 414.92 191.216 414.576 191.216 414.152C191.216 413.816 191.316 413.508 191.516 413.228C191.716 412.948 192 412.728 192.368 412.568C192.736 412.4 193.156 412.316 193.628 412.316C194.356 412.316 194.944 412.5 195.392 412.868C195.84 413.236 196.08 413.74 196.112 414.38H195.02C194.996 414.036 194.856 413.76 194.6 413.552C194.352 413.344 194.016 413.24 193.592 413.24C193.2 413.24 192.888 413.324 192.656 413.492C192.424 413.66 192.308 413.88 192.308 414.152C192.308 414.368 192.376 414.548 192.512 414.692C192.656 414.828 192.832 414.94 193.04 415.028C193.256 415.108 193.552 415.2 193.928 415.304C194.4 415.432 194.784 415.56 195.08 415.688C195.376 415.808 195.628 415.992 195.836 416.24C196.052 416.488 196.164 416.812 196.172 417.212C196.172 417.572 196.072 417.896 195.872 418.184C195.672 418.472 195.388 418.7 195.02 418.868C194.66 419.028 194.244 419.108 193.772 419.108ZM203.713 415.46C203.713 415.668 203.701 415.888 203.677 416.12H198.421C198.461 416.768 198.681 417.276 199.081 417.644C199.489 418.004 199.981 418.184 200.557 418.184C201.029 418.184 201.421 418.076 201.733 417.86C202.053 417.636 202.277 417.34 202.405 416.972H203.581C203.405 417.604 203.053 418.12 202.525 418.52C201.997 418.912 201.341 419.108 200.557 419.108C199.933 419.108 199.373 418.968 198.877 418.688C198.389 418.408 198.005 418.012 197.725 417.5C197.445 416.98 197.305 416.38 197.305 415.7C197.305 415.02 197.441 414.424 197.713 413.912C197.985 413.4 198.365 413.008 198.853 412.736C199.349 412.456 199.917 412.316 200.557 412.316C201.181 412.316 201.733 412.452 202.213 412.724C202.693 412.996 203.061 413.372 203.317 413.852C203.581 414.324 203.713 414.86 203.713 415.46ZM202.585 415.232C202.585 414.816 202.493 414.46 202.309 414.164C202.125 413.86 201.873 413.632 201.553 413.48C201.241 413.32 200.893 413.24 200.509 413.24C199.957 413.24 199.485 413.416 199.093 413.768C198.709 414.12 198.489 414.608 198.433 415.232H202.585ZM205.502 419.072C205.294 419.072 205.118 419 204.974 418.856C204.83 418.712 204.758 418.536 204.758 418.328C204.758 418.12 204.83 417.944 204.974 417.8C205.118 417.656 205.294 417.584 205.502 417.584C205.702 417.584 205.87 417.656 206.006 417.8C206.15 417.944 206.222 418.12 206.222 418.328C206.222 418.536 206.15 418.712 206.006 418.856C205.87 419 205.702 419.072 205.502 419.072ZM211.965 410.636V419H210.873V410.636H211.965ZM225.786 412.424L223.734 419H222.606L221.022 413.78L219.438 419H218.31L216.246 412.424H217.362L218.874 417.944L220.506 412.424H221.622L223.218 417.956L224.706 412.424H225.786ZM226.461 415.688C226.461 415.016 226.597 414.428 226.869 413.924C227.141 413.412 227.513 413.016 227.985 412.736C228.465 412.456 228.997 412.316 229.581 412.316C230.157 412.316 230.657 412.44 231.081 412.688C231.505 412.936 231.821 413.248 232.029 413.624V412.424H233.133V419H232.029V417.776C231.813 418.16 231.489 418.48 231.057 418.736C230.633 418.984 230.137 419.108 229.569 419.108C228.985 419.108 228.457 418.964 227.985 418.676C227.513 418.388 227.141 417.984 226.869 417.464C226.597 416.944 226.461 416.352 226.461 415.688ZM232.029 415.7C232.029 415.204 231.929 414.772 231.729 414.404C231.529 414.036 231.257 413.756 230.913 413.564C230.577 413.364 230.205 413.264 229.797 413.264C229.389 413.264 229.017 413.36 228.681 413.552C228.345 413.744 228.077 414.024 227.877 414.392C227.677 414.76 227.577 415.192 227.577 415.688C227.577 416.192 227.677 416.632 227.877 417.008C228.077 417.376 228.345 417.66 228.681 417.86C229.017 418.052 229.389 418.148 229.797 418.148C230.205 418.148 230.577 418.052 230.913 417.86C231.257 417.66 231.529 417.376 231.729 417.008C231.929 416.632 232.029 416.196 232.029 415.7ZM238.183 412.304C238.983 412.304 239.631 412.548 240.127 413.036C240.623 413.516 240.871 414.212 240.871 415.124V419H239.791V415.28C239.791 414.624 239.627 414.124 239.299 413.78C238.971 413.428 238.523 413.252 237.955 413.252C237.379 413.252 236.919 413.432 236.575 413.792C236.239 414.152 236.071 414.676 236.071 415.364V419H234.979V412.424H236.071V413.36C236.287 413.024 236.579 412.764 236.947 412.58C237.323 412.396 237.735 412.304 238.183 412.304ZM243.986 413.324V417.2C243.986 417.52 244.054 417.748 244.19 417.884C244.326 418.012 244.562 418.076 244.898 418.076H245.702V419H244.718C244.11 419 243.654 418.86 243.35 418.58C243.046 418.3 242.894 417.84 242.894 417.2V413.324H242.042V412.424H242.894V410.768H243.986V412.424H245.702V413.324H243.986ZM251.557 413.324V417.2C251.557 417.52 251.625 417.748 251.761 417.884C251.897 418.012 252.133 418.076 252.469 418.076H253.273V419H252.289C251.681 419 251.225 418.86 250.921 418.58C250.617 418.3 250.465 417.84 250.465 417.2V413.324H249.613V412.424H250.465V410.768H251.557V412.424H253.273V413.324H251.557ZM257.464 419.108C256.848 419.108 256.288 418.968 255.784 418.688C255.288 418.408 254.896 418.012 254.608 417.5C254.328 416.98 254.188 416.38 254.188 415.7C254.188 415.028 254.332 414.436 254.62 413.924C254.916 413.404 255.316 413.008 255.82 412.736C256.324 412.456 256.888 412.316 257.512 412.316C258.136 412.316 258.7 412.456 259.204 412.736C259.708 413.008 260.104 413.4 260.392 413.912C260.688 414.424 260.836 415.02 260.836 415.7C260.836 416.38 260.684 416.98 260.38 417.5C260.084 418.012 259.68 418.408 259.168 418.688C258.656 418.968 258.088 419.108 257.464 419.108ZM257.464 418.148C257.856 418.148 258.224 418.056 258.568 417.872C258.912 417.688 259.188 417.412 259.396 417.044C259.612 416.676 259.72 416.228 259.72 415.7C259.72 415.172 259.616 414.724 259.408 414.356C259.2 413.988 258.928 413.716 258.592 413.54C258.256 413.356 257.892 413.264 257.5 413.264C257.1 413.264 256.732 413.356 256.396 413.54C256.068 413.716 255.804 413.988 255.604 414.356C255.404 414.724 255.304 415.172 255.304 415.7C255.304 416.236 255.4 416.688 255.592 417.056C255.792 417.424 256.056 417.7 256.384 417.884C256.712 418.06 257.072 418.148 257.464 418.148ZM63.0082 433.688C63.0082 433.016 63.1442 432.428 63.4162 431.924C63.6882 431.412 64.0602 431.016 64.5322 430.736C65.0122 430.456 65.5482 430.316 66.1402 430.316C66.6522 430.316 67.1282 430.436 67.5682 430.676C68.0082 430.908 68.3442 431.216 68.5762 431.6V428.12H69.6802V437H68.5762V435.764C68.3602 436.156 68.0402 436.48 67.6162 436.736C67.1922 436.984 66.6962 437.108 66.1282 437.108C65.5442 437.108 65.0122 436.964 64.5322 436.676C64.0602 436.388 63.6882 435.984 63.4162 435.464C63.1442 434.944 63.0082 434.352 63.0082 433.688ZM68.5762 433.7C68.5762 433.204 68.4762 432.772 68.2762 432.404C68.0762 432.036 67.8042 431.756 67.4602 431.564C67.1242 431.364 66.7522 431.264 66.3442 431.264C65.9362 431.264 65.5642 431.36 65.2282 431.552C64.8922 431.744 64.6242 432.024 64.4242 432.392C64.2242 432.76 64.1242 433.192 64.1242 433.688C64.1242 434.192 64.2242 434.632 64.4242 435.008C64.6242 435.376 64.8922 435.66 65.2282 435.86C65.5642 436.052 65.9362 436.148 66.3442 436.148C66.7522 436.148 67.1242 436.052 67.4602 435.86C67.8042 435.66 68.0762 435.376 68.2762 435.008C68.4762 434.632 68.5762 434.196 68.5762 433.7ZM72.6176 431.492C72.8096 431.116 73.0816 430.824 73.4336 430.616C73.7936 430.408 74.2296 430.304 74.7416 430.304V431.432H74.4536C73.2296 431.432 72.6176 432.096 72.6176 433.424V437H71.5256V430.424H72.6176V431.492ZM78.8701 437.108C78.2541 437.108 77.6941 436.968 77.1901 436.688C76.6941 436.408 76.3021 436.012 76.0141 435.5C75.7341 434.98 75.5941 434.38 75.5941 433.7C75.5941 433.028 75.7381 432.436 76.0261 431.924C76.3221 431.404 76.7221 431.008 77.2261 430.736C77.7301 430.456 78.2941 430.316 78.9181 430.316C79.5421 430.316 80.1061 430.456 80.6101 430.736C81.1141 431.008 81.5101 431.4 81.7981 431.912C82.0941 432.424 82.2421 433.02 82.2421 433.7C82.2421 434.38 82.0901 434.98 81.7861 435.5C81.4901 436.012 81.0861 436.408 80.5741 436.688C80.0621 436.968 79.4941 437.108 78.8701 437.108ZM78.8701 436.148C79.2621 436.148 79.6301 436.056 79.9741 435.872C80.3181 435.688 80.5941 435.412 80.8021 435.044C81.0181 434.676 81.1261 434.228 81.1261 433.7C81.1261 433.172 81.0221 432.724 80.8141 432.356C80.6061 431.988 80.3341 431.716 79.9981 431.54C79.6621 431.356 79.2981 431.264 78.9061 431.264C78.5061 431.264 78.1381 431.356 77.8021 431.54C77.4741 431.716 77.2101 431.988 77.0101 432.356C76.8101 432.724 76.7101 433.172 76.7101 433.7C76.7101 434.236 76.8061 434.688 76.9981 435.056C77.1981 435.424 77.4621 435.7 77.7901 435.884C78.1181 436.06 78.4781 436.148 78.8701 436.148ZM84.7699 431.636C84.9859 431.26 85.3059 430.948 85.7299 430.7C86.1619 430.444 86.6619 430.316 87.2299 430.316C87.8139 430.316 88.3419 430.456 88.8139 430.736C89.2939 431.016 89.6699 431.412 89.9419 431.924C90.2139 432.428 90.3499 433.016 90.3499 433.688C90.3499 434.352 90.2139 434.944 89.9419 435.464C89.6699 435.984 89.2939 436.388 88.8139 436.676C88.3419 436.964 87.8139 437.108 87.2299 437.108C86.6699 437.108 86.1739 436.984 85.7419 436.736C85.3179 436.48 84.9939 436.164 84.7699 435.788V440.12H83.6779V430.424H84.7699V431.636ZM89.2339 433.688C89.2339 433.192 89.1339 432.76 88.9339 432.392C88.7339 432.024 88.4619 431.744 88.1179 431.552C87.7819 431.36 87.4099 431.264 87.0019 431.264C86.6019 431.264 86.2299 431.364 85.8859 431.564C85.5499 431.756 85.2779 432.04 85.0699 432.416C84.8699 432.784 84.7699 433.212 84.7699 433.7C84.7699 434.196 84.8699 434.632 85.0699 435.008C85.2779 435.376 85.5499 435.66 85.8859 435.86C86.2299 436.052 86.6019 436.148 87.0019 436.148C87.4099 436.148 87.7819 436.052 88.1179 435.86C88.4619 435.66 88.7339 435.376 88.9339 435.008C89.1339 434.632 89.2339 434.192 89.2339 433.688ZM94.5785 433.688C94.5785 433.016 94.7145 432.428 94.9865 431.924C95.2585 431.412 95.6305 431.016 96.1025 430.736C96.5825 430.456 97.1145 430.316 97.6985 430.316C98.2745 430.316 98.7745 430.44 99.1985 430.688C99.6225 430.936 99.9385 431.248 100.147 431.624V430.424H101.251V437H100.147V435.776C99.9305 436.16 99.6065 436.48 99.1745 436.736C98.7505 436.984 98.2545 437.108 97.6865 437.108C97.1025 437.108 96.5745 436.964 96.1025 436.676C95.6305 436.388 95.2585 435.984 94.9865 435.464C94.7145 434.944 94.5785 434.352 94.5785 433.688ZM100.147 433.7C100.147 433.204 100.047 432.772 99.8465 432.404C99.6465 432.036 99.3745 431.756 99.0305 431.564C98.6945 431.364 98.3225 431.264 97.9145 431.264C97.5065 431.264 97.1345 431.36 96.7985 431.552C96.4625 431.744 96.1945 432.024 95.9945 432.392C95.7945 432.76 95.6945 433.192 95.6945 433.688C95.6945 434.192 95.7945 434.632 95.9945 435.008C96.1945 435.376 96.4625 435.66 96.7985 435.86C97.1345 436.052 97.5065 436.148 97.9145 436.148C98.3225 436.148 98.6945 436.052 99.0305 435.86C99.3745 435.66 99.6465 435.376 99.8465 435.008C100.047 434.632 100.147 434.196 100.147 433.7ZM104.188 428.12V437H103.096V428.12H104.188ZM107.141 428.12V437H106.049V428.12H107.141ZM113.533 431.324V435.2C113.533 435.52 113.601 435.748 113.737 435.884C113.873 436.012 114.109 436.076 114.445 436.076H115.249V437H114.265C113.657 437 113.201 436.86 112.897 436.58C112.593 436.3 112.441 435.84 112.441 435.2V431.324H111.589V430.424H112.441V428.768H113.533V430.424H115.249V431.324H113.533ZM119.836 430.304C120.332 430.304 120.78 430.412 121.18 430.628C121.58 430.836 121.892 431.152 122.116 431.576C122.348 432 122.464 432.516 122.464 433.124V437H121.384V433.28C121.384 432.624 121.22 432.124 120.892 431.78C120.564 431.428 120.116 431.252 119.548 431.252C118.972 431.252 118.512 431.432 118.168 431.792C117.832 432.152 117.664 432.676 117.664 433.364V437H116.572V428.12H117.664V431.36C117.88 431.024 118.176 430.764 118.552 430.58C118.936 430.396 119.364 430.304 119.836 430.304ZM124.812 429.356C124.604 429.356 124.428 429.284 124.284 429.14C124.14 428.996 124.068 428.82 124.068 428.612C124.068 428.404 124.14 428.228 124.284 428.084C124.428 427.94 124.604 427.868 124.812 427.868C125.012 427.868 125.18 427.94 125.316 428.084C125.46 428.228 125.532 428.404 125.532 428.612C125.532 428.82 125.46 428.996 125.316 429.14C125.18 429.284 125.012 429.356 124.812 429.356ZM125.34 430.424V437H124.248V430.424H125.34ZM129.529 437.108C129.025 437.108 128.573 437.024 128.173 436.856C127.773 436.68 127.457 436.44 127.225 436.136C126.993 435.824 126.865 435.468 126.841 435.068H127.969C128.001 435.396 128.153 435.664 128.425 435.872C128.705 436.08 129.069 436.184 129.517 436.184C129.933 436.184 130.261 436.092 130.501 435.908C130.741 435.724 130.861 435.492 130.861 435.212C130.861 434.924 130.733 434.712 130.477 434.576C130.221 434.432 129.825 434.292 129.289 434.156C128.801 434.028 128.401 433.9 128.089 433.772C127.785 433.636 127.521 433.44 127.297 433.184C127.081 432.92 126.973 432.576 126.973 432.152C126.973 431.816 127.073 431.508 127.273 431.228C127.473 430.948 127.757 430.728 128.125 430.568C128.493 430.4 128.913 430.316 129.385 430.316C130.113 430.316 130.701 430.5 131.149 430.868C131.597 431.236 131.837 431.74 131.869 432.38H130.777C130.753 432.036 130.613 431.76 130.357 431.552C130.109 431.344 129.773 431.24 129.349 431.24C128.957 431.24 128.645 431.324 128.413 431.492C128.181 431.66 128.065 431.88 128.065 432.152C128.065 432.368 128.133 432.548 128.269 432.692C128.413 432.828 128.589 432.94 128.797 433.028C129.013 433.108 129.309 433.2 129.685 433.304C130.157 433.432 130.541 433.56 130.837 433.688C131.133 433.808 131.385 433.992 131.593 434.24C131.809 434.488 131.921 434.812 131.929 435.212C131.929 435.572 131.829 435.896 131.629 436.184C131.429 436.472 131.145 436.7 130.777 436.868C130.417 437.028 130.001 437.108 129.529 437.108ZM139.346 431.324H137.966V437H136.874V431.324H136.022V430.424H136.874V429.956C136.874 429.22 137.062 428.684 137.438 428.348C137.822 428.004 138.434 427.832 139.274 427.832V428.744C138.794 428.744 138.454 428.84 138.254 429.032C138.062 429.216 137.966 429.524 137.966 429.956V430.424H139.346V431.324ZM140.211 433.688C140.211 433.016 140.347 432.428 140.619 431.924C140.891 431.412 141.263 431.016 141.735 430.736C142.215 430.456 142.747 430.316 143.331 430.316C143.907 430.316 144.407 430.44 144.831 430.688C145.255 430.936 145.571 431.248 145.779 431.624V430.424H146.883V437H145.779V435.776C145.563 436.16 145.239 436.48 144.807 436.736C144.383 436.984 143.887 437.108 143.319 437.108C142.735 437.108 142.207 436.964 141.735 436.676C141.263 436.388 140.891 435.984 140.619 435.464C140.347 434.944 140.211 434.352 140.211 433.688ZM145.779 433.7C145.779 433.204 145.679 432.772 145.479 432.404C145.279 432.036 145.007 431.756 144.663 431.564C144.327 431.364 143.955 431.264 143.547 431.264C143.139 431.264 142.767 431.36 142.431 431.552C142.095 431.744 141.827 432.024 141.627 432.392C141.427 432.76 141.327 433.192 141.327 433.688C141.327 434.192 141.427 434.632 141.627 435.008C141.827 435.376 142.095 435.66 142.431 435.86C142.767 436.052 143.139 436.148 143.547 436.148C143.955 436.148 144.327 436.052 144.663 435.86C145.007 435.66 145.279 435.376 145.479 435.008C145.679 434.632 145.779 434.196 145.779 433.7ZM150.061 431.324V435.2C150.061 435.52 150.129 435.748 150.265 435.884C150.401 436.012 150.637 436.076 150.973 436.076H151.777V437H150.793C150.185 437 149.729 436.86 149.425 436.58C149.121 436.3 148.969 435.84 148.969 435.2V431.324H148.117V430.424H148.969V428.768H150.061V430.424H151.777V431.324H150.061ZM155.891 433.688C155.891 433.016 156.027 432.428 156.299 431.924C156.571 431.412 156.943 431.016 157.415 430.736C157.895 430.456 158.427 430.316 159.011 430.316C159.587 430.316 160.087 430.44 160.511 430.688C160.935 430.936 161.251 431.248 161.459 431.624V430.424H162.563V437H161.459V435.776C161.243 436.16 160.919 436.48 160.487 436.736C160.063 436.984 159.567 437.108 158.999 437.108C158.415 437.108 157.887 436.964 157.415 436.676C156.943 436.388 156.571 435.984 156.299 435.464C156.027 434.944 155.891 434.352 155.891 433.688ZM161.459 433.7C161.459 433.204 161.359 432.772 161.159 432.404C160.959 432.036 160.687 431.756 160.343 431.564C160.007 431.364 159.635 431.264 159.227 431.264C158.819 431.264 158.447 431.36 158.111 431.552C157.775 431.744 157.507 432.024 157.307 432.392C157.107 432.76 157.007 433.192 157.007 433.688C157.007 434.192 157.107 434.632 157.307 435.008C157.507 435.376 157.775 435.66 158.111 435.86C158.447 436.052 158.819 436.148 159.227 436.148C159.635 436.148 160.007 436.052 160.343 435.86C160.687 435.66 160.959 435.376 161.159 435.008C161.359 434.632 161.459 434.196 161.459 433.7ZM167.612 430.304C168.412 430.304 169.06 430.548 169.556 431.036C170.052 431.516 170.3 432.212 170.3 433.124V437H169.22V433.28C169.22 432.624 169.056 432.124 168.728 431.78C168.4 431.428 167.952 431.252 167.384 431.252C166.808 431.252 166.348 431.432 166.004 431.792C165.668 432.152 165.5 432.676 165.5 433.364V437H164.408V430.424H165.5V431.36C165.716 431.024 166.008 430.764 166.376 430.58C166.752 430.396 167.164 430.304 167.612 430.304ZM171.676 433.688C171.676 433.016 171.812 432.428 172.084 431.924C172.356 431.412 172.728 431.016 173.2 430.736C173.68 430.456 174.216 430.316 174.808 430.316C175.32 430.316 175.796 430.436 176.236 430.676C176.676 430.908 177.012 431.216 177.244 431.6V428.12H178.348V437H177.244V435.764C177.028 436.156 176.708 436.48 176.284 436.736C175.86 436.984 175.364 437.108 174.796 437.108C174.212 437.108 173.68 436.964 173.2 436.676C172.728 436.388 172.356 435.984 172.084 435.464C171.812 434.944 171.676 434.352 171.676 433.688ZM177.244 433.7C177.244 433.204 177.144 432.772 176.944 432.404C176.744 432.036 176.472 431.756 176.128 431.564C175.792 431.364 175.42 431.264 175.012 431.264C174.604 431.264 174.232 431.36 173.896 431.552C173.56 431.744 173.292 432.024 173.092 432.392C172.892 432.76 172.792 433.192 172.792 433.688C172.792 434.192 172.892 434.632 173.092 435.008C173.292 435.376 173.56 435.66 173.896 435.86C174.232 436.052 174.604 436.148 175.012 436.148C175.42 436.148 175.792 436.052 176.128 435.86C176.472 435.66 176.744 435.376 176.944 435.008C177.144 434.632 177.244 434.196 177.244 433.7ZM186.105 430.316C186.673 430.316 187.169 430.44 187.593 430.688C188.025 430.936 188.345 431.248 188.553 431.624V430.424H189.657V437.144C189.657 437.744 189.529 438.276 189.273 438.74C189.017 439.212 188.649 439.58 188.169 439.844C187.697 440.108 187.145 440.24 186.513 440.24C185.649 440.24 184.929 440.036 184.353 439.628C183.777 439.22 183.437 438.664 183.333 437.96H184.413C184.533 438.36 184.781 438.68 185.157 438.92C185.533 439.168 185.985 439.292 186.513 439.292C187.113 439.292 187.601 439.104 187.977 438.728C188.361 438.352 188.553 437.824 188.553 437.144V435.764C188.337 436.148 188.017 436.468 187.593 436.724C187.169 436.98 186.673 437.108 186.105 437.108C185.521 437.108 184.989 436.964 184.509 436.676C184.037 436.388 183.665 435.984 183.393 435.464C183.121 434.944 182.985 434.352 182.985 433.688C182.985 433.016 183.121 432.428 183.393 431.924C183.665 431.412 184.037 431.016 184.509 430.736C184.989 430.456 185.521 430.316 186.105 430.316ZM188.553 433.7C188.553 433.204 188.453 432.772 188.253 432.404C188.053 432.036 187.781 431.756 187.437 431.564C187.101 431.364 186.729 431.264 186.321 431.264C185.913 431.264 185.541 431.36 185.205 431.552C184.869 431.744 184.601 432.024 184.401 432.392C184.201 432.76 184.101 433.192 184.101 433.688C184.101 434.192 184.201 434.632 184.401 435.008C184.601 435.376 184.869 435.66 185.205 435.86C185.541 436.052 185.913 436.148 186.321 436.148C186.729 436.148 187.101 436.052 187.437 435.86C187.781 435.66 188.053 435.376 188.253 435.008C188.453 434.632 188.553 434.196 188.553 433.7ZM191.094 433.688C191.094 433.016 191.23 432.428 191.502 431.924C191.774 431.412 192.146 431.016 192.618 430.736C193.098 430.456 193.63 430.316 194.214 430.316C194.79 430.316 195.29 430.44 195.714 430.688C196.138 430.936 196.454 431.248 196.662 431.624V430.424H197.766V437H196.662V435.776C196.446 436.16 196.122 436.48 195.69 436.736C195.266 436.984 194.77 437.108 194.202 437.108C193.618 437.108 193.09 436.964 192.618 436.676C192.146 436.388 191.774 435.984 191.502 435.464C191.23 434.944 191.094 434.352 191.094 433.688ZM196.662 433.7C196.662 433.204 196.562 432.772 196.362 432.404C196.162 432.036 195.89 431.756 195.546 431.564C195.21 431.364 194.838 431.264 194.43 431.264C194.022 431.264 193.65 431.36 193.314 431.552C192.978 431.744 192.71 432.024 192.51 432.392C192.31 432.76 192.21 433.192 192.21 433.688C192.21 434.192 192.31 434.632 192.51 435.008C192.71 435.376 192.978 435.66 193.314 435.86C193.65 436.052 194.022 436.148 194.43 436.148C194.838 436.148 195.21 436.052 195.546 435.86C195.89 435.66 196.162 435.376 196.362 435.008C196.562 434.632 196.662 434.196 196.662 433.7ZM200.176 429.356C199.968 429.356 199.792 429.284 199.648 429.14C199.504 428.996 199.432 428.82 199.432 428.612C199.432 428.404 199.504 428.228 199.648 428.084C199.792 427.94 199.968 427.868 200.176 427.868C200.376 427.868 200.544 427.94 200.68 428.084C200.824 428.228 200.896 428.404 200.896 428.612C200.896 428.82 200.824 428.996 200.68 429.14C200.544 429.284 200.376 429.356 200.176 429.356ZM200.704 430.424V437H199.612V430.424H200.704ZM205.769 430.304C206.569 430.304 207.217 430.548 207.713 431.036C208.209 431.516 208.457 432.212 208.457 433.124V437H207.377V433.28C207.377 432.624 207.213 432.124 206.885 431.78C206.557 431.428 206.109 431.252 205.541 431.252C204.965 431.252 204.505 431.432 204.161 431.792C203.825 432.152 203.657 432.676 203.657 433.364V437H202.565V430.424H203.657V431.36C203.873 431.024 204.165 430.764 204.533 430.58C204.909 430.396 205.321 430.304 205.769 430.304ZM221.348 430.304C221.86 430.304 222.316 430.412 222.716 430.628C223.116 430.836 223.432 431.152 223.664 431.576C223.896 432 224.012 432.516 224.012 433.124V437H222.932V433.28C222.932 432.624 222.768 432.124 222.44 431.78C222.12 431.428 221.684 431.252 221.132 431.252C220.564 431.252 220.112 431.436 219.776 431.804C219.44 432.164 219.272 432.688 219.272 433.376V437H218.192V433.28C218.192 432.624 218.028 432.124 217.7 431.78C217.38 431.428 216.944 431.252 216.392 431.252C215.824 431.252 215.372 431.436 215.036 431.804C214.7 432.164 214.532 432.688 214.532 433.376V437H213.44V430.424H214.532V431.372C214.748 431.028 215.036 430.764 215.396 430.58C215.764 430.396 216.168 430.304 216.608 430.304C217.16 430.304 217.648 430.428 218.072 430.676C218.496 430.924 218.812 431.288 219.02 431.768C219.204 431.304 219.508 430.944 219.932 430.688C220.356 430.432 220.828 430.304 221.348 430.304ZM231.635 430.424V437H230.543V436.028C230.335 436.364 230.043 436.628 229.667 436.82C229.299 437.004 228.891 437.096 228.443 437.096C227.931 437.096 227.471 436.992 227.063 436.784C226.655 436.568 226.331 436.248 226.091 435.824C225.859 435.4 225.743 434.884 225.743 434.276V430.424H226.823V434.132C226.823 434.78 226.987 435.28 227.315 435.632C227.643 435.976 228.091 436.148 228.659 436.148C229.243 436.148 229.703 435.968 230.039 435.608C230.375 435.248 230.543 434.724 230.543 434.036V430.424H231.635ZM235.807 437.108C235.303 437.108 234.851 437.024 234.451 436.856C234.051 436.68 233.735 436.44 233.503 436.136C233.271 435.824 233.143 435.468 233.119 435.068H234.247C234.279 435.396 234.431 435.664 234.703 435.872C234.983 436.08 235.347 436.184 235.795 436.184C236.211 436.184 236.539 436.092 236.779 435.908C237.019 435.724 237.139 435.492 237.139 435.212C237.139 434.924 237.011 434.712 236.755 434.576C236.499 434.432 236.103 434.292 235.567 434.156C235.079 434.028 234.679 433.9 234.367 433.772C234.063 433.636 233.799 433.44 233.575 433.184C233.359 432.92 233.251 432.576 233.251 432.152C233.251 431.816 233.351 431.508 233.551 431.228C233.751 430.948 234.035 430.728 234.403 430.568C234.771 430.4 235.191 430.316 235.663 430.316C236.391 430.316 236.979 430.5 237.427 430.868C237.875 431.236 238.115 431.74 238.147 432.38H237.055C237.031 432.036 236.891 431.76 236.635 431.552C236.387 431.344 236.051 431.24 235.627 431.24C235.235 431.24 234.923 431.324 234.691 431.492C234.459 431.66 234.343 431.88 234.343 432.152C234.343 432.368 234.411 432.548 234.547 432.692C234.691 432.828 234.867 432.94 235.075 433.028C235.291 433.108 235.587 433.2 235.963 433.304C236.435 433.432 236.819 433.56 237.115 433.688C237.411 433.808 237.663 433.992 237.871 434.24C238.087 434.488 238.199 434.812 238.207 435.212C238.207 435.572 238.107 435.896 237.907 436.184C237.707 436.472 237.423 436.7 237.055 436.868C236.695 437.028 236.279 437.108 235.807 437.108ZM239.34 433.7C239.34 433.02 239.476 432.428 239.748 431.924C240.02 431.412 240.396 431.016 240.876 430.736C241.364 430.456 241.92 430.316 242.544 430.316C243.352 430.316 244.016 430.512 244.536 430.904C245.064 431.296 245.412 431.84 245.58 432.536H244.404C244.292 432.136 244.072 431.82 243.744 431.588C243.424 431.356 243.024 431.24 242.544 431.24C241.92 431.24 241.416 431.456 241.032 431.888C240.648 432.312 240.456 432.916 240.456 433.7C240.456 434.492 240.648 435.104 241.032 435.536C241.416 435.968 241.92 436.184 242.544 436.184C243.024 436.184 243.424 436.072 243.744 435.848C244.064 435.624 244.284 435.304 244.404 434.888H245.58C245.404 435.56 245.052 436.1 244.524 436.508C243.996 436.908 243.336 437.108 242.544 437.108C241.92 437.108 241.364 436.968 240.876 436.688C240.396 436.408 240.02 436.012 239.748 435.5C239.476 434.988 239.34 434.388 239.34 433.7ZM248.129 428.12V437H247.037V428.12H248.129ZM255.99 433.46C255.99 433.668 255.978 433.888 255.954 434.12H250.698C250.738 434.768 250.958 435.276 251.358 435.644C251.766 436.004 252.258 436.184 252.834 436.184C253.306 436.184 253.698 436.076 254.01 435.86C254.33 435.636 254.554 435.34 254.682 434.972H255.858C255.682 435.604 255.33 436.12 254.802 436.52C254.274 436.912 253.618 437.108 252.834 437.108C252.21 437.108 251.65 436.968 251.154 436.688C250.666 436.408 250.282 436.012 250.002 435.5C249.722 434.98 249.582 434.38 249.582 433.7C249.582 433.02 249.718 432.424 249.99 431.912C250.262 431.4 250.642 431.008 251.13 430.736C251.626 430.456 252.194 430.316 252.834 430.316C253.458 430.316 254.01 430.452 254.49 430.724C254.97 430.996 255.338 431.372 255.594 431.852C255.858 432.324 255.99 432.86 255.99 433.46ZM254.862 433.232C254.862 432.816 254.77 432.46 254.586 432.164C254.402 431.86 254.15 431.632 253.83 431.48C253.518 431.32 253.17 431.24 252.786 431.24C252.234 431.24 251.762 431.416 251.37 431.768C250.986 432.12 250.766 432.608 250.71 433.232H254.862ZM151.826 448.304C152.338 448.304 152.794 448.412 153.194 448.628C153.594 448.836 153.91 449.152 154.142 449.576C154.374 450 154.49 450.516 154.49 451.124V455H153.41V451.28C153.41 450.624 153.246 450.124 152.918 449.78C152.598 449.428 152.162 449.252 151.61 449.252C151.042 449.252 150.59 449.436 150.254 449.804C149.918 450.164 149.75 450.688 149.75 451.376V455H148.67V451.28C148.67 450.624 148.506 450.124 148.178 449.78C147.858 449.428 147.422 449.252 146.87 449.252C146.302 449.252 145.85 449.436 145.514 449.804C145.178 450.164 145.01 450.688 145.01 451.376V455H143.918V448.424H145.01V449.372C145.226 449.028 145.514 448.764 145.874 448.58C146.242 448.396 146.646 448.304 147.086 448.304C147.638 448.304 148.126 448.428 148.55 448.676C148.974 448.924 149.29 449.288 149.498 449.768C149.682 449.304 149.986 448.944 150.41 448.688C150.834 448.432 151.306 448.304 151.826 448.304ZM155.873 451.688C155.873 451.016 156.009 450.428 156.281 449.924C156.553 449.412 156.925 449.016 157.397 448.736C157.877 448.456 158.409 448.316 158.993 448.316C159.569 448.316 160.069 448.44 160.493 448.688C160.917 448.936 161.233 449.248 161.441 449.624V448.424H162.545V455H161.441V453.776C161.225 454.16 160.901 454.48 160.469 454.736C160.045 454.984 159.549 455.108 158.981 455.108C158.397 455.108 157.869 454.964 157.397 454.676C156.925 454.388 156.553 453.984 156.281 453.464C156.009 452.944 155.873 452.352 155.873 451.688ZM161.441 451.7C161.441 451.204 161.341 450.772 161.141 450.404C160.941 450.036 160.669 449.756 160.325 449.564C159.989 449.364 159.617 449.264 159.209 449.264C158.801 449.264 158.429 449.36 158.093 449.552C157.757 449.744 157.489 450.024 157.289 450.392C157.089 450.76 156.989 451.192 156.989 451.688C156.989 452.192 157.089 452.632 157.289 453.008C157.489 453.376 157.757 453.66 158.093 453.86C158.429 454.052 158.801 454.148 159.209 454.148C159.617 454.148 159.989 454.052 160.325 453.86C160.669 453.66 160.941 453.376 161.141 453.008C161.341 452.632 161.441 452.196 161.441 451.7ZM166.719 455.108C166.215 455.108 165.763 455.024 165.363 454.856C164.963 454.68 164.647 454.44 164.415 454.136C164.183 453.824 164.055 453.468 164.031 453.068H165.159C165.191 453.396 165.343 453.664 165.615 453.872C165.895 454.08 166.259 454.184 166.707 454.184C167.123 454.184 167.451 454.092 167.691 453.908C167.931 453.724 168.051 453.492 168.051 453.212C168.051 452.924 167.923 452.712 167.667 452.576C167.411 452.432 167.015 452.292 166.479 452.156C165.991 452.028 165.591 451.9 165.279 451.772C164.975 451.636 164.711 451.44 164.487 451.184C164.271 450.92 164.163 450.576 164.163 450.152C164.163 449.816 164.263 449.508 164.463 449.228C164.663 448.948 164.947 448.728 165.315 448.568C165.683 448.4 166.103 448.316 166.575 448.316C167.303 448.316 167.891 448.5 168.339 448.868C168.787 449.236 169.027 449.74 169.059 450.38H167.967C167.943 450.036 167.803 449.76 167.547 449.552C167.299 449.344 166.963 449.24 166.539 449.24C166.147 449.24 165.835 449.324 165.603 449.492C165.371 449.66 165.255 449.88 165.255 450.152C165.255 450.368 165.323 450.548 165.459 450.692C165.603 450.828 165.779 450.94 165.987 451.028C166.203 451.108 166.499 451.2 166.875 451.304C167.347 451.432 167.731 451.56 168.027 451.688C168.323 451.808 168.575 451.992 168.783 452.24C168.999 452.488 169.111 452.812 169.119 453.212C169.119 453.572 169.019 453.896 168.819 454.184C168.619 454.472 168.335 454.7 167.967 454.868C167.607 455.028 167.191 455.108 166.719 455.108ZM172.988 455.108C172.484 455.108 172.032 455.024 171.632 454.856C171.232 454.68 170.916 454.44 170.684 454.136C170.452 453.824 170.324 453.468 170.3 453.068H171.428C171.46 453.396 171.612 453.664 171.884 453.872C172.164 454.08 172.528 454.184 172.976 454.184C173.392 454.184 173.72 454.092 173.96 453.908C174.2 453.724 174.32 453.492 174.32 453.212C174.32 452.924 174.192 452.712 173.936 452.576C173.68 452.432 173.284 452.292 172.748 452.156C172.26 452.028 171.86 451.9 171.548 451.772C171.244 451.636 170.98 451.44 170.756 451.184C170.54 450.92 170.432 450.576 170.432 450.152C170.432 449.816 170.532 449.508 170.732 449.228C170.932 448.948 171.216 448.728 171.584 448.568C171.952 448.4 172.372 448.316 172.844 448.316C173.572 448.316 174.16 448.5 174.608 448.868C175.056 449.236 175.296 449.74 175.328 450.38H174.236C174.212 450.036 174.072 449.76 173.816 449.552C173.568 449.344 173.232 449.24 172.808 449.24C172.416 449.24 172.104 449.324 171.872 449.492C171.64 449.66 171.524 449.88 171.524 450.152C171.524 450.368 171.592 450.548 171.728 450.692C171.872 450.828 172.048 450.94 172.256 451.028C172.472 451.108 172.768 451.2 173.144 451.304C173.616 451.432 174 451.56 174.296 451.688C174.592 451.808 174.844 451.992 175.052 452.24C175.268 452.488 175.38 452.812 175.388 453.212C175.388 453.572 175.288 453.896 175.088 454.184C174.888 454.472 174.604 454.7 174.236 454.868C173.876 455.028 173.46 455.108 172.988 455.108Z" fill="white"/>
<line x1="135.5" y1="385.5" x2="184.5" y2="385.5" stroke="#F7F8F8" stroke-linecap="round" stroke-linejoin="round"/>
<path d="M273.217 267.273C273.028 270.812 272.379 278.081 267.489 278.081H267.245C266.636 278.025 266.041 277.86 265.489 277.594C265.235 277.48 264.991 277.345 264.76 277.189C263.617 276.255 262.731 275.046 262.182 273.675C261.634 272.305 261.443 270.818 261.625 269.353C261.654 268.445 261.563 267.536 261.355 266.651C261.276 266.23 261.167 265.815 261.031 265.409C261.019 265.328 261.019 265.246 261.031 265.165C260.815 264.679 260.626 264.301 260.436 263.949C260.326 263.733 260.2 263.525 260.058 263.328C260.077 263.276 260.077 263.218 260.058 263.166C259.984 263.038 259.893 262.92 259.788 262.815C259.5 262.424 259.174 262.062 258.815 261.734L258.653 261.572C258.248 261.22 257.87 260.869 257.491 260.572C256.059 259.356 254.789 258.519 254.952 256.978C255.168 253.358 257.653 248.683 261.085 249.71C261.085 249.71 261.95 245.387 259.572 244.306C258.059 243.55 259.572 243.144 260.49 243.063C262.058 242.928 263.625 243.55 265.3 243.415C265.404 243.319 265.512 243.229 265.624 243.144C266.287 243.05 266.961 243.05 267.624 243.144H267.786C268.505 243.299 269.175 243.625 269.74 244.096C270.305 244.566 270.747 245.167 271.028 245.846C271.495 247.221 271.733 248.663 271.731 250.115C272.001 255.979 273.541 261.356 273.217 267.273Z" fill="#3B2645"/>
<path d="M263.138 259.356C262.922 259.923 262.463 260.167 261.976 260.491C261.415 260.885 260.882 261.318 260.382 261.788C260.099 262.084 259.837 262.4 259.599 262.734C259.31 262.343 258.985 261.981 258.626 261.653L258.464 261.491C258.647 261.236 258.846 260.992 259.058 260.761C259.869 259.869 261.463 258.221 262.76 258.627C262.905 258.676 263.025 258.78 263.095 258.915C263.166 259.051 263.181 259.209 263.138 259.356Z" fill="#E8CEE5"/>
<path d="M264.381 262.49C263.322 263.494 262.173 264.398 260.95 265.192C260.733 264.706 260.544 264.328 260.355 263.976C261.286 262.862 262.576 262.108 264.003 261.842C264.076 261.848 264.147 261.872 264.209 261.911C264.271 261.951 264.323 262.005 264.36 262.068C264.397 262.132 264.418 262.203 264.422 262.277C264.426 262.35 264.412 262.423 264.381 262.49Z" fill="#E8CEE5"/>
<path d="M273.216 267.273C273.027 270.812 272.379 278.081 267.488 278.081H267.245C266.635 278.025 266.04 277.86 265.489 277.594C272.703 274.892 271.109 265.381 270.433 258.681C270.369 253.406 269.522 248.17 267.92 243.144C268.616 243.314 269.262 243.648 269.802 244.118C270.343 244.588 270.763 245.18 271.028 245.846C271.495 247.221 271.732 248.663 271.73 250.115C272 255.979 273.54 261.355 273.216 267.273Z" fill="#E8CEE5"/>
<path d="M127.825 123.691C127.825 123.691 127.095 126.906 125.879 131.797C123.375 142.223 120.069 152.44 115.99 162.356C114.876 164.992 113.452 167.486 111.748 169.786C104.156 179.405 73.6234 157.384 69.7326 154.52C69.476 154.323 69.1646 154.209 68.841 154.196C66.6794 154.196 58.0332 153.737 58.2223 147.765C58.3844 141.254 62.8697 133.067 72.6777 142.361C78.7301 148.063 100.103 155.142 100.103 155.142L107.047 110.127C107.134 109.573 107.371 109.053 107.733 108.624C108.094 108.194 108.566 107.872 109.097 107.691C109.628 107.51 110.199 107.478 110.747 107.598C111.295 107.718 111.8 107.985 112.207 108.371C116.017 111.91 121.907 117.612 127.825 123.691Z" fill="#FFEDE5"/>
<path d="M125.852 131.689C123.362 142.151 120.064 152.404 115.989 162.356C115.854 149.387 115.557 131.527 115.557 131.527C117.157 130.716 118.931 130.307 120.724 130.336C122.518 130.364 124.278 130.828 125.852 131.689Z" fill="#86543D"/>
<path d="M150.196 202.75C144.549 206.749 138.254 210.613 131.985 214.423C128.986 216.233 126.122 218.043 123.42 219.827C115.458 225.114 107.791 230.833 100.453 236.957C103.615 240.74 106.911 249.44 109.883 259.329C115.855 279.215 120.691 303.992 120.691 303.992C115.287 308.937 110.721 306.694 110.721 306.694C106.479 298.588 97.3462 281.053 89.6457 264.922C82.4314 249.926 76.4871 235.957 77.0816 231.526C77.676 227.095 89.3484 214.288 101.399 201.967C114.909 188.457 128.743 175.433 128.743 175.433C133.927 169.878 139.802 165.011 146.225 160.951C152.682 157.141 159.734 154.953 165.138 158.519C167.892 160.46 169.963 163.221 171.056 166.409C171.255 166.876 171.426 167.354 171.569 167.841C175.703 180.999 165.003 192.348 150.196 202.75Z" fill="#FFEDE5"/>
<path d="M259.599 256.33C244.738 257.032 229.31 258.735 216.8 259.707C205.992 260.572 197.454 260.95 193.347 259.707C185.241 257.384 172.299 238.416 163.625 224.582C158.519 216.314 154.844 209.856 154.844 209.856C154.844 209.856 152.71 207.154 150.116 202.75C143.28 191.321 133.31 169.462 152.818 163.545C161.194 161.005 166.868 162.896 171.38 167.841C177.432 174.461 181.404 186.538 187.051 200.994L202.588 239.605C207.162 238.649 211.831 238.223 216.503 238.335C231.342 238.91 246.092 240.919 260.545 244.333C265.192 250.115 259.599 256.33 259.599 256.33Z" fill="#FFEDE5"/>
<path d="M122.177 81.4594C127.878 79.8923 133.552 78.2171 139.173 76.3798C142.469 75.299 146.09 75.2449 147.278 71.4352C147.729 69.8582 147.815 68.1993 147.529 66.5843C147.244 64.9692 146.594 63.4403 145.63 62.1134C143.753 59.7522 141.119 58.1108 138.173 57.4661C135.242 56.8446 132.214 56.8446 129.283 57.4661C127.169 57.7334 125.135 58.4445 123.314 59.5527C121.493 60.6609 119.927 62.1412 118.719 63.8967C117.426 66.4771 116.919 69.3799 117.26 72.2458C117.487 74.7586 118.342 77.174 119.746 79.2708C119.935 79.5681 121.205 82.1619 121.853 81.9728C122.042 81.8647 122.15 81.4864 122.177 81.4594Z" fill="#3B2645"/>
<path d="M120.664 76.9471C120.325 76.6438 119.919 76.4247 119.48 76.3078C119.04 76.1908 118.579 76.1792 118.134 76.274C117.689 76.3688 117.273 76.5673 116.919 76.8532C116.565 77.1392 116.284 77.5047 116.098 77.9199C114.396 81.1622 119.421 85.5934 122.421 85.1881C122.009 82.4069 121.423 79.6544 120.664 76.9471Z" fill="#86543D"/>
<path d="M170.11 99.6977C168.433 108.694 167.484 117.811 167.273 126.96C167.273 127.852 167.273 128.636 167.273 129.419C167.624 135.066 170.515 161.681 171.056 165.869C171.056 166.22 171.056 166.409 171.056 166.409C152.871 175.866 131.85 175.46 129.175 175.433H128.878C128.782 175.049 128.664 174.67 128.527 174.299C126.906 169.408 120.637 149.279 115.585 131.527C115.585 131.257 115.422 131.013 115.341 130.716C112.639 121.584 108.83 114.504 107.803 109.29C107.425 107.317 113.639 105.048 116.665 103.886C117.098 103.697 117.557 103.561 118.043 103.399C120.421 102.562 122.88 101.859 124.852 101.346L128.932 100.4L127.662 89.5924H128.743C129.422 89.5633 130.099 89.4911 130.77 89.3762C131.601 89.2407 132.422 89.0511 133.228 88.8088L134.363 88.4576L135.849 87.8361C136.641 87.5034 137.409 87.1152 138.146 86.6743C138.312 86.6022 138.475 86.5211 138.632 86.4311C138.657 86.4453 138.685 86.4528 138.713 86.4528C138.742 86.4528 138.77 86.4453 138.794 86.4311L139.308 86.1069C140.215 85.5106 141.065 84.8322 141.848 84.0804C142.28 83.6751 142.658 83.3239 142.955 82.9996L143.144 82.7835C143.286 82.6541 143.413 82.5091 143.523 82.3511C143.627 82.2557 143.718 82.1467 143.793 82.0269V82.2701C143.793 82.4322 143.793 82.5943 143.793 82.7835C143.793 84.5668 144.171 86.8094 144.549 89.052C144.766 90.5921 145.009 92.1052 145.252 93.4292C145.684 95.6988 146.036 97.347 146.036 97.347C146.525 97.2285 147.021 97.1383 147.522 97.0768H147.684H148.494C150.401 96.7935 152.323 96.622 154.249 96.5634C155.06 96.5634 155.844 96.5634 156.6 96.5634C160.877 96.6302 165.12 97.3314 169.191 98.6439C169.438 98.6961 169.661 98.8271 169.827 99.0172C169.993 99.2073 170.092 99.4461 170.11 99.6977Z" fill="#FFEDE5"/>
<path d="M144.036 81.9188C144.089 83.8936 143.703 85.8555 142.905 87.6629C142.108 89.4704 140.919 91.0784 139.425 92.3708C137.931 93.6633 136.169 94.6079 134.266 95.1367C132.362 95.6655 130.365 95.7652 128.418 95.4285L127.77 89.8355C130.892 89.7692 133.963 89.0272 136.771 87.6605C139.579 86.2939 142.057 84.335 144.036 81.9188Z" fill="#86543D"/>
<path d="M119.503 68.8954C118.314 70.8137 118.962 74.2993 119.665 78.3252C121.826 90.2948 126.149 93.24 132.364 92.5915C138.578 91.943 144.415 88.2684 143.361 76.9742C142.847 71.3271 142.469 66.1664 139.956 64.1399C136.201 61.2218 123.123 63.0591 119.503 68.8954Z" fill="#FFEDE5"/>
<path d="M142.199 75.6232C142.199 75.6232 142.982 70.2193 146.468 72.2728C149.953 74.3263 147.495 82.5672 142.901 83.0806C142.901 82.9185 141.118 77.5416 142.199 75.6232Z" fill="#FFEDE5"/>
<path d="M124.825 76.9201C124.825 76.9201 123.879 77.5416 123.636 75.6772C123.393 73.8129 124.203 74.0831 124.203 74.0831C124.203 74.0831 124.906 73.921 125.122 75.38C125.338 76.8391 124.825 76.9201 124.825 76.9201Z" fill="#3B2645"/>
<path d="M135.228 74.7046C135.228 74.7046 134.282 75.299 134.039 73.4617C133.796 71.6243 134.606 71.8675 134.606 71.8675C134.606 71.8675 135.309 71.7054 135.525 73.1644C135.741 74.6235 135.228 74.7046 135.228 74.7046Z" fill="#3B2645"/>
<path d="M130.526 80.7839C130.013 80.7839 128.878 81.3783 128.5 80.7839C128.337 79.5011 128.337 78.2029 128.5 76.9201C128.644 75.2039 128.689 73.4808 128.635 71.7594C128.635 71.7594 128.473 71.7594 128.446 71.7594C127.977 74.9162 127.769 78.1063 127.824 81.2973C127.817 81.3395 127.821 81.3829 127.835 81.4231C127.85 81.4633 127.875 81.4989 127.908 81.5264C127.941 81.5538 127.981 81.572 128.023 81.5793C128.065 81.5865 128.108 81.5824 128.149 81.5675C128.905 81.4054 129.689 81.4054 130.445 81.2432C130.797 81.1892 130.797 80.7569 130.526 80.7839Z" fill="#86543D"/>
<path d="M124.771 71.165C123.933 70.9488 122.555 71.165 122.069 72.0296C122.05 72.0685 122.043 72.1122 122.049 72.155C122.055 72.1978 122.074 72.2379 122.103 72.2699C122.132 72.3019 122.17 72.3244 122.212 72.3346C122.254 72.3447 122.298 72.342 122.339 72.3268C122.69 72.3268 122.987 71.9756 123.339 71.8675C123.731 71.7867 124.135 71.7867 124.528 71.8675C124.621 71.8998 124.723 71.8937 124.812 71.8506C124.9 71.8075 124.968 71.731 125 71.6378C125.033 71.5447 125.027 71.4425 124.984 71.3539C124.94 71.2652 124.864 71.1972 124.771 71.165Z" fill="#3B2645"/>
<path d="M135.768 69.7599C135.555 69.5593 135.304 69.4034 135.03 69.3013C134.756 69.1993 134.465 69.1532 134.172 69.1658C133.88 69.1784 133.593 69.2494 133.329 69.3746C133.065 69.4999 132.828 69.6769 132.634 69.895C132.606 69.9416 132.591 69.9943 132.589 70.0483C132.587 70.1023 132.599 70.1559 132.623 70.2042C132.647 70.2525 132.683 70.2941 132.728 70.325C132.772 70.3559 132.823 70.3753 132.877 70.3814C133.353 70.3213 133.823 70.2219 134.282 70.0842C134.676 70.0294 135.076 70.0294 135.471 70.0842C135.687 70.2193 135.93 69.9491 135.768 69.7599Z" fill="#3B2645"/>
<path d="M133.796 82.7023C132.634 83.2968 132.013 84.1884 130.635 84.4316C129.961 84.6079 129.254 84.6079 128.581 84.4316C128.203 84.4316 128.203 84.2425 127.825 84.2695C127.797 84.2723 127.77 84.2812 127.746 84.2956C127.722 84.31 127.702 84.3295 127.686 84.3527C127.671 84.376 127.66 84.4024 127.656 84.43C127.652 84.4577 127.654 84.4859 127.662 84.5126C127.987 85.6745 129.824 85.4853 130.716 85.3503C131.42 85.2737 132.096 85.0271 132.684 84.6318C133.272 84.2364 133.756 83.7041 134.093 83.0806C134.174 82.8645 133.985 82.6213 133.796 82.7023Z" fill="#86543D"/>
<path d="M191.32 211.315C190.509 211.91 189.753 212.477 188.969 212.991C188.186 213.504 187.726 213.855 187.105 214.26C180.017 219.166 172.057 222.669 163.652 224.582C158.518 216.314 154.844 209.856 154.844 209.856C154.844 209.856 152.709 207.154 150.115 202.75C144.468 206.749 138.173 210.613 131.904 214.423C128.905 216.233 126.041 218.043 123.339 219.826C120.772 218.286 118.448 216.746 116.341 215.26C110.816 211.492 105.803 207.023 101.426 201.967C114.936 188.457 128.77 175.433 128.77 175.433C133.954 169.878 139.829 165.011 146.251 160.951C152.331 158.89 158.762 158.063 165.165 158.519C167.909 160.464 169.97 163.225 171.055 166.409C171.255 166.876 171.426 167.354 171.569 167.841C177.621 174.461 181.593 186.538 187.24 200.994C188.672 204.614 189.969 208.019 191.32 211.315Z" fill="#FF8A00"/>
<path d="M120.637 303.992C115.234 308.937 110.667 306.694 110.667 306.694C106.425 298.588 97.2926 281.053 89.592 264.922C96.5393 263.815 103.344 261.949 109.884 259.356C115.855 279.215 120.637 303.992 120.637 303.992Z" fill="#E8CEE5"/>
<path d="M123.474 307.613C123.515 307.863 123.515 308.119 123.474 308.369C123.285 309.561 122.659 310.64 121.718 311.396C120.537 312.252 119.235 312.926 117.854 313.395C112.45 315.584 107.83 318.799 102.102 320.231C98.6974 321.123 91.6453 322.744 90.0782 318.097C90.0726 318.016 90.0726 317.934 90.0782 317.853C90.0146 317.378 90.0146 316.897 90.0782 316.421C90.1057 316.02 90.169 315.622 90.2673 315.232C90.7807 313.449 92.3748 311.234 96.752 309.829C97.6228 309.562 98.4576 309.19 99.2378 308.721C99.6027 308.518 99.9546 308.292 100.292 308.045L100.508 307.856C100.908 307.539 101.279 307.186 101.616 306.802L101.967 306.397L102.102 306.235L102.48 305.641C102.695 305.313 102.885 304.97 103.048 304.614C103.345 303.992 103.561 303.479 103.75 303.02C104.426 301.29 104.885 299.885 106.452 299.507C109.965 298.588 115.152 299.507 115.287 303.074C115.287 303.074 119.665 302.56 120.016 299.939C120.259 298.264 121.151 299.561 121.502 300.426C122.096 301.885 122.015 303.56 122.664 305.073C122.664 305.289 122.853 305.451 122.934 305.668C123.258 306.258 123.486 306.897 123.609 307.559C123.568 307.584 123.522 307.602 123.474 307.613Z" fill="#3B2645"/>
<path d="M259.599 256.33C244.738 257.032 229.31 258.735 216.8 259.707C217.705 255.265 218.041 250.725 217.8 246.198C217.761 243.512 217.38 240.843 216.665 238.254C231.504 238.829 246.254 240.837 260.707 244.252C265.192 250.115 259.599 256.33 259.599 256.33Z" fill="#E8CEE5"/>
<path d="M104.263 312.017C103.074 310.774 101.994 309.45 100.751 308.234L100.345 307.856C100.746 307.539 101.117 307.186 101.453 306.802C101.615 306.964 101.75 307.127 101.913 307.262C103.155 308.418 104.269 309.704 105.236 311.098C105.641 311.72 104.804 312.585 104.263 312.017Z" fill="#E8CEE5"/>
<path d="M107.425 308.424C107.466 308.528 107.476 308.643 107.452 308.753C107.429 308.864 107.373 308.964 107.292 309.043C107.21 309.121 107.108 309.173 106.997 309.193C106.886 309.213 106.771 309.199 106.668 309.153C105.47 308.358 104.349 307.453 103.318 306.451C103.001 306.178 102.667 305.925 102.318 305.695C102.533 305.367 102.723 305.024 102.885 304.668C103.286 304.825 103.66 305.043 103.993 305.316C105.401 306.016 106.589 307.092 107.425 308.424Z" fill="#E8CEE5"/>
<path d="M123.447 308.37C123.258 309.561 122.632 310.64 121.691 311.396C120.511 312.252 119.208 312.926 117.827 313.395C112.423 315.584 107.803 318.799 102.075 320.231C98.6705 321.123 91.6184 322.744 90.0513 318.097C90.0458 318.016 90.0458 317.934 90.0513 317.853C89.9878 317.378 89.9878 316.897 90.0513 316.421C96.8332 320.988 103.345 316.827 110.235 314.611C115.261 312.963 120.34 311.99 123.447 308.37Z" fill="#E8CEE5"/>
<path d="M188.97 212.991C188.348 213.45 187.727 213.855 187.105 214.26C180.513 198.4 174.541 182.08 165.787 167.49C165.328 166.733 166.381 165.923 166.922 166.679C172.326 174.109 175.649 183.296 179.459 191.645C182.701 198.616 185.997 205.776 188.97 212.991Z" fill="#E8CEE5"/>
<path d="M150.197 202.75C144.549 206.749 138.254 210.613 131.985 214.423C128.986 216.233 126.122 218.043 123.42 219.826C120.853 218.286 118.53 216.746 116.422 215.26C135.768 204.236 149.818 202.777 150.197 202.75Z" fill="#826B80"/>
<path d="M171.055 166.409C152.871 175.866 131.85 175.514 129.175 175.433H128.878L128.527 174.38C126.905 169.489 120.637 149.36 115.584 131.608C118.286 122.529 118.286 108.452 118.043 103.561C120.421 102.724 122.88 102.021 124.852 101.508C124.987 106.263 126.257 118.125 135.39 118.449C146.197 118.827 148.278 103.534 148.656 96.8335C150.563 96.5502 152.485 96.3788 154.411 96.3202C155.222 96.3202 156.005 96.3202 156.762 96.3202C156.198 100.819 156.353 105.38 157.221 109.83C158.656 117.26 162.159 124.134 167.327 129.662C167.489 132.526 168.272 140.632 169.083 148.576C169.894 156.52 171.055 166.409 171.055 166.409Z" fill="#3B2645"/>
<path d="M167.353 129.662C167.353 132.364 168.272 140.47 169.083 148.576C161.075 137.307 156.906 123.76 157.194 109.938C158.656 117.333 162.167 124.167 167.326 129.662H167.353Z" fill="#291B30"/>
<path d="M75.704 145.496C74.6502 149.306 72.7588 152.737 71.624 156.466C71.0296 158.411 73.7856 159.168 74.8934 157.979C77.5691 154.546 79.4182 150.542 80.2973 146.279C80.9728 143.442 76.4875 142.686 75.704 145.496Z" fill="#FF8A00"/>
<path d="M123.366 95.6988C124.014 96.5904 124.69 97.401 125.365 98.2386C125.623 98.5263 125.858 98.8335 126.068 99.1573C130.175 104.885 130.877 111.478 132.931 117.828L133.66 116.693C133.066 114.207 132.553 111.721 131.877 109.29C132.508 105.505 134.057 101.933 136.389 98.8871C138.215 97.0796 139.87 95.1078 141.334 92.9968C142.553 90.7274 143.263 88.2194 143.414 85.6475C143.47 83.1428 143.954 80.6662 144.847 78.3252C144.946 78.1288 145.019 77.9198 145.063 77.7038C145.071 77.4258 145.012 77.15 144.89 76.9004C144.767 76.6507 144.585 76.4349 144.36 76.2717C144.191 76.1279 143.985 76.0344 143.766 76.0015C143.652 75.9882 143.537 76.0094 143.436 76.0624C143.335 76.1154 143.252 76.1978 143.198 76.2987C143.171 76.4415 143.171 76.5883 143.198 76.7311C143.257 78.3122 143.166 79.8953 142.928 81.4595C142.766 83.1077 142.685 84.7829 142.496 86.4581C142.029 90.301 140.243 93.8629 137.443 96.5364C134.251 99.6158 132.162 103.661 131.499 108.047C130.862 105.776 129.955 103.589 128.797 101.535C127.203 98.833 125.041 96.4553 123.393 93.8074C122.199 91.963 121.365 89.9094 120.934 87.755C120.636 86.7645 120.481 85.7363 120.475 84.7018C120.475 83.6751 120.961 81.6216 120.313 80.757C119.313 79.406 118.935 80.9731 119.07 81.9188C119.394 83.9723 119.367 86.0528 119.799 88.0793C120.391 90.5336 121.426 92.8594 122.853 94.9422L123.366 95.6988Z" fill="#FF8A00"/>
<path d="M145.576 147.9C143.901 149.846 144.225 153.304 144.279 155.574C144.545 157.553 144.662 159.549 144.63 161.545C144.618 162.408 144.415 163.257 144.037 164.032C143.659 164.808 143.114 165.49 142.442 166.031C141.915 166.273 141.346 166.41 140.766 166.436C140.259 166.544 139.734 166.544 139.226 166.436C138.503 166.132 137.884 165.625 137.443 164.977C135.552 162.599 135.93 160.492 135.795 157.655C135.781 156.449 135.517 155.26 135.019 154.163C134.521 153.065 133.801 152.083 132.904 151.278C127.959 146.09 130.553 141.659 132.039 135.85C133.957 128.338 134.741 118.692 131.445 111.532C132.142 116.194 132.53 120.896 132.606 125.609C132.2 130.713 131.175 135.749 129.553 140.605C128.991 141.958 128.702 143.409 128.702 144.874C128.702 146.339 128.991 147.79 129.553 149.143C130.154 150.141 130.89 151.051 131.742 151.845C134.444 154.547 134.444 157.087 134.741 160.789C135.038 164.49 138.983 169.759 143.333 166.652C144.167 165.908 144.811 164.975 145.21 163.932C145.61 162.888 145.754 161.764 145.63 160.654C145.63 158.708 145.225 156.79 145.117 154.844C144.945 153.204 145.018 151.546 145.333 149.927C145.415 149.604 145.563 149.3 145.765 149.035C146.178 148.587 146.73 148.292 147.332 148.198C147.638 148.063 147.972 148.008 148.305 148.036C148.733 148.083 149.133 148.273 149.44 148.576C150.19 149.46 150.8 150.453 151.25 151.521C151.25 151.764 151.439 152.278 151.709 152.386C151.979 152.494 152.412 152.251 152.331 151.899C151.655 149.197 148.737 144.28 145.576 147.9Z" fill="#FF8A00"/>
<path d="M156.076 149.199L149.982 152.175C148.534 152.883 147.933 154.63 148.641 156.078L156.075 171.301C156.782 172.749 158.53 173.35 159.978 172.642L166.072 169.666C167.52 168.959 168.121 167.212 167.413 165.763L159.979 150.541C159.272 149.093 157.524 148.492 156.076 149.199Z" fill="#E8CEE5"/>
<path d="M168.111 98.4277C168.536 98.3385 168.977 98.3533 169.396 98.4709C169.814 98.5885 170.198 98.8054 170.515 99.1032C175.919 104.21 201.777 129.77 204.074 140.902C206.478 152.548 171.191 161.491 166.652 162.518C166.343 162.587 166.067 162.759 165.868 163.004C164.517 164.572 158.843 170.651 154.493 166.868C150.143 163.085 146.387 154.277 159.437 152.737C167.408 151.791 185.943 140.335 185.943 140.335L163.679 123.286C163.679 123.286 156.438 100.995 168.111 98.4277Z" fill="#FFEDE5"/>
<path d="M196.859 239.659C186.24 239.037 175.487 239.659 164.868 239.659C154.249 239.659 143.469 239.254 132.877 240.01C132.829 240.027 132.788 240.058 132.759 240.099C132.729 240.14 132.714 240.189 132.714 240.24C132.714 240.29 132.729 240.339 132.759 240.381C132.788 240.422 132.829 240.453 132.877 240.469C143.469 241.226 154.249 240.767 164.868 240.794C175.487 240.821 186.24 241.388 196.859 240.794C197.01 240.794 197.154 240.734 197.26 240.627C197.367 240.521 197.427 240.377 197.427 240.226C197.427 240.076 197.367 239.931 197.26 239.825C197.154 239.719 197.01 239.659 196.859 239.659Z" fill="#F7F8F8"/>
<path d="M273.433 196.833C261.679 196.211 249.818 196.644 238.064 196.644C226.311 196.644 214.368 195.914 202.695 196.968C202.581 196.968 202.471 197.013 202.39 197.095C202.309 197.176 202.263 197.286 202.263 197.4C202.263 197.515 202.309 197.625 202.39 197.706C202.471 197.787 202.581 197.833 202.695 197.833C214.368 198.859 226.365 198.103 238.064 198.13C249.764 198.157 261.679 198.562 273.433 197.968C273.583 197.968 273.727 197.908 273.834 197.801C273.94 197.695 274 197.551 274 197.4C274 197.25 273.94 197.105 273.834 196.999C273.727 196.893 273.583 196.833 273.433 196.833Z" fill="#F7F8F8"/>
<path d="M93.2393 181.567C85.2686 181.08 77.1627 181.432 69.1649 181.567C61.1305 181.233 53.0835 181.359 45.0635 181.945C44.999 181.945 44.9371 181.971 44.8915 182.016C44.8459 182.062 44.8203 182.124 44.8203 182.188C44.8203 182.253 44.8459 182.315 44.8915 182.36C44.9371 182.406 44.999 182.431 45.0635 182.431C53.0841 183.004 61.1303 183.13 69.1649 182.81C77.2708 182.81 85.3766 183.161 93.2393 182.81C93.4041 182.81 93.5622 182.744 93.6788 182.628C93.7953 182.511 93.8608 182.353 93.8608 182.188C93.8608 182.023 93.7953 181.865 93.6788 181.749C93.5622 181.632 93.4041 181.567 93.2393 181.567Z" fill="#F7F8F8"/>
<path d="M101.345 187.484C92.7918 186.7 84.1801 186.809 75.6494 187.808C75.6494 187.808 75.6494 188.051 75.6494 188.079C84.1819 189.056 92.7922 189.155 101.345 188.376C101.445 188.351 101.533 188.294 101.596 188.213C101.659 188.132 101.694 188.032 101.694 187.93C101.694 187.827 101.659 187.728 101.596 187.647C101.533 187.566 101.445 187.509 101.345 187.484Z" fill="#F7F8F8"/>
<path d="M242.333 81.0271C231.201 80.4056 219.934 80.8379 208.775 80.865C197.616 80.892 186.348 80.4867 175.216 81.2703C175.13 81.2703 175.048 81.3044 174.987 81.3652C174.926 81.426 174.892 81.5085 174.892 81.5945C174.892 81.6805 174.926 81.763 174.987 81.8238C175.048 81.8846 175.13 81.9187 175.216 81.9187C186.348 82.7023 197.643 82.324 208.775 82.351C219.907 82.3781 231.201 82.8104 242.333 82.1889C242.466 82.1601 242.584 82.0868 242.67 81.9811C242.755 81.8754 242.801 81.7438 242.801 81.608C242.801 81.4722 242.755 81.3406 242.67 81.2349C242.584 81.1292 242.466 81.0559 242.333 81.0271Z" fill="#F7F8F8"/>
<defs>
<filter id="filter0_d_265_1753" x="0" y="0" width="319" height="522" filterUnits="userSpaceOnUse" color-interpolation-filters="sRGB">
<feFlood flood-opacity="0" result="BackgroundImageFix"/>
<feColorMatrix in="SourceAlpha" type="matrix" values="0 0 0 0 0 0 0 0 0 0 0 0 0 0 0 0 0 0 127 0" result="hardAlpha"/>
<feOffset dy="10"/>
<feGaussianBlur stdDeviation="11"/>
<feColorMatrix type="matrix" values="0 0 0 0 0.772549 0 0 0 0 0.545098 0 0 0 0 0.94902 0 0 0 0.3 0"/>
<feBlend mode="normal" in2="BackgroundImageFix" result="effect1_dropShadow_265_1753"/>
<feBlend mode="normal" in="SourceGraphic" in2="effect1_dropShadow_265_1753" result="shape"/>
</filter>
<linearGradient id="paint0_linear_265_1753" x1="297" y1="490" x2="-70.9835" y2="473.618" gradientUnits="userSpaceOnUse">
<stop stop-color="#C150F6"/>
<stop offset="1" stop-color="#EEA4CE"/>
</linearGradient>
</defs>
</svg>
