<svg width="319" height="522" viewBox="0 0 319 522" fill="none" xmlns="http://www.w3.org/2000/svg">
<g filter="url(#filter0_d_255_3989)">
<rect x="22" y="12" width="275" height="478" rx="22" fill="url(#paint0_linear_255_3989)"/>
</g>
<path d="M108.224 367.228V377H106.264V367.228H108.224ZM119.792 369.132C120.744 369.132 121.51 369.426 122.088 370.014C122.676 370.593 122.97 371.405 122.97 372.45V377H121.01V372.716C121.01 372.109 120.856 371.647 120.548 371.33C120.24 371.003 119.82 370.84 119.288 370.84C118.756 370.84 118.332 371.003 118.014 371.33C117.706 371.647 117.552 372.109 117.552 372.716V377H115.592V372.716C115.592 372.109 115.438 371.647 115.13 371.33C114.822 371.003 114.402 370.84 113.87 370.84C113.329 370.84 112.9 371.003 112.582 371.33C112.274 371.647 112.12 372.109 112.12 372.716V377H110.16V369.244H112.12V370.182C112.372 369.855 112.694 369.599 113.086 369.412C113.488 369.225 113.926 369.132 114.402 369.132C115.009 369.132 115.55 369.263 116.026 369.524C116.502 369.776 116.871 370.14 117.132 370.616C117.384 370.168 117.748 369.809 118.224 369.538C118.71 369.267 119.232 369.132 119.792 369.132ZM126.79 370.364C127.042 370.009 127.388 369.715 127.826 369.482C128.274 369.239 128.783 369.118 129.352 369.118C130.015 369.118 130.612 369.281 131.144 369.608C131.686 369.935 132.11 370.401 132.418 371.008C132.736 371.605 132.894 372.301 132.894 373.094C132.894 373.887 132.736 374.592 132.418 375.208C132.11 375.815 131.686 376.286 131.144 376.622C130.612 376.958 130.015 377.126 129.352 377.126C128.783 377.126 128.279 377.009 127.84 376.776C127.411 376.543 127.061 376.249 126.79 375.894V380.696H124.83V369.244H126.79V370.364ZM130.892 373.094C130.892 372.627 130.794 372.226 130.598 371.89C130.412 371.545 130.16 371.283 129.842 371.106C129.534 370.929 129.198 370.84 128.834 370.84C128.48 370.84 128.144 370.933 127.826 371.12C127.518 371.297 127.266 371.559 127.07 371.904C126.884 372.249 126.79 372.655 126.79 373.122C126.79 373.589 126.884 373.995 127.07 374.34C127.266 374.685 127.518 374.951 127.826 375.138C128.144 375.315 128.48 375.404 128.834 375.404C129.198 375.404 129.534 375.311 129.842 375.124C130.16 374.937 130.412 374.671 130.598 374.326C130.794 373.981 130.892 373.57 130.892 373.094ZM136.279 370.448C136.531 370.037 136.857 369.715 137.259 369.482C137.669 369.249 138.136 369.132 138.659 369.132V371.19H138.141C137.525 371.19 137.058 371.335 136.741 371.624C136.433 371.913 136.279 372.417 136.279 373.136V377H134.319V369.244H136.279V370.448ZM143.423 377.126C142.676 377.126 142.004 376.963 141.407 376.636C140.809 376.3 140.338 375.829 139.993 375.222C139.657 374.615 139.489 373.915 139.489 373.122C139.489 372.329 139.661 371.629 140.007 371.022C140.361 370.415 140.842 369.949 141.449 369.622C142.055 369.286 142.732 369.118 143.479 369.118C144.225 369.118 144.902 369.286 145.509 369.622C146.115 369.949 146.591 370.415 146.937 371.022C147.291 371.629 147.469 372.329 147.469 373.122C147.469 373.915 147.287 374.615 146.923 375.222C146.568 375.829 146.083 376.3 145.467 376.636C144.86 376.963 144.179 377.126 143.423 377.126ZM143.423 375.418C143.777 375.418 144.109 375.334 144.417 375.166C144.734 374.989 144.986 374.727 145.173 374.382C145.359 374.037 145.453 373.617 145.453 373.122C145.453 372.385 145.257 371.82 144.865 371.428C144.482 371.027 144.011 370.826 143.451 370.826C142.891 370.826 142.419 371.027 142.037 371.428C141.663 371.82 141.477 372.385 141.477 373.122C141.477 373.859 141.659 374.429 142.023 374.83C142.396 375.222 142.863 375.418 143.423 375.418ZM152.14 375.194L154.1 369.244H156.186L153.316 377H150.936L148.08 369.244H150.18L152.14 375.194ZM164.497 372.954C164.497 373.234 164.479 373.486 164.441 373.71H158.771C158.818 374.27 159.014 374.709 159.359 375.026C159.705 375.343 160.129 375.502 160.633 375.502C161.361 375.502 161.879 375.189 162.187 374.564H164.301C164.077 375.311 163.648 375.927 163.013 376.412C162.379 376.888 161.599 377.126 160.675 377.126C159.929 377.126 159.257 376.963 158.659 376.636C158.071 376.3 157.609 375.829 157.273 375.222C156.947 374.615 156.783 373.915 156.783 373.122C156.783 372.319 156.947 371.615 157.273 371.008C157.6 370.401 158.057 369.935 158.645 369.608C159.233 369.281 159.91 369.118 160.675 369.118C161.413 369.118 162.071 369.277 162.649 369.594C163.237 369.911 163.69 370.364 164.007 370.952C164.334 371.531 164.497 372.198 164.497 372.954ZM162.467 372.394C162.458 371.89 162.276 371.489 161.921 371.19C161.567 370.882 161.133 370.728 160.619 370.728C160.134 370.728 159.723 370.877 159.387 371.176C159.061 371.465 158.86 371.871 158.785 372.394H162.467ZM172.638 377.098C171.957 377.098 171.341 376.981 170.79 376.748C170.249 376.515 169.819 376.179 169.502 375.74C169.185 375.301 169.021 374.783 169.012 374.186H171.112C171.14 374.587 171.28 374.905 171.532 375.138C171.793 375.371 172.148 375.488 172.596 375.488C173.053 375.488 173.413 375.381 173.674 375.166C173.935 374.942 174.066 374.653 174.066 374.298C174.066 374.009 173.977 373.771 173.8 373.584C173.623 373.397 173.399 373.253 173.128 373.15C172.867 373.038 172.503 372.917 172.036 372.786C171.401 372.599 170.883 372.417 170.482 372.24C170.09 372.053 169.749 371.778 169.46 371.414C169.18 371.041 169.04 370.546 169.04 369.93C169.04 369.351 169.185 368.847 169.474 368.418C169.763 367.989 170.169 367.662 170.692 367.438C171.215 367.205 171.812 367.088 172.484 367.088C173.492 367.088 174.309 367.335 174.934 367.83C175.569 368.315 175.919 368.997 175.984 369.874H173.828C173.809 369.538 173.665 369.263 173.394 369.048C173.133 368.824 172.783 368.712 172.344 368.712C171.961 368.712 171.653 368.81 171.42 369.006C171.196 369.202 171.084 369.487 171.084 369.86C171.084 370.121 171.168 370.341 171.336 370.518C171.513 370.686 171.728 370.826 171.98 370.938C172.241 371.041 172.605 371.162 173.072 371.302C173.707 371.489 174.225 371.675 174.626 371.862C175.027 372.049 175.373 372.329 175.662 372.702C175.951 373.075 176.096 373.565 176.096 374.172C176.096 374.695 175.961 375.18 175.69 375.628C175.419 376.076 175.023 376.435 174.5 376.706C173.977 376.967 173.357 377.098 172.638 377.098ZM182.163 369.132C182.751 369.132 183.274 369.263 183.731 369.524C184.188 369.776 184.543 370.154 184.795 370.658C185.056 371.153 185.187 371.75 185.187 372.45V377H183.227V372.716C183.227 372.1 183.073 371.629 182.765 371.302C182.457 370.966 182.037 370.798 181.505 370.798C180.964 370.798 180.534 370.966 180.217 371.302C179.909 371.629 179.755 372.1 179.755 372.716V377H177.795V366.64H179.755V370.21C180.007 369.874 180.343 369.613 180.763 369.426C181.183 369.23 181.65 369.132 182.163 369.132ZM186.547 373.094C186.547 372.31 186.701 371.615 187.009 371.008C187.326 370.401 187.751 369.935 188.283 369.608C188.824 369.281 189.426 369.118 190.089 369.118C190.668 369.118 191.172 369.235 191.601 369.468C192.04 369.701 192.39 369.995 192.651 370.35V369.244H194.625V377H192.651V375.866C192.399 376.23 192.049 376.533 191.601 376.776C191.162 377.009 190.654 377.126 190.075 377.126C189.422 377.126 188.824 376.958 188.283 376.622C187.751 376.286 187.326 375.815 187.009 375.208C186.701 374.592 186.547 373.887 186.547 373.094ZM192.651 373.122C192.651 372.646 192.558 372.24 192.371 371.904C192.184 371.559 191.932 371.297 191.615 371.12C191.298 370.933 190.957 370.84 190.593 370.84C190.229 370.84 189.893 370.929 189.585 371.106C189.277 371.283 189.025 371.545 188.829 371.89C188.642 372.226 188.549 372.627 188.549 373.094C188.549 373.561 188.642 373.971 188.829 374.326C189.025 374.671 189.277 374.937 189.585 375.124C189.902 375.311 190.238 375.404 190.593 375.404C190.957 375.404 191.298 375.315 191.615 375.138C191.932 374.951 192.184 374.69 192.371 374.354C192.558 374.009 192.651 373.598 192.651 373.122ZM198.499 370.364C198.751 370.009 199.097 369.715 199.535 369.482C199.983 369.239 200.492 369.118 201.061 369.118C201.724 369.118 202.321 369.281 202.853 369.608C203.395 369.935 203.819 370.401 204.127 371.008C204.445 371.605 204.603 372.301 204.603 373.094C204.603 373.887 204.445 374.592 204.127 375.208C203.819 375.815 203.395 376.286 202.853 376.622C202.321 376.958 201.724 377.126 201.061 377.126C200.492 377.126 199.988 377.009 199.549 376.776C199.12 376.543 198.77 376.249 198.499 375.894V380.696H196.539V369.244H198.499V370.364ZM202.601 373.094C202.601 372.627 202.503 372.226 202.307 371.89C202.121 371.545 201.869 371.283 201.551 371.106C201.243 370.929 200.907 370.84 200.543 370.84C200.189 370.84 199.853 370.933 199.535 371.12C199.227 371.297 198.975 371.559 198.779 371.904C198.593 372.249 198.499 372.655 198.499 373.122C198.499 373.589 198.593 373.995 198.779 374.34C198.975 374.685 199.227 374.951 199.535 375.138C199.853 375.315 200.189 375.404 200.543 375.404C200.907 375.404 201.243 375.311 201.551 375.124C201.869 374.937 202.121 374.671 202.307 374.326C202.503 373.981 202.601 373.57 202.601 373.094ZM213.238 372.954C213.238 373.234 213.219 373.486 213.182 373.71H207.512C207.558 374.27 207.754 374.709 208.1 375.026C208.445 375.343 208.87 375.502 209.374 375.502C210.102 375.502 210.62 375.189 210.928 374.564H213.042C212.818 375.311 212.388 375.927 211.754 376.412C211.119 376.888 210.34 377.126 209.416 377.126C208.669 377.126 207.997 376.963 207.4 376.636C206.812 376.3 206.35 375.829 206.014 375.222C205.687 374.615 205.524 373.915 205.524 373.122C205.524 372.319 205.687 371.615 206.014 371.008C206.34 370.401 206.798 369.935 207.386 369.608C207.974 369.281 208.65 369.118 209.416 369.118C210.153 369.118 210.811 369.277 211.39 369.594C211.978 369.911 212.43 370.364 212.748 370.952C213.074 371.531 213.238 372.198 213.238 372.954ZM211.208 372.394C211.198 371.89 211.016 371.489 210.662 371.19C210.307 370.882 209.873 370.728 209.36 370.728C208.874 370.728 208.464 370.877 208.128 371.176C207.801 371.465 207.6 371.871 207.526 372.394H211.208Z" fill="white"/>
<path d="M66.2836 410.636V419H65.1916V410.636H66.2836ZM74.6079 412.304C75.1039 412.304 75.5519 412.412 75.9519 412.628C76.3519 412.836 76.6639 413.152 76.8879 413.576C77.1199 414 77.2359 414.516 77.2359 415.124V419H76.1559V415.28C76.1559 414.624 75.9919 414.124 75.6639 413.78C75.3359 413.428 74.8879 413.252 74.3199 413.252C73.7439 413.252 73.2839 413.432 72.9399 413.792C72.6039 414.152 72.4359 414.676 72.4359 415.364V419H71.3439V410.12H72.4359V413.36C72.6519 413.024 72.9479 412.764 73.3239 412.58C73.7079 412.396 74.1359 412.304 74.6079 412.304ZM78.6117 415.688C78.6117 415.016 78.7477 414.428 79.0197 413.924C79.2917 413.412 79.6637 413.016 80.1357 412.736C80.6157 412.456 81.1477 412.316 81.7317 412.316C82.3077 412.316 82.8077 412.44 83.2317 412.688C83.6557 412.936 83.9717 413.248 84.1797 413.624V412.424H85.2837V419H84.1797V417.776C83.9637 418.16 83.6397 418.48 83.2077 418.736C82.7837 418.984 82.2877 419.108 81.7197 419.108C81.1357 419.108 80.6077 418.964 80.1357 418.676C79.6637 418.388 79.2917 417.984 79.0197 417.464C78.7477 416.944 78.6117 416.352 78.6117 415.688ZM84.1797 415.7C84.1797 415.204 84.0797 414.772 83.8797 414.404C83.6797 414.036 83.4077 413.756 83.0637 413.564C82.7277 413.364 82.3557 413.264 81.9477 413.264C81.5397 413.264 81.1677 413.36 80.8317 413.552C80.4957 413.744 80.2277 414.024 80.0277 414.392C79.8277 414.76 79.7277 415.192 79.7277 415.688C79.7277 416.192 79.8277 416.632 80.0277 417.008C80.2277 417.376 80.4957 417.66 80.8317 417.86C81.1677 418.052 81.5397 418.148 81.9477 418.148C82.3557 418.148 82.7277 418.052 83.0637 417.86C83.4077 417.66 83.6797 417.376 83.8797 417.008C84.0797 416.632 84.1797 416.196 84.1797 415.7ZM89.5771 417.992L91.6171 412.424H92.7811L90.2011 419H88.9291L86.3491 412.424H87.5251L89.5771 417.992ZM99.8556 415.46C99.8556 415.668 99.8436 415.888 99.8196 416.12H94.5636C94.6036 416.768 94.8236 417.276 95.2236 417.644C95.6316 418.004 96.1236 418.184 96.6996 418.184C97.1716 418.184 97.5636 418.076 97.8756 417.86C98.1956 417.636 98.4196 417.34 98.5476 416.972H99.7236C99.5476 417.604 99.1956 418.12 98.6676 418.52C98.1396 418.912 97.4836 419.108 96.6996 419.108C96.0756 419.108 95.5156 418.968 95.0196 418.688C94.5316 418.408 94.1476 418.012 93.8676 417.5C93.5876 416.98 93.4476 416.38 93.4476 415.7C93.4476 415.02 93.5836 414.424 93.8556 413.912C94.1276 413.4 94.5076 413.008 94.9956 412.736C95.4916 412.456 96.0596 412.316 96.6996 412.316C97.3236 412.316 97.8756 412.452 98.3556 412.724C98.8356 412.996 99.2036 413.372 99.4596 413.852C99.7236 414.324 99.8556 414.86 99.8556 415.46ZM98.7276 415.232C98.7276 414.816 98.6356 414.46 98.4516 414.164C98.2676 413.86 98.0156 413.632 97.6956 413.48C97.3836 413.32 97.0356 413.24 96.6516 413.24C96.0996 413.24 95.6276 413.416 95.2356 413.768C94.8516 414.12 94.6316 414.608 94.5756 415.232H98.7276ZM104.088 415.688C104.088 415.016 104.224 414.428 104.496 413.924C104.768 413.412 105.14 413.016 105.612 412.736C106.092 412.456 106.624 412.316 107.208 412.316C107.784 412.316 108.284 412.44 108.708 412.688C109.132 412.936 109.448 413.248 109.656 413.624V412.424H110.76V419H109.656V417.776C109.44 418.16 109.116 418.48 108.684 418.736C108.26 418.984 107.764 419.108 107.196 419.108C106.612 419.108 106.084 418.964 105.612 418.676C105.14 418.388 104.768 417.984 104.496 417.464C104.224 416.944 104.088 416.352 104.088 415.688ZM109.656 415.7C109.656 415.204 109.556 414.772 109.356 414.404C109.156 414.036 108.884 413.756 108.54 413.564C108.204 413.364 107.832 413.264 107.424 413.264C107.016 413.264 106.644 413.36 106.308 413.552C105.972 413.744 105.704 414.024 105.504 414.392C105.304 414.76 105.204 415.192 105.204 415.688C105.204 416.192 105.304 416.632 105.504 417.008C105.704 417.376 105.972 417.66 106.308 417.86C106.644 418.052 107.016 418.148 107.424 418.148C107.832 418.148 108.204 418.052 108.54 417.86C108.884 417.66 109.156 417.376 109.356 417.008C109.556 416.632 109.656 416.196 109.656 415.7ZM116.897 410.12V419H115.805V410.12H116.897ZM121.626 419.108C121.01 419.108 120.45 418.968 119.946 418.688C119.45 418.408 119.058 418.012 118.77 417.5C118.49 416.98 118.35 416.38 118.35 415.7C118.35 415.028 118.494 414.436 118.782 413.924C119.078 413.404 119.478 413.008 119.982 412.736C120.486 412.456 121.05 412.316 121.674 412.316C122.298 412.316 122.862 412.456 123.366 412.736C123.87 413.008 124.266 413.4 124.554 413.912C124.85 414.424 124.998 415.02 124.998 415.7C124.998 416.38 124.846 416.98 124.542 417.5C124.246 418.012 123.842 418.408 123.33 418.688C122.818 418.968 122.25 419.108 121.626 419.108ZM121.626 418.148C122.018 418.148 122.386 418.056 122.73 417.872C123.074 417.688 123.35 417.412 123.558 417.044C123.774 416.676 123.882 416.228 123.882 415.7C123.882 415.172 123.778 414.724 123.57 414.356C123.362 413.988 123.09 413.716 122.754 413.54C122.418 413.356 122.054 413.264 121.662 413.264C121.262 413.264 120.894 413.356 120.558 413.54C120.23 413.716 119.966 413.988 119.766 414.356C119.566 414.724 119.466 415.172 119.466 415.7C119.466 416.236 119.562 416.688 119.754 417.056C119.954 417.424 120.218 417.7 120.546 417.884C120.874 418.06 121.234 418.148 121.626 418.148ZM135.194 412.424L133.142 419H132.014L130.43 413.78L128.846 419H127.718L125.654 412.424H126.77L128.282 417.944L129.914 412.424H131.03L132.626 417.956L134.114 412.424H135.194ZM139.069 415.688C139.069 415.016 139.205 414.428 139.477 413.924C139.749 413.412 140.121 413.016 140.593 412.736C141.073 412.456 141.605 412.316 142.189 412.316C142.765 412.316 143.265 412.44 143.689 412.688C144.113 412.936 144.429 413.248 144.637 413.624V412.424H145.741V419H144.637V417.776C144.421 418.16 144.097 418.48 143.665 418.736C143.241 418.984 142.745 419.108 142.177 419.108C141.593 419.108 141.065 418.964 140.593 418.676C140.121 418.388 139.749 417.984 139.477 417.464C139.205 416.944 139.069 416.352 139.069 415.688ZM144.637 415.7C144.637 415.204 144.537 414.772 144.337 414.404C144.137 414.036 143.865 413.756 143.521 413.564C143.185 413.364 142.813 413.264 142.405 413.264C141.997 413.264 141.625 413.36 141.289 413.552C140.953 413.744 140.685 414.024 140.485 414.392C140.285 414.76 140.185 415.192 140.185 415.688C140.185 416.192 140.285 416.632 140.485 417.008C140.685 417.376 140.953 417.66 141.289 417.86C141.625 418.052 141.997 418.148 142.405 418.148C142.813 418.148 143.185 418.052 143.521 417.86C143.865 417.66 144.137 417.376 144.337 417.008C144.537 416.632 144.637 416.196 144.637 415.7ZM155.494 412.304C156.006 412.304 156.462 412.412 156.862 412.628C157.262 412.836 157.578 413.152 157.81 413.576C158.042 414 158.158 414.516 158.158 415.124V419H157.078V415.28C157.078 414.624 156.914 414.124 156.586 413.78C156.266 413.428 155.83 413.252 155.278 413.252C154.71 413.252 154.258 413.436 153.922 413.804C153.586 414.164 153.418 414.688 153.418 415.376V419H152.338V415.28C152.338 414.624 152.174 414.124 151.846 413.78C151.526 413.428 151.09 413.252 150.538 413.252C149.97 413.252 149.518 413.436 149.182 413.804C148.846 414.164 148.678 414.688 148.678 415.376V419H147.586V412.424H148.678V413.372C148.894 413.028 149.182 412.764 149.542 412.58C149.91 412.396 150.314 412.304 150.754 412.304C151.306 412.304 151.794 412.428 152.218 412.676C152.642 412.924 152.958 413.288 153.166 413.768C153.35 413.304 153.654 412.944 154.078 412.688C154.502 412.432 154.974 412.304 155.494 412.304ZM162.817 419.108C162.201 419.108 161.641 418.968 161.137 418.688C160.641 418.408 160.249 418.012 159.961 417.5C159.681 416.98 159.541 416.38 159.541 415.7C159.541 415.028 159.685 414.436 159.973 413.924C160.269 413.404 160.669 413.008 161.173 412.736C161.677 412.456 162.241 412.316 162.865 412.316C163.489 412.316 164.053 412.456 164.557 412.736C165.061 413.008 165.457 413.4 165.745 413.912C166.041 414.424 166.189 415.02 166.189 415.7C166.189 416.38 166.037 416.98 165.733 417.5C165.437 418.012 165.033 418.408 164.521 418.688C164.009 418.968 163.441 419.108 162.817 419.108ZM162.817 418.148C163.209 418.148 163.577 418.056 163.921 417.872C164.265 417.688 164.541 417.412 164.749 417.044C164.965 416.676 165.073 416.228 165.073 415.7C165.073 415.172 164.969 414.724 164.761 414.356C164.553 413.988 164.281 413.716 163.945 413.54C163.609 413.356 163.245 413.264 162.853 413.264C162.453 413.264 162.085 413.356 161.749 413.54C161.421 413.716 161.157 413.988 160.957 414.356C160.757 414.724 160.657 415.172 160.657 415.7C160.657 416.236 160.753 416.688 160.945 417.056C161.145 417.424 161.409 417.7 161.737 417.884C162.065 418.06 162.425 418.148 162.817 418.148ZM173.457 412.424V419H172.365V418.028C172.157 418.364 171.865 418.628 171.489 418.82C171.121 419.004 170.713 419.096 170.265 419.096C169.753 419.096 169.293 418.992 168.885 418.784C168.477 418.568 168.153 418.248 167.913 417.824C167.681 417.4 167.565 416.884 167.565 416.276V412.424H168.645V416.132C168.645 416.78 168.809 417.28 169.137 417.632C169.465 417.976 169.913 418.148 170.481 418.148C171.065 418.148 171.525 417.968 171.861 417.608C172.197 417.248 172.365 416.724 172.365 416.036V412.424H173.457ZM178.505 412.304C179.305 412.304 179.953 412.548 180.449 413.036C180.945 413.516 181.193 414.212 181.193 415.124V419H180.113V415.28C180.113 414.624 179.949 414.124 179.621 413.78C179.293 413.428 178.845 413.252 178.277 413.252C177.701 413.252 177.241 413.432 176.897 413.792C176.561 414.152 176.393 414.676 176.393 415.364V419H175.301V412.424H176.393V413.36C176.609 413.024 176.901 412.764 177.269 412.58C177.645 412.396 178.057 412.304 178.505 412.304ZM184.309 413.324V417.2C184.309 417.52 184.377 417.748 184.513 417.884C184.649 418.012 184.885 418.076 185.221 418.076H186.025V419H185.041C184.433 419 183.977 418.86 183.673 418.58C183.369 418.3 183.217 417.84 183.217 417.2V413.324H182.365V412.424H183.217V410.768H184.309V412.424H186.025V413.324H184.309ZM193.415 419.108C192.799 419.108 192.239 418.968 191.735 418.688C191.239 418.408 190.847 418.012 190.559 417.5C190.279 416.98 190.139 416.38 190.139 415.7C190.139 415.028 190.283 414.436 190.571 413.924C190.867 413.404 191.267 413.008 191.771 412.736C192.275 412.456 192.839 412.316 193.463 412.316C194.087 412.316 194.651 412.456 195.155 412.736C195.659 413.008 196.055 413.4 196.343 413.912C196.639 414.424 196.787 415.02 196.787 415.7C196.787 416.38 196.635 416.98 196.331 417.5C196.035 418.012 195.631 418.408 195.119 418.688C194.607 418.968 194.039 419.108 193.415 419.108ZM193.415 418.148C193.807 418.148 194.175 418.056 194.519 417.872C194.863 417.688 195.139 417.412 195.347 417.044C195.563 416.676 195.671 416.228 195.671 415.7C195.671 415.172 195.567 414.724 195.359 414.356C195.151 413.988 194.879 413.716 194.543 413.54C194.207 413.356 193.843 413.264 193.451 413.264C193.051 413.264 192.683 413.356 192.347 413.54C192.019 413.716 191.755 413.988 191.555 414.356C191.355 414.724 191.255 415.172 191.255 415.7C191.255 416.236 191.351 416.688 191.543 417.056C191.743 417.424 192.007 417.7 192.335 417.884C192.663 418.06 193.023 418.148 193.415 418.148ZM200.899 413.324H199.519V419H198.427V413.324H197.575V412.424H198.427V411.956C198.427 411.22 198.615 410.684 198.991 410.348C199.375 410.004 199.987 409.832 200.827 409.832V410.744C200.347 410.744 200.007 410.84 199.807 411.032C199.615 411.216 199.519 411.524 199.519 411.956V412.424H200.899V413.324ZM206.463 413.648C206.687 413.256 207.015 412.936 207.447 412.688C207.879 412.44 208.371 412.316 208.923 412.316C209.515 412.316 210.047 412.456 210.519 412.736C210.991 413.016 211.363 413.412 211.635 413.924C211.907 414.428 212.043 415.016 212.043 415.688C212.043 416.352 211.907 416.944 211.635 417.464C211.363 417.984 210.987 418.388 210.507 418.676C210.035 418.964 209.507 419.108 208.923 419.108C208.355 419.108 207.855 418.984 207.423 418.736C206.999 418.488 206.679 418.172 206.463 417.788V419H205.371V410.12H206.463V413.648ZM210.927 415.688C210.927 415.192 210.827 414.76 210.627 414.392C210.427 414.024 210.155 413.744 209.811 413.552C209.475 413.36 209.103 413.264 208.695 413.264C208.295 413.264 207.923 413.364 207.579 413.564C207.243 413.756 206.971 414.04 206.763 414.416C206.563 414.784 206.463 415.212 206.463 415.7C206.463 416.196 206.563 416.632 206.763 417.008C206.971 417.376 207.243 417.66 207.579 417.86C207.923 418.052 208.295 418.148 208.695 418.148C209.103 418.148 209.475 418.052 209.811 417.86C210.155 417.66 210.427 417.376 210.627 417.008C210.827 416.632 210.927 416.192 210.927 415.688ZM216.349 419.108C215.733 419.108 215.173 418.968 214.669 418.688C214.173 418.408 213.781 418.012 213.493 417.5C213.213 416.98 213.073 416.38 213.073 415.7C213.073 415.028 213.217 414.436 213.505 413.924C213.801 413.404 214.201 413.008 214.705 412.736C215.209 412.456 215.773 412.316 216.397 412.316C217.021 412.316 217.585 412.456 218.089 412.736C218.593 413.008 218.989 413.4 219.277 413.912C219.573 414.424 219.721 415.02 219.721 415.7C219.721 416.38 219.569 416.98 219.265 417.5C218.969 418.012 218.565 418.408 218.053 418.688C217.541 418.968 216.973 419.108 216.349 419.108ZM216.349 418.148C216.741 418.148 217.109 418.056 217.453 417.872C217.797 417.688 218.073 417.412 218.281 417.044C218.497 416.676 218.605 416.228 218.605 415.7C218.605 415.172 218.501 414.724 218.293 414.356C218.085 413.988 217.813 413.716 217.477 413.54C217.141 413.356 216.777 413.264 216.385 413.264C215.985 413.264 215.617 413.356 215.281 413.54C214.953 413.716 214.689 413.988 214.489 414.356C214.289 414.724 214.189 415.172 214.189 415.7C214.189 416.236 214.285 416.688 214.477 417.056C214.677 417.424 214.941 417.7 215.269 417.884C215.597 418.06 215.957 418.148 216.349 418.148ZM220.748 415.688C220.748 415.016 220.884 414.428 221.156 413.924C221.428 413.412 221.8 413.016 222.272 412.736C222.752 412.456 223.288 412.316 223.88 412.316C224.392 412.316 224.868 412.436 225.308 412.676C225.748 412.908 226.084 413.216 226.316 413.6V410.12H227.42V419H226.316V417.764C226.1 418.156 225.78 418.48 225.356 418.736C224.932 418.984 224.436 419.108 223.868 419.108C223.284 419.108 222.752 418.964 222.272 418.676C221.8 418.388 221.428 417.984 221.156 417.464C220.884 416.944 220.748 416.352 220.748 415.688ZM226.316 415.7C226.316 415.204 226.216 414.772 226.016 414.404C225.816 414.036 225.544 413.756 225.2 413.564C224.864 413.364 224.492 413.264 224.084 413.264C223.676 413.264 223.304 413.36 222.968 413.552C222.632 413.744 222.364 414.024 222.164 414.392C221.964 414.76 221.864 415.192 221.864 415.688C221.864 416.192 221.964 416.632 222.164 417.008C222.364 417.376 222.632 417.66 222.968 417.86C223.304 418.052 223.676 418.148 224.084 418.148C224.492 418.148 224.864 418.052 225.2 417.86C225.544 417.66 225.816 417.376 226.016 417.008C226.216 416.632 226.316 416.196 226.316 415.7ZM234.93 412.424L230.97 422.096H229.842L231.138 418.928L228.486 412.424H229.698L231.762 417.752L233.802 412.424H234.93ZM241.903 413.324H240.523V419H239.431V413.324H238.579V412.424H239.431V411.956C239.431 411.22 239.619 410.684 239.995 410.348C240.379 410.004 240.991 409.832 241.831 409.832V410.744C241.351 410.744 241.011 410.84 240.811 411.032C240.619 411.216 240.523 411.524 240.523 411.956V412.424H241.903V413.324ZM242.768 415.688C242.768 415.016 242.904 414.428 243.176 413.924C243.448 413.412 243.82 413.016 244.292 412.736C244.772 412.456 245.304 412.316 245.888 412.316C246.464 412.316 246.964 412.44 247.388 412.688C247.812 412.936 248.128 413.248 248.336 413.624V412.424H249.44V419H248.336V417.776C248.12 418.16 247.796 418.48 247.364 418.736C246.94 418.984 246.444 419.108 245.876 419.108C245.292 419.108 244.764 418.964 244.292 418.676C243.82 418.388 243.448 417.984 243.176 417.464C242.904 416.944 242.768 416.352 242.768 415.688ZM248.336 415.7C248.336 415.204 248.236 414.772 248.036 414.404C247.836 414.036 247.564 413.756 247.22 413.564C246.884 413.364 246.512 413.264 246.104 413.264C245.696 413.264 245.324 413.36 244.988 413.552C244.652 413.744 244.384 414.024 244.184 414.392C243.984 414.76 243.884 415.192 243.884 415.688C243.884 416.192 243.984 416.632 244.184 417.008C244.384 417.376 244.652 417.66 244.988 417.86C245.324 418.052 245.696 418.148 246.104 418.148C246.512 418.148 246.884 418.052 247.22 417.86C247.564 417.66 247.836 417.376 248.036 417.008C248.236 416.632 248.336 416.196 248.336 415.7ZM252.617 413.324V417.2C252.617 417.52 252.685 417.748 252.821 417.884C252.957 418.012 253.193 418.076 253.529 418.076H254.333V419H253.349C252.741 419 252.285 418.86 251.981 418.58C251.677 418.3 251.525 417.84 251.525 417.2V413.324H250.673V412.424H251.525V410.768H252.617V412.424H254.333V413.324H252.617ZM68.3812 433.688C68.3812 433.016 68.5172 432.428 68.7892 431.924C69.0612 431.412 69.4332 431.016 69.9052 430.736C70.3852 430.456 70.9172 430.316 71.5012 430.316C72.0772 430.316 72.5772 430.44 73.0012 430.688C73.4252 430.936 73.7412 431.248 73.9492 431.624V430.424H75.0532V437H73.9492V435.776C73.7332 436.16 73.4092 436.48 72.9772 436.736C72.5532 436.984 72.0572 437.108 71.4892 437.108C70.9052 437.108 70.3772 436.964 69.9052 436.676C69.4332 436.388 69.0612 435.984 68.7892 435.464C68.5172 434.944 68.3812 434.352 68.3812 433.688ZM73.9492 433.7C73.9492 433.204 73.8492 432.772 73.6492 432.404C73.4492 432.036 73.1772 431.756 72.8332 431.564C72.4972 431.364 72.1252 431.264 71.7172 431.264C71.3092 431.264 70.9372 431.36 70.6012 431.552C70.2652 431.744 69.9972 432.024 69.7972 432.392C69.5972 432.76 69.4972 433.192 69.4972 433.688C69.4972 434.192 69.5972 434.632 69.7972 435.008C69.9972 435.376 70.2652 435.66 70.6012 435.86C70.9372 436.052 71.3092 436.148 71.7172 436.148C72.1252 436.148 72.4972 436.052 72.8332 435.86C73.1772 435.66 73.4492 435.376 73.6492 435.008C73.8492 434.632 73.9492 434.196 73.9492 433.7ZM80.1026 430.304C80.9026 430.304 81.5506 430.548 82.0466 431.036C82.5426 431.516 82.7906 432.212 82.7906 433.124V437H81.7106V433.28C81.7106 432.624 81.5466 432.124 81.2186 431.78C80.8906 431.428 80.4426 431.252 79.8746 431.252C79.2986 431.252 78.8386 431.432 78.4946 431.792C78.1586 432.152 77.9906 432.676 77.9906 433.364V437H76.8986V430.424H77.9906V431.36C78.2066 431.024 78.4986 430.764 78.8666 430.58C79.2426 430.396 79.6546 430.304 80.1026 430.304ZM84.1664 433.688C84.1664 433.016 84.3024 432.428 84.5744 431.924C84.8464 431.412 85.2184 431.016 85.6904 430.736C86.1704 430.456 86.7064 430.316 87.2984 430.316C87.8104 430.316 88.2864 430.436 88.7264 430.676C89.1664 430.908 89.5024 431.216 89.7344 431.6V428.12H90.8384V437H89.7344V435.764C89.5184 436.156 89.1984 436.48 88.7744 436.736C88.3504 436.984 87.8544 437.108 87.2864 437.108C86.7024 437.108 86.1704 436.964 85.6904 436.676C85.2184 436.388 84.8464 435.984 84.5744 435.464C84.3024 434.944 84.1664 434.352 84.1664 433.688ZM89.7344 433.7C89.7344 433.204 89.6344 432.772 89.4344 432.404C89.2344 432.036 88.9624 431.756 88.6184 431.564C88.2824 431.364 87.9104 431.264 87.5024 431.264C87.0944 431.264 86.7224 431.36 86.3864 431.552C86.0504 431.744 85.7824 432.024 85.5824 432.392C85.3824 432.76 85.2824 433.192 85.2824 433.688C85.2824 434.192 85.3824 434.632 85.5824 435.008C85.7824 435.376 86.0504 435.66 86.3864 435.86C86.7224 436.052 87.0944 436.148 87.5024 436.148C87.9104 436.148 88.2824 436.052 88.6184 435.86C88.9624 435.66 89.2344 435.376 89.4344 435.008C89.6344 434.632 89.7344 434.196 89.7344 433.7ZM99.087 430.304C99.887 430.304 100.535 430.548 101.031 431.036C101.527 431.516 101.775 432.212 101.775 433.124V437H100.695V433.28C100.695 432.624 100.531 432.124 100.203 431.78C99.875 431.428 99.427 431.252 98.859 431.252C98.283 431.252 97.823 431.432 97.479 431.792C97.143 432.152 96.975 432.676 96.975 433.364V437H95.883V430.424H96.975V431.36C97.191 431.024 97.483 430.764 97.851 430.58C98.227 430.396 98.639 430.304 99.087 430.304ZM109.559 433.46C109.559 433.668 109.547 433.888 109.523 434.12H104.267C104.307 434.768 104.527 435.276 104.927 435.644C105.335 436.004 105.827 436.184 106.403 436.184C106.875 436.184 107.267 436.076 107.579 435.86C107.899 435.636 108.123 435.34 108.251 434.972H109.427C109.251 435.604 108.899 436.12 108.371 436.52C107.843 436.912 107.187 437.108 106.403 437.108C105.779 437.108 105.219 436.968 104.723 436.688C104.235 436.408 103.851 436.012 103.571 435.5C103.291 434.98 103.151 434.38 103.151 433.7C103.151 433.02 103.287 432.424 103.559 431.912C103.831 431.4 104.211 431.008 104.699 430.736C105.195 430.456 105.763 430.316 106.403 430.316C107.027 430.316 107.579 430.452 108.059 430.724C108.539 430.996 108.907 431.372 109.163 431.852C109.427 432.324 109.559 432.86 109.559 433.46ZM108.431 433.232C108.431 432.816 108.339 432.46 108.155 432.164C107.971 431.86 107.719 431.632 107.399 431.48C107.087 431.32 106.739 431.24 106.355 431.24C105.803 431.24 105.331 431.416 104.939 431.768C104.555 432.12 104.335 432.608 104.279 433.232H108.431ZM117 433.46C117 433.668 116.988 433.888 116.964 434.12H111.708C111.748 434.768 111.968 435.276 112.368 435.644C112.776 436.004 113.268 436.184 113.844 436.184C114.316 436.184 114.708 436.076 115.02 435.86C115.34 435.636 115.564 435.34 115.692 434.972H116.868C116.692 435.604 116.34 436.12 115.812 436.52C115.284 436.912 114.628 437.108 113.844 437.108C113.22 437.108 112.66 436.968 112.164 436.688C111.676 436.408 111.292 436.012 111.012 435.5C110.732 434.98 110.592 434.38 110.592 433.7C110.592 433.02 110.728 432.424 111 431.912C111.272 431.4 111.652 431.008 112.14 430.736C112.636 430.456 113.204 430.316 113.844 430.316C114.468 430.316 115.02 430.452 115.5 430.724C115.98 430.996 116.348 431.372 116.604 431.852C116.868 432.324 117 432.86 117 433.46ZM115.872 433.232C115.872 432.816 115.78 432.46 115.596 432.164C115.412 431.86 115.16 431.632 114.84 431.48C114.528 431.32 114.18 431.24 113.796 431.24C113.244 431.24 112.772 431.416 112.38 431.768C111.996 432.12 111.776 432.608 111.72 433.232H115.872ZM118.034 433.688C118.034 433.016 118.17 432.428 118.442 431.924C118.714 431.412 119.086 431.016 119.558 430.736C120.038 430.456 120.574 430.316 121.166 430.316C121.678 430.316 122.154 430.436 122.594 430.676C123.034 430.908 123.37 431.216 123.602 431.6V428.12H124.706V437H123.602V435.764C123.386 436.156 123.066 436.48 122.642 436.736C122.218 436.984 121.722 437.108 121.154 437.108C120.57 437.108 120.038 436.964 119.558 436.676C119.086 436.388 118.714 435.984 118.442 435.464C118.17 434.944 118.034 434.352 118.034 433.688ZM123.602 433.7C123.602 433.204 123.502 432.772 123.302 432.404C123.102 432.036 122.83 431.756 122.486 431.564C122.15 431.364 121.778 431.264 121.37 431.264C120.962 431.264 120.59 431.36 120.254 431.552C119.918 431.744 119.65 432.024 119.45 432.392C119.25 432.76 119.15 433.192 119.15 433.688C119.15 434.192 119.25 434.632 119.45 435.008C119.65 435.376 119.918 435.66 120.254 435.86C120.59 436.052 120.962 436.148 121.37 436.148C121.778 436.148 122.15 436.052 122.486 435.86C122.83 435.66 123.102 435.376 123.302 435.008C123.502 434.632 123.602 434.196 123.602 433.7ZM133.83 425.696L130.542 439.04H129.462L132.738 425.696H133.83ZM147.416 430.424L145.364 437H144.236L142.652 431.78L141.068 437H139.94L137.876 430.424H138.992L140.504 435.944L142.136 430.424H143.252L144.848 435.956L146.336 430.424H147.416ZM148.092 433.688C148.092 433.016 148.228 432.428 148.5 431.924C148.772 431.412 149.144 431.016 149.616 430.736C150.096 430.456 150.628 430.316 151.212 430.316C151.788 430.316 152.288 430.44 152.712 430.688C153.136 430.936 153.452 431.248 153.66 431.624V430.424H154.764V437H153.66V435.776C153.444 436.16 153.12 436.48 152.688 436.736C152.264 436.984 151.768 437.108 151.2 437.108C150.616 437.108 150.088 436.964 149.616 436.676C149.144 436.388 148.772 435.984 148.5 435.464C148.228 434.944 148.092 434.352 148.092 433.688ZM153.66 433.7C153.66 433.204 153.56 432.772 153.36 432.404C153.16 432.036 152.888 431.756 152.544 431.564C152.208 431.364 151.836 431.264 151.428 431.264C151.02 431.264 150.648 431.36 150.312 431.552C149.976 431.744 149.708 432.024 149.508 432.392C149.308 432.76 149.208 433.192 149.208 433.688C149.208 434.192 149.308 434.632 149.508 435.008C149.708 435.376 149.976 435.66 150.312 435.86C150.648 436.052 151.02 436.148 151.428 436.148C151.836 436.148 152.208 436.052 152.544 435.86C152.888 435.66 153.16 435.376 153.36 435.008C153.56 434.632 153.66 434.196 153.66 433.7ZM159.814 430.304C160.614 430.304 161.262 430.548 161.758 431.036C162.254 431.516 162.502 432.212 162.502 433.124V437H161.422V433.28C161.422 432.624 161.258 432.124 160.93 431.78C160.602 431.428 160.154 431.252 159.586 431.252C159.01 431.252 158.55 431.432 158.206 431.792C157.87 432.152 157.702 432.676 157.702 433.364V437H156.61V430.424H157.702V431.36C157.918 431.024 158.21 430.764 158.578 430.58C158.954 430.396 159.366 430.304 159.814 430.304ZM165.617 431.324V435.2C165.617 435.52 165.685 435.748 165.821 435.884C165.957 436.012 166.193 436.076 166.529 436.076H167.333V437H166.349C165.741 437 165.285 436.86 164.981 436.58C164.677 436.3 164.525 435.84 164.525 435.2V431.324H163.673V430.424H164.525V428.768H165.617V430.424H167.333V431.324H165.617ZM173.188 431.324V435.2C173.188 435.52 173.256 435.748 173.392 435.884C173.528 436.012 173.764 436.076 174.1 436.076H174.904V437H173.92C173.312 437 172.856 436.86 172.552 436.58C172.248 436.3 172.096 435.84 172.096 435.2V431.324H171.244V430.424H172.096V428.768H173.188V430.424H174.904V431.324H173.188ZM179.095 437.108C178.479 437.108 177.919 436.968 177.415 436.688C176.919 436.408 176.527 436.012 176.239 435.5C175.959 434.98 175.819 434.38 175.819 433.7C175.819 433.028 175.963 432.436 176.251 431.924C176.547 431.404 176.947 431.008 177.451 430.736C177.955 430.456 178.519 430.316 179.143 430.316C179.767 430.316 180.331 430.456 180.835 430.736C181.339 431.008 181.735 431.4 182.023 431.912C182.319 432.424 182.467 433.02 182.467 433.7C182.467 434.38 182.315 434.98 182.011 435.5C181.715 436.012 181.311 436.408 180.799 436.688C180.287 436.968 179.719 437.108 179.095 437.108ZM179.095 436.148C179.487 436.148 179.855 436.056 180.199 435.872C180.543 435.688 180.819 435.412 181.027 435.044C181.243 434.676 181.351 434.228 181.351 433.7C181.351 433.172 181.247 432.724 181.039 432.356C180.831 431.988 180.559 431.716 180.223 431.54C179.887 431.356 179.523 431.264 179.131 431.264C178.731 431.264 178.363 431.356 178.027 431.54C177.699 431.716 177.435 431.988 177.235 432.356C177.035 432.724 176.935 433.172 176.935 433.7C176.935 434.236 177.031 434.688 177.223 435.056C177.423 435.424 177.687 435.7 178.015 435.884C178.343 436.06 178.703 436.148 179.095 436.148ZM188.194 431.648C188.418 431.256 188.746 430.936 189.178 430.688C189.61 430.44 190.102 430.316 190.654 430.316C191.246 430.316 191.778 430.456 192.25 430.736C192.722 431.016 193.094 431.412 193.366 431.924C193.638 432.428 193.774 433.016 193.774 433.688C193.774 434.352 193.638 434.944 193.366 435.464C193.094 435.984 192.718 436.388 192.238 436.676C191.766 436.964 191.238 437.108 190.654 437.108C190.086 437.108 189.586 436.984 189.154 436.736C188.73 436.488 188.41 436.172 188.194 435.788V437H187.102V428.12H188.194V431.648ZM192.658 433.688C192.658 433.192 192.558 432.76 192.358 432.392C192.158 432.024 191.886 431.744 191.542 431.552C191.206 431.36 190.834 431.264 190.426 431.264C190.026 431.264 189.654 431.364 189.31 431.564C188.974 431.756 188.702 432.04 188.494 432.416C188.294 432.784 188.194 433.212 188.194 433.7C188.194 434.196 188.294 434.632 188.494 435.008C188.702 435.376 188.974 435.66 189.31 435.86C189.654 436.052 190.026 436.148 190.426 436.148C190.834 436.148 191.206 436.052 191.542 435.86C191.886 435.66 192.158 435.376 192.358 435.008C192.558 434.632 192.658 434.192 192.658 433.688ZM201.043 430.424V437H199.951V436.028C199.743 436.364 199.451 436.628 199.075 436.82C198.707 437.004 198.299 437.096 197.851 437.096C197.339 437.096 196.879 436.992 196.471 436.784C196.063 436.568 195.739 436.248 195.499 435.824C195.267 435.4 195.151 434.884 195.151 434.276V430.424H196.231V434.132C196.231 434.78 196.395 435.28 196.723 435.632C197.051 435.976 197.499 436.148 198.067 436.148C198.651 436.148 199.111 435.968 199.447 435.608C199.783 435.248 199.951 434.724 199.951 434.036V430.424H201.043ZM203.451 429.356C203.243 429.356 203.067 429.284 202.923 429.14C202.779 428.996 202.707 428.82 202.707 428.612C202.707 428.404 202.779 428.228 202.923 428.084C203.067 427.94 203.243 427.868 203.451 427.868C203.651 427.868 203.819 427.94 203.955 428.084C204.099 428.228 204.171 428.404 204.171 428.612C204.171 428.82 204.099 428.996 203.955 429.14C203.819 429.284 203.651 429.356 203.451 429.356ZM203.979 430.424V437H202.887V430.424H203.979ZM206.932 428.12V437H205.84V428.12H206.932ZM208.385 433.688C208.385 433.016 208.521 432.428 208.793 431.924C209.065 431.412 209.437 431.016 209.909 430.736C210.389 430.456 210.925 430.316 211.517 430.316C212.029 430.316 212.505 430.436 212.945 430.676C213.385 430.908 213.721 431.216 213.953 431.6V428.12H215.057V437H213.953V435.764C213.737 436.156 213.417 436.48 212.993 436.736C212.569 436.984 212.073 437.108 211.505 437.108C210.921 437.108 210.389 436.964 209.909 436.676C209.437 436.388 209.065 435.984 208.793 435.464C208.521 434.944 208.385 434.352 208.385 433.688ZM213.953 433.7C213.953 433.204 213.853 432.772 213.653 432.404C213.453 432.036 213.181 431.756 212.837 431.564C212.501 431.364 212.129 431.264 211.721 431.264C211.313 431.264 210.941 431.36 210.605 431.552C210.269 431.744 210.001 432.024 209.801 432.392C209.601 432.76 209.501 433.192 209.501 433.688C209.501 434.192 209.601 434.632 209.801 435.008C210.001 435.376 210.269 435.66 210.605 435.86C210.941 436.052 211.313 436.148 211.721 436.148C212.129 436.148 212.501 436.052 212.837 435.86C213.181 435.66 213.453 435.376 213.653 435.008C213.853 434.632 213.953 434.196 213.953 433.7ZM228.01 430.304C228.522 430.304 228.978 430.412 229.378 430.628C229.778 430.836 230.094 431.152 230.326 431.576C230.558 432 230.674 432.516 230.674 433.124V437H229.594V433.28C229.594 432.624 229.43 432.124 229.102 431.78C228.782 431.428 228.346 431.252 227.794 431.252C227.226 431.252 226.774 431.436 226.438 431.804C226.102 432.164 225.934 432.688 225.934 433.376V437H224.854V433.28C224.854 432.624 224.69 432.124 224.362 431.78C224.042 431.428 223.606 431.252 223.054 431.252C222.486 431.252 222.034 431.436 221.698 431.804C221.362 432.164 221.194 432.688 221.194 433.376V437H220.102V430.424H221.194V431.372C221.41 431.028 221.698 430.764 222.058 430.58C222.426 430.396 222.83 430.304 223.27 430.304C223.822 430.304 224.31 430.428 224.734 430.676C225.158 430.924 225.474 431.288 225.682 431.768C225.866 431.304 226.17 430.944 226.594 430.688C227.018 430.432 227.49 430.304 228.01 430.304ZM235.333 437.108C234.717 437.108 234.157 436.968 233.653 436.688C233.157 436.408 232.765 436.012 232.477 435.5C232.197 434.98 232.057 434.38 232.057 433.7C232.057 433.028 232.201 432.436 232.489 431.924C232.785 431.404 233.185 431.008 233.689 430.736C234.193 430.456 234.757 430.316 235.381 430.316C236.005 430.316 236.569 430.456 237.073 430.736C237.577 431.008 237.973 431.4 238.261 431.912C238.557 432.424 238.705 433.02 238.705 433.7C238.705 434.38 238.553 434.98 238.249 435.5C237.953 436.012 237.549 436.408 237.037 436.688C236.525 436.968 235.957 437.108 235.333 437.108ZM235.333 436.148C235.725 436.148 236.093 436.056 236.437 435.872C236.781 435.688 237.057 435.412 237.265 435.044C237.481 434.676 237.589 434.228 237.589 433.7C237.589 433.172 237.485 432.724 237.277 432.356C237.069 431.988 236.797 431.716 236.461 431.54C236.125 431.356 235.761 431.264 235.369 431.264C234.969 431.264 234.601 431.356 234.265 431.54C233.937 431.716 233.673 431.988 233.473 432.356C233.273 432.724 233.173 433.172 233.173 433.7C233.173 434.236 233.269 434.688 233.461 435.056C233.661 435.424 233.925 435.7 234.253 435.884C234.581 436.06 234.941 436.148 235.333 436.148ZM241.233 431.492C241.425 431.116 241.697 430.824 242.049 430.616C242.409 430.408 242.845 430.304 243.357 430.304V431.432H243.069C241.845 431.432 241.233 432.096 241.233 433.424V437H240.141V430.424H241.233V431.492ZM250.617 433.46C250.617 433.668 250.605 433.888 250.581 434.12H245.325C245.365 434.768 245.585 435.276 245.985 435.644C246.393 436.004 246.885 436.184 247.461 436.184C247.933 436.184 248.325 436.076 248.637 435.86C248.957 435.636 249.181 435.34 249.309 434.972H250.485C250.309 435.604 249.957 436.12 249.429 436.52C248.901 436.912 248.245 437.108 247.461 437.108C246.837 437.108 246.277 436.968 245.781 436.688C245.293 436.408 244.909 436.012 244.629 435.5C244.349 434.98 244.209 434.38 244.209 433.7C244.209 433.02 244.345 432.424 244.617 431.912C244.889 431.4 245.269 431.008 245.757 430.736C246.253 430.456 246.821 430.316 247.461 430.316C248.085 430.316 248.637 430.452 249.117 430.724C249.597 430.996 249.965 431.372 250.221 431.852C250.485 432.324 250.617 432.86 250.617 433.46ZM249.489 433.232C249.489 432.816 249.397 432.46 249.213 432.164C249.029 431.86 248.777 431.632 248.457 431.48C248.145 431.32 247.797 431.24 247.413 431.24C246.861 431.24 246.389 431.416 245.997 431.768C245.613 432.12 245.393 432.608 245.337 433.232H249.489ZM146.336 448.304C146.848 448.304 147.304 448.412 147.704 448.628C148.104 448.836 148.42 449.152 148.652 449.576C148.884 450 149 450.516 149 451.124V455H147.92V451.28C147.92 450.624 147.756 450.124 147.428 449.78C147.108 449.428 146.672 449.252 146.12 449.252C145.552 449.252 145.1 449.436 144.764 449.804C144.428 450.164 144.26 450.688 144.26 451.376V455H143.18V451.28C143.18 450.624 143.016 450.124 142.688 449.78C142.368 449.428 141.932 449.252 141.38 449.252C140.812 449.252 140.36 449.436 140.024 449.804C139.688 450.164 139.52 450.688 139.52 451.376V455H138.428V448.424H139.52V449.372C139.736 449.028 140.024 448.764 140.384 448.58C140.752 448.396 141.156 448.304 141.596 448.304C142.148 448.304 142.636 448.428 143.06 448.676C143.484 448.924 143.8 449.288 144.008 449.768C144.192 449.304 144.496 448.944 144.92 448.688C145.344 448.432 145.816 448.304 146.336 448.304ZM156.623 448.424V455H155.531V454.028C155.323 454.364 155.031 454.628 154.655 454.82C154.287 455.004 153.879 455.096 153.431 455.096C152.919 455.096 152.459 454.992 152.051 454.784C151.643 454.568 151.319 454.248 151.079 453.824C150.847 453.4 150.731 452.884 150.731 452.276V448.424H151.811V452.132C151.811 452.78 151.975 453.28 152.303 453.632C152.631 453.976 153.079 454.148 153.647 454.148C154.231 454.148 154.691 453.968 155.027 453.608C155.363 453.248 155.531 452.724 155.531 452.036V448.424H156.623ZM160.795 455.108C160.291 455.108 159.839 455.024 159.439 454.856C159.039 454.68 158.723 454.44 158.491 454.136C158.259 453.824 158.131 453.468 158.107 453.068H159.235C159.267 453.396 159.419 453.664 159.691 453.872C159.971 454.08 160.335 454.184 160.783 454.184C161.199 454.184 161.527 454.092 161.767 453.908C162.007 453.724 162.127 453.492 162.127 453.212C162.127 452.924 161.999 452.712 161.743 452.576C161.487 452.432 161.091 452.292 160.555 452.156C160.067 452.028 159.667 451.9 159.355 451.772C159.051 451.636 158.787 451.44 158.563 451.184C158.347 450.92 158.239 450.576 158.239 450.152C158.239 449.816 158.339 449.508 158.539 449.228C158.739 448.948 159.023 448.728 159.391 448.568C159.759 448.4 160.179 448.316 160.651 448.316C161.379 448.316 161.967 448.5 162.415 448.868C162.863 449.236 163.103 449.74 163.135 450.38H162.043C162.019 450.036 161.879 449.76 161.623 449.552C161.375 449.344 161.039 449.24 160.615 449.24C160.223 449.24 159.911 449.324 159.679 449.492C159.447 449.66 159.331 449.88 159.331 450.152C159.331 450.368 159.399 450.548 159.535 450.692C159.679 450.828 159.855 450.94 160.063 451.028C160.279 451.108 160.575 451.2 160.951 451.304C161.423 451.432 161.807 451.56 162.103 451.688C162.399 451.808 162.651 451.992 162.859 452.24C163.075 452.488 163.187 452.812 163.195 453.212C163.195 453.572 163.095 453.896 162.895 454.184C162.695 454.472 162.411 454.7 162.043 454.868C161.683 455.028 161.267 455.108 160.795 455.108ZM164.329 451.7C164.329 451.02 164.465 450.428 164.737 449.924C165.009 449.412 165.385 449.016 165.865 448.736C166.353 448.456 166.909 448.316 167.533 448.316C168.341 448.316 169.005 448.512 169.525 448.904C170.053 449.296 170.401 449.84 170.569 450.536H169.393C169.281 450.136 169.061 449.82 168.733 449.588C168.413 449.356 168.013 449.24 167.533 449.24C166.909 449.24 166.405 449.456 166.021 449.888C165.637 450.312 165.445 450.916 165.445 451.7C165.445 452.492 165.637 453.104 166.021 453.536C166.405 453.968 166.909 454.184 167.533 454.184C168.013 454.184 168.413 454.072 168.733 453.848C169.053 453.624 169.273 453.304 169.393 452.888H170.569C170.393 453.56 170.041 454.1 169.513 454.508C168.985 454.908 168.325 455.108 167.533 455.108C166.909 455.108 166.353 454.968 165.865 454.688C165.385 454.408 165.009 454.012 164.737 453.5C164.465 452.988 164.329 452.388 164.329 451.7ZM173.118 446.12V455H172.026V446.12H173.118ZM180.979 451.46C180.979 451.668 180.967 451.888 180.943 452.12H175.687C175.727 452.768 175.947 453.276 176.347 453.644C176.755 454.004 177.247 454.184 177.823 454.184C178.295 454.184 178.687 454.076 178.999 453.86C179.319 453.636 179.543 453.34 179.671 452.972H180.847C180.671 453.604 180.319 454.12 179.791 454.52C179.263 454.912 178.607 455.108 177.823 455.108C177.199 455.108 176.639 454.968 176.143 454.688C175.655 454.408 175.271 454.012 174.991 453.5C174.711 452.98 174.571 452.38 174.571 451.7C174.571 451.02 174.707 450.424 174.979 449.912C175.251 449.4 175.631 449.008 176.119 448.736C176.615 448.456 177.183 448.316 177.823 448.316C178.447 448.316 178.999 448.452 179.479 448.724C179.959 448.996 180.327 449.372 180.583 449.852C180.847 450.324 180.979 450.86 180.979 451.46ZM179.851 451.232C179.851 450.816 179.759 450.46 179.575 450.164C179.391 449.86 179.139 449.632 178.819 449.48C178.507 449.32 178.159 449.24 177.775 449.24C177.223 449.24 176.751 449.416 176.359 449.768C175.975 450.12 175.755 450.608 175.699 451.232H179.851Z" fill="white"/>
<line x1="135.5" y1="385.5" x2="184.5" y2="385.5" stroke="#F7F8F8" stroke-linecap="round" stroke-linejoin="round"/>
<path d="M162.826 167.128C162.646 170.695 162.184 174.827 161.517 179.395C160.311 187.453 158.463 196.64 156.385 205.57C151.817 226.048 146.377 244.935 146.377 244.935C145.911 256.998 144.53 269.008 142.245 280.862C142.014 282.171 141.783 283.428 141.526 284.711C140.757 288.843 139.935 292.821 139.166 296.49C136.317 309.527 133.725 318.944 133.725 318.944L121.228 316.789C120.638 309.706 120.407 302.931 120.432 296.593C120.432 292.641 120.432 288.894 120.689 285.25C120.689 283.351 120.894 281.504 121.023 279.733C122.485 258.126 126.155 243.806 126.155 240.958C126.155 226.51 127.104 213.91 128.259 203.158C131.493 173.518 137.215 158.07 137.215 158.07C145.299 139.49 157.411 140.774 161.414 154.451C162.572 158.572 163.049 162.854 162.826 167.128Z" fill="#FFEDE5"/>
<path d="M202.576 300.545C202.576 305.677 202.268 311.092 201.806 316.686L189.308 319.073C189.308 319.073 187.101 310.989 184.51 299.39C183.56 295.13 182.559 290.408 181.61 285.43C181.353 284.019 181.071 282.556 180.814 281.119C178.516 269.18 177.126 257.084 176.657 244.935C176.657 244.935 171.165 225.869 166.546 205.288C164.545 196.46 162.697 187.324 161.414 179.343C160.721 174.801 160.285 170.618 160.105 167.077C159.831 162.757 160.273 158.422 161.414 154.246C165.468 140.568 177.555 139.311 185.639 157.864C185.639 157.864 191.336 173.262 194.543 202.722C195.897 215.354 196.608 228.048 196.673 240.753C196.673 243.601 200.369 257.638 201.806 278.938C201.806 280.734 202.037 282.556 202.139 284.429C202.55 289.536 202.653 294.874 202.576 300.545Z" fill="#FFEDE5"/>
<path d="M201.986 279.04C194.961 280.104 187.886 280.798 180.789 281.119C178.499 269.179 177.118 257.084 176.657 244.935C176.657 244.935 171.166 225.869 166.547 205.288C164.545 196.46 162.697 187.324 161.414 179.343C160.208 187.401 158.36 196.588 156.282 205.519C151.817 226.048 146.376 244.935 146.376 244.935C145.911 256.998 144.529 269.008 142.245 280.862C134.546 280.503 127.181 280.015 121.022 279.502C122.485 257.895 126.155 243.575 126.155 240.727C126.155 226.279 127.104 213.679 128.259 202.927C131.492 173.287 137.215 157.839 137.215 157.839C145.298 139.259 157.411 140.543 161.414 154.22C164.494 143.776 172.269 140.568 179.378 147.908C182.031 150.825 184.15 154.187 185.639 157.839C187.235 162.557 188.555 167.363 189.591 172.235C191.854 182.327 193.542 192.54 194.646 202.824C196 215.457 196.711 228.15 196.776 240.855C196.802 243.704 200.472 257.766 201.986 279.04Z" fill="#FF8A00"/>
<path d="M189.694 172.363C182.662 164.69 151.842 162.817 151.842 162.817L179.48 148.164C182.133 151.082 184.253 154.444 185.742 158.095C187.333 162.771 188.653 167.535 189.694 172.363Z" fill="#826B80"/>
<path d="M135.367 331.673C135.381 331.801 135.381 331.93 135.367 332.058C134.957 337.832 130.235 336.959 123.255 337.19C117.686 337.19 114.709 334.085 115.043 330.723C115.152 329.705 115.524 328.733 116.121 327.9C117.71 325.417 118.872 322.684 119.559 319.817C119.861 318.519 120.594 317.361 121.638 316.532C126.026 312.991 130.235 315.711 132.339 317.661C133.279 318.501 133.934 319.614 134.212 320.843C135.003 324.398 135.391 328.031 135.367 331.673Z" fill="#3B2645"/>
<path d="M199.856 337.062C192.696 337.062 187.82 337.883 187.692 331.673V331.134C187.678 327.731 188.057 324.339 188.821 321.023C189.116 319.615 189.853 318.338 190.925 317.379C192.131 315.994 193.791 315.086 195.608 314.817C197.424 314.549 199.276 314.939 200.831 315.916C202.217 316.874 203.203 318.308 203.602 319.945C204.297 322.682 205.441 325.283 206.99 327.644C207.325 328.127 207.593 328.654 207.785 329.209C209.017 333.11 206.117 337.164 199.856 337.062Z" fill="#3B2645"/>
<path d="M174.399 67.8679C175.083 67.0691 175.52 66.0882 175.656 65.0451C175.729 63.3861 176.031 61.7452 176.554 60.1693C177.017 59.4717 177.396 58.7224 177.684 57.9367C177.778 57.5188 177.767 57.0838 177.65 56.6714C177.534 56.259 177.316 55.8823 177.016 55.5758C176.58 55.1396 175.964 54.8316 175.759 54.2414C175.707 53.8668 175.707 53.4868 175.759 53.1123C175.68 52.5573 175.462 52.0312 175.125 51.5827C174.789 51.1341 174.345 50.7776 173.834 50.5461C172.788 50.0354 171.673 49.6809 170.524 49.4939C169.394 49.3534 168.312 48.949 167.367 48.3135C166.979 47.9509 166.558 47.6245 166.11 47.3383C165.259 46.9737 164.312 46.9015 163.415 47.133C161.714 47.4281 160.052 47.9189 158.463 48.5958C157.89 48.8965 157.276 49.1126 156.641 49.2373C155.691 49.2373 154.69 49.0577 153.741 49.2373C153.03 49.4642 152.376 49.8434 151.827 50.3487C151.277 50.854 150.845 51.4731 150.559 52.1628C150.386 52.5604 150.122 52.912 149.789 53.1893C149.369 53.4029 148.919 53.5501 148.455 53.6255C147.867 53.8563 147.345 54.2271 146.934 54.7057C146.522 55.1842 146.234 55.756 146.094 56.3713C145.851 57.643 145.851 58.949 146.094 60.2206C146.14 61.4778 146.277 62.7299 146.504 63.9673C149.07 74.232 149.815 71.3836 149.815 71.3836L157.513 70.5881C161.003 70.2031 164.468 69.7925 167.932 69.305C169.318 69.0997 170.703 68.8174 172.089 68.5864C172.921 68.6393 173.744 68.3835 174.399 67.8679Z" fill="#3B2645"/>
<path d="M149.096 66.9184C148.842 66.5685 148.508 66.2837 148.122 66.0874C147.736 65.8911 147.31 65.7888 146.877 65.7888C146.444 65.7888 146.017 65.8911 145.631 66.0874C145.246 66.2837 144.912 66.5685 144.657 66.9184C142.527 69.6642 146.453 74.617 149.353 74.7709C149.426 72.1506 149.34 69.5283 149.096 66.9184Z" fill="#86543D"/>
<path d="M191.413 96.5579C188.614 103.805 186.358 111.25 184.664 118.832C184.459 119.808 184.305 120.757 184.125 121.681C183.945 122.605 183.868 123.298 183.766 124.042C183.663 124.786 183.766 125.094 183.56 125.813C182.765 133.511 181.276 154.888 180.994 158.532C180.994 158.891 180.994 159.07 180.994 159.07C161.055 165.204 139.935 160.328 139.935 160.328L139.781 159.199C139.319 155.657 135.008 117.78 134.854 116.266C133.956 107.259 133.314 98.9701 133.263 93.8121C133.263 93.0422 133.93 92.606 134.931 92.3237C136.548 91.8618 138.832 91.7848 140.628 91.4768C143.973 90.9177 147.35 90.5663 150.739 90.4247H151.56C151.731 90.4145 151.902 90.4145 152.073 90.4247H152.689L153.331 80.1599H154.331C154.985 80.2612 155.646 80.3127 156.307 80.3139C157.096 80.3252 157.885 80.2823 158.668 80.1856L159.772 80.0573C160.311 80.0573 160.798 79.8776 161.286 79.7493C162.073 79.5679 162.845 79.3277 163.595 79.0308C163.826 78.981 164.05 78.9035 164.263 78.7998H164.468L164.981 78.5689C165.923 78.1598 166.832 77.6794 167.701 77.1318L168.907 76.3106L169.113 76.131C169.276 76.0239 169.431 75.9038 169.575 75.7717L169.857 75.5408C169.857 75.9257 169.857 76.0797 169.857 76.2336C169.633 78.2277 169.513 80.232 169.498 82.2385C169.498 83.7013 169.498 85.164 169.498 86.4471C169.498 88.6284 169.498 90.2194 169.498 90.2194H170.935C170.961 90.2006 170.992 90.1905 171.025 90.1905C171.057 90.1905 171.088 90.2006 171.114 90.2194C173.195 90.2475 175.27 90.4276 177.325 90.7583C181.228 91.271 185.065 92.2001 188.77 93.5298C189.334 93.7608 189.745 93.9661 190.104 94.1457C190.463 94.3253 191.593 96.096 191.413 96.5579Z" fill="#FFEDE5"/>
<path d="M169.96 75.5665C169.669 77.4137 168.972 79.1734 167.919 80.719C166.866 82.2645 165.484 83.5575 163.871 84.5048C162.259 85.4521 160.457 86.0301 158.594 86.1974C156.732 86.3646 154.855 86.1169 153.1 85.472L153.433 80.16C156.356 80.6193 159.344 80.447 162.195 79.6547C165.045 78.8623 167.693 77.4683 169.96 75.5665Z" fill="#86543D"/>
<path d="M149.379 59.1942C147.941 60.7852 147.916 64.3266 147.916 68.0476C147.916 79.5698 151.457 83.0598 157.359 83.4447C163.262 83.8297 169.369 81.4431 170.19 70.6138C170.678 65.2504 171.191 60.349 169.19 58.0394C166.29 54.883 153.741 54.3441 149.379 59.1942Z" fill="#FFEDE5"/>
<path d="M169.446 69.2793C169.446 69.2793 171.088 64.4548 174.014 66.8927C176.939 69.3306 173.218 76.6699 168.881 76.2593C168.856 76.2593 168.112 70.9473 169.446 69.2793Z" fill="#FFEDE5"/>
<path d="M172.757 69.0996C172.096 69.3339 171.511 69.7416 171.063 70.2801C170.539 70.743 170.12 71.3114 169.831 71.9481C169.831 72.1278 170.037 72.2304 170.165 72.1278C170.293 72.0251 170.806 71.3322 171.14 70.973C171.368 71.244 171.659 71.4554 171.987 71.5889C172.045 71.6147 172.11 71.6202 172.171 71.6045C172.233 71.5888 172.287 71.5529 172.326 71.5025C172.365 71.452 172.385 71.3901 172.384 71.3266C172.383 71.2631 172.361 71.2018 172.321 71.1526C172.142 70.8884 171.905 70.6689 171.628 70.511C172.1 70.1867 172.546 69.8264 172.962 69.4332C172.991 69.4002 173.008 69.359 173.012 69.3154C173.015 69.2719 173.005 69.2283 172.982 69.1911C172.959 69.1539 172.925 69.1249 172.884 69.1085C172.844 69.0921 172.799 69.0889 172.757 69.0996Z" fill="#86543D"/>
<path d="M152.972 67.6113C152.972 67.6113 151.996 67.9962 152.073 66.2512C152.15 64.5062 152.895 64.8398 152.895 64.8398C152.895 64.8398 153.587 64.8398 153.51 66.1999C153.433 67.56 152.972 67.6113 152.972 67.6113Z" fill="#3B2645"/>
<path d="M163.057 67.3033C163.057 67.3033 162.082 67.6882 162.184 65.9176C162.287 64.1469 162.98 64.5318 162.98 64.5318C162.98 64.5318 163.673 64.5318 163.621 65.8919C163.57 67.252 163.057 67.3033 163.057 67.3033Z" fill="#3B2645"/>
<path d="M157.693 72.1791C157.18 72.1791 156.025 72.4357 155.768 71.8968C155.837 70.6694 156.052 69.4547 156.41 68.2785C156.826 66.6972 157.16 65.0955 157.411 63.4797C157.411 63.4797 157.411 63.4797 157.231 63.4797C156.295 66.3353 155.592 69.2617 155.127 72.2304C155.114 72.2663 155.11 72.3049 155.116 72.3425C155.122 72.3802 155.137 72.4159 155.159 72.4464C155.182 72.4769 155.212 72.5012 155.247 72.5173C155.282 72.5333 155.32 72.5406 155.358 72.5384C156.102 72.5384 156.82 72.5384 157.565 72.5384C157.847 72.6154 157.898 72.2048 157.693 72.1791Z" fill="#86543D"/>
<path d="M154.948 62.2993C154.333 62.2476 153.715 62.2476 153.1 62.2993C152.468 62.1509 151.824 62.065 151.175 62.0426C151.101 62.0435 151.029 62.0657 150.968 62.1064C150.906 62.1472 150.857 62.2049 150.828 62.2725C150.798 62.3402 150.788 62.415 150.8 62.488C150.811 62.561 150.844 62.6291 150.893 62.6842C151.489 63.1056 152.179 63.3769 152.902 63.4752C153.626 63.5735 154.363 63.4958 155.05 63.2488C155.157 63.2144 155.249 63.1443 155.31 63.0502C155.371 62.9561 155.398 62.8438 155.386 62.7322C155.374 62.6207 155.323 62.5167 155.244 62.4378C155.164 62.3589 155.059 62.31 154.948 62.2993Z" fill="#3B2645"/>
<path d="M165.777 60.9392C164.912 61.4243 163.963 61.738 162.979 61.863C162.338 61.863 161.568 61.7347 161.055 62.1709C161.023 62.2207 161.006 62.2786 161.006 62.3377C161.006 62.3969 161.023 62.4548 161.055 62.5045C162.056 63.9673 165.34 62.2479 166.187 61.2214C166.213 61.0418 165.956 60.8622 165.777 60.9392Z" fill="#3B2645"/>
<path d="M161.465 75.1815C160.384 75.0274 159.287 75.0274 158.206 75.1815C157.462 75.1815 156.41 75.0532 155.871 75.6691C156.461 76.208 157.462 75.977 158.206 75.9514C159.29 76.0543 160.381 76.0543 161.465 75.9514C161.567 75.9514 161.665 75.9108 161.737 75.8386C161.809 75.7664 161.85 75.6685 161.85 75.5664C161.85 75.4644 161.809 75.3664 161.737 75.2943C161.665 75.2221 161.567 75.1815 161.465 75.1815Z" fill="#86543D"/>
<path d="M249.332 208.803H69.3133C68.8709 208.803 68.4466 208.628 68.1338 208.315C67.821 208.002 67.6453 207.578 67.6453 207.135C67.6453 206.693 67.821 206.269 68.1338 205.956C68.4466 205.643 68.8709 205.467 69.3133 205.467H249.332C249.774 205.467 250.199 205.643 250.511 205.956C250.824 206.269 251 206.693 251 207.135C251 207.578 250.824 208.002 250.511 208.315C250.199 208.628 249.774 208.803 249.332 208.803Z" fill="#3B2645"/>
<path d="M75.0103 215.732C74.2549 215.732 73.5304 215.432 72.9962 214.898C72.462 214.364 72.1619 213.639 72.1619 212.884V201.31C72.1619 200.555 72.462 199.83 72.9962 199.296C73.5304 198.762 74.2549 198.462 75.0103 198.462C75.7658 198.462 76.4903 198.762 77.0245 199.296C77.5587 199.83 77.8588 200.555 77.8588 201.31V212.832C77.8692 213.212 77.803 213.589 77.6641 213.942C77.5253 214.295 77.3167 214.617 77.0508 214.888C76.7849 215.158 76.4672 215.373 76.1166 215.518C75.766 215.663 75.3898 215.736 75.0103 215.732Z" fill="#3B2645"/>
<path d="M80.7071 225.817C79.9517 225.817 79.2271 225.517 78.6929 224.983C78.1587 224.449 77.8586 223.724 77.8586 222.969V191.302C77.9262 190.59 78.2568 189.928 78.7859 189.447C79.315 188.966 80.0046 188.699 80.7199 188.699C81.4353 188.699 82.1249 188.966 82.654 189.447C83.1831 189.928 83.5137 190.59 83.5813 191.302V222.969C83.5745 223.727 83.2687 224.451 82.7304 224.985C82.1922 225.518 81.465 225.817 80.7071 225.817Z" fill="#291B30"/>
<path d="M86.4296 230.59C86.0546 230.594 85.6827 230.522 85.3355 230.38C84.9884 230.239 84.673 230.029 84.4078 229.764C84.1426 229.498 83.933 229.183 83.791 228.836C83.6491 228.489 83.5777 228.117 83.5812 227.742V187.478C83.5812 186.723 83.8813 185.998 84.4155 185.464C84.9497 184.93 85.6742 184.63 86.4296 184.63C87.1851 184.63 87.9096 184.93 88.4438 185.464C88.978 185.998 89.2781 186.723 89.2781 187.478V227.742C89.2781 228.497 88.978 229.222 88.4438 229.756C87.9096 230.29 87.1851 230.59 86.4296 230.59Z" fill="#3B2645"/>
<path d="M241.145 215.732C241.901 215.732 242.625 215.432 243.159 214.898C243.694 214.364 243.994 213.639 243.994 212.884V201.31C243.994 200.555 243.694 199.83 243.159 199.296C242.625 198.762 241.901 198.462 241.145 198.462C240.39 198.462 239.665 198.762 239.131 199.296C238.597 199.83 238.297 200.555 238.297 201.31V212.832C238.29 213.211 238.359 213.587 238.499 213.938C238.639 214.29 238.848 214.61 239.113 214.88C239.378 215.15 239.694 215.364 240.043 215.51C240.392 215.657 240.767 215.732 241.145 215.732Z" fill="#3B2645"/>
<path d="M235.449 225.817C236.205 225.817 236.929 225.517 237.463 224.983C237.997 224.449 238.298 223.724 238.298 222.969V191.302C238.23 190.59 237.899 189.928 237.37 189.447C236.841 188.966 236.152 188.699 235.436 188.699C234.721 188.699 234.031 188.966 233.502 189.447C232.973 189.928 232.642 190.59 232.575 191.302V222.969C232.582 223.727 232.888 224.451 233.426 224.985C233.964 225.518 234.691 225.817 235.449 225.817Z" fill="#291B30"/>
<path d="M229.726 230.59C230.101 230.594 230.473 230.522 230.82 230.38C231.167 230.239 231.483 230.029 231.748 229.764C232.013 229.498 232.223 229.183 232.365 228.836C232.507 228.489 232.578 228.117 232.575 227.742V187.478C232.575 186.723 232.275 185.998 231.74 185.464C231.206 184.93 230.482 184.63 229.726 184.63C228.971 184.63 228.246 184.93 227.712 185.464C227.178 185.998 226.878 186.723 226.878 187.478V227.742C226.878 228.497 227.178 229.222 227.712 229.756C228.246 230.29 228.971 230.59 229.726 230.59Z" fill="#3B2645"/>
<path d="M144.4 113.187C143.349 116.852 141.894 120.389 140.063 123.734C139.319 125.274 136.316 131.792 136.188 132.048C131.518 142.288 124.923 157.402 124.332 159.199C122.87 164.998 119.739 198.744 119.713 198.744C116.505 203.568 110.398 201.31 110.398 201.31C110.398 201.31 110.398 200.284 110.116 198.539C109.423 191.071 107.78 170.079 109.679 157.659C110.218 154.22 112.246 145.88 114.812 136.462C116.865 128.764 117.763 121.45 120.201 113.957C122.254 107.509 125.349 101.441 129.362 95.9934C130.865 94.2782 132.836 93.0386 135.033 92.4264C135.983 92.4264 136.393 93.6582 137.189 94.0174C139.449 95.0727 141.266 96.8896 142.321 99.1498C144.557 103.467 145.289 108.407 144.4 113.187Z" fill="#FFEDE5"/>
<path d="M109.782 204.774C109.782 203.645 110.013 202.491 110.039 201.361C110.039 199.591 110.039 198.436 110.039 198.436C111.136 197.37 112.537 196.669 114.049 196.43C115.56 196.191 117.109 196.426 118.482 197.102C119.1 197.553 119.668 198.069 120.175 198.641C121.202 199.616 122.382 200.386 123.357 201.413C123.865 201.902 124.254 202.501 124.494 203.164C124.734 203.827 124.819 204.536 124.743 205.236C123.527 205.37 122.398 205.935 121.561 206.827C120.612 208.008 121.022 209.086 120.56 210.394C120.098 211.703 118.969 211.832 117.994 211.985C114.709 212.473 110.013 212.627 109.731 208.393C109.659 207.187 109.676 205.978 109.782 204.774Z" fill="#FFEDE5"/>
<path d="M212.507 198.359C212.353 200.104 212.224 201.13 212.224 201.13C212.224 201.13 206.117 203.466 202.883 198.564C202.883 198.564 199.753 164.921 198.187 159.122C197.931 158.147 195.929 153.399 193.414 147.651C190.899 141.903 182.816 124.324 182.559 123.734C180.717 120.395 179.262 116.856 178.222 113.187C177.248 108.344 177.945 103.315 180.198 98.9188C181.268 96.6686 183.08 94.8559 185.331 93.7864C186.125 93.3876 187.009 93.2019 187.897 93.2475C188.178 93.2467 188.456 93.299 188.718 93.4015C189.193 93.533 189.644 93.741 190.052 94.0174C190.681 94.4562 191.265 94.9547 191.797 95.5058C196.398 100.408 199.798 106.311 201.729 112.751C204.295 120.449 205.809 128.738 207.759 136.154C210.325 145.572 212.327 153.912 212.891 157.351C214.842 169.9 213.174 190.891 212.507 198.359Z" fill="#FFEDE5"/>
<path d="M212.738 204.8C212.738 203.517 212.584 202.234 212.559 201.361C212.559 199.591 212.559 198.436 212.559 198.436C211.467 197.369 210.071 196.667 208.563 196.428C207.055 196.189 205.51 196.424 204.141 197.102C203.521 197.559 202.945 198.074 202.422 198.641C201.421 199.616 200.215 200.386 199.266 201.413C198.753 201.899 198.361 202.497 198.121 203.161C197.88 203.825 197.798 204.535 197.88 205.236C199.056 205.546 200.206 205.95 201.319 206.442C202.268 207.418 201.55 208.29 201.55 209.419C201.55 210.985 202.627 211.524 204.116 211.78L206.99 212.293C208.514 212.66 210.116 212.525 211.558 211.908C211.765 211.79 211.948 211.633 212.097 211.447C212.219 211.259 212.306 211.05 212.353 210.831C212.844 208.86 212.975 206.817 212.738 204.8Z" fill="#FFEDE5"/>
<path d="M184.664 118.833L186.101 158.994C162.389 168.257 136.753 159.609 136.753 159.609L136.188 121.116L135.418 120.886C134.263 120.526 133.032 120.141 131.774 119.628C131.056 119.346 130.311 119.064 129.567 118.704C126.356 117.237 123.229 115.592 120.201 113.777C122.254 107.33 125.349 101.262 129.362 95.8138C130.872 94.1065 132.84 92.8685 135.033 92.2468C136.65 91.8105 138.934 91.7079 140.73 91.3999C144.076 90.8408 147.452 90.4894 150.841 90.3478L160.156 113.444C164.145 105.916 167.651 98.1414 170.652 90.1682H170.909C170.935 90.1494 170.966 90.1393 170.999 90.1393C171.031 90.1393 171.062 90.1494 171.088 90.1682C173.169 90.1963 175.244 90.3764 177.299 90.7071C181.212 91.2381 185.057 92.1843 188.769 93.5299C189.245 93.6614 189.695 93.8694 190.104 94.1458C190.732 94.5846 191.316 95.083 191.849 95.6342C196.45 100.536 199.849 106.439 201.78 112.879C198.692 114.295 195.531 115.545 192.311 116.626C188.051 117.96 184.664 118.833 184.664 118.833Z" fill="#3B2645"/>
<path d="M136.188 107.849V121.117L135.418 120.886C134.264 120.526 133.032 120.141 131.774 119.628C133.447 115.78 134.92 111.849 136.188 107.849Z" fill="#27192E"/>
<path d="M129.645 322.819C127.617 321.69 123.819 320.818 121.946 322.383C121.91 322.446 121.891 322.516 121.891 322.588C121.891 322.661 121.91 322.731 121.946 322.794V322.948C121.946 323.153 122.228 323.204 122.382 323.127C122.536 323.05 122.382 323.127 122.562 323.127C123.001 322.848 123.505 322.689 124.025 322.665C124.689 322.635 125.353 322.695 126.001 322.845C127.204 323.2 128.444 323.415 129.696 323.487C129.785 323.48 129.867 323.438 129.924 323.371C129.982 323.303 130.011 323.216 130.004 323.127C129.997 323.039 129.955 322.957 129.888 322.899C129.821 322.841 129.733 322.813 129.645 322.819Z" fill="#27192E"/>
<path d="M130.954 326.438C129.807 325.508 128.375 325.001 126.899 325.001C125.437 324.651 123.9 324.804 122.536 325.437C122.357 325.591 122.254 325.976 122.536 326.104C123.734 326.412 124.971 326.542 126.206 326.489C127.681 326.897 129.195 327.146 130.723 327.233C130.807 327.218 130.886 327.18 130.95 327.122C131.015 327.064 131.061 326.99 131.085 326.907C131.109 326.825 131.11 326.737 131.086 326.654C131.063 326.571 131.017 326.496 130.954 326.438Z" fill="#27192E"/>
<path d="M200.035 321.434C198.657 320.675 197.079 320.357 195.515 320.522C193.95 320.687 192.474 321.328 191.284 322.358C191.028 322.691 191.284 323.333 191.669 323.281C192.978 323.281 194.235 322.511 195.518 322.383C196.802 322.255 198.213 322.742 199.547 322.588C200.061 322.537 200.523 321.921 200.035 321.434Z" fill="#27192E"/>
<path d="M201.113 324.795C199.433 324.395 197.695 324.3 195.981 324.513C195.376 324.435 194.761 324.486 194.177 324.663C193.593 324.84 193.053 325.139 192.593 325.54C192.234 326.002 192.593 326.874 193.235 326.643C195.801 325.745 198.701 327.079 201.241 326.155C201.381 326.095 201.497 325.992 201.574 325.862C201.651 325.731 201.685 325.58 201.671 325.429C201.656 325.278 201.595 325.135 201.495 325.022C201.395 324.908 201.261 324.829 201.113 324.795Z" fill="#27192E"/>
<path d="M112.554 73.6675C103.906 75.2586 94.9239 73.9241 86.5068 77.1575C85.9423 77.3885 85.9679 78.338 86.6608 78.2867C91.7932 78.0044 96.7973 76.9779 101.904 76.67C105.599 76.439 109.936 77.2345 113.298 75.4125C114.273 74.848 113.555 73.4879 112.554 73.6675Z" fill="#F7F8F8"/>
<path d="M115.684 61.6321C111.467 59.4594 107.112 57.5649 102.648 55.9608C101.878 55.7042 101.442 56.859 102.109 57.2696C106.139 59.5927 110.304 61.6749 114.581 63.5054C115.838 64.0443 116.967 62.248 115.684 61.6321Z" fill="#F7F8F8"/>
<defs>
<filter id="filter0_d_255_3989" x="0" y="0" width="319" height="522" filterUnits="userSpaceOnUse" color-interpolation-filters="sRGB">
<feFlood flood-opacity="0" result="BackgroundImageFix"/>
<feColorMatrix in="SourceAlpha" type="matrix" values="0 0 0 0 0 0 0 0 0 0 0 0 0 0 0 0 0 0 127 0" result="hardAlpha"/>
<feOffset dy="10"/>
<feGaussianBlur stdDeviation="11"/>
<feColorMatrix type="matrix" values="0 0 0 0 0.772549 0 0 0 0 0.545098 0 0 0 0 0.94902 0 0 0 0.3 0"/>
<feBlend mode="normal" in2="BackgroundImageFix" result="effect1_dropShadow_255_3989"/>
<feBlend mode="normal" in="SourceGraphic" in2="effect1_dropShadow_255_3989" result="shape"/>
</filter>
<linearGradient id="paint0_linear_255_3989" x1="297" y1="490" x2="-70.9835" y2="473.618" gradientUnits="userSpaceOnUse">
<stop stop-color="#C150F6"/>
<stop offset="1" stop-color="#EEA4CE"/>
</linearGradient>
</defs>
</svg>
